<svg xmlns="http://www.w3.org/2000/svg" width="86.06" height="55.511" viewBox="0 0 86.06 55.511">
    <path d="M4490.218,15825.129c-6.679-.2-18.216-1.145-21.021-5.348a1.639,1.639,0,0,1-.541-1.389q.083-.9.205-1.787a17.26,17.26,0,0,1,.456-2.687,42.484,42.484,0,0,1,1.536-5.568c-1.936-.4-3.681-.8-5.545-1.309l-1.143-.285a24.612,24.612,0,0,1-3.292-1.023c-.635-.246-1.341-.484-2.086-.738-.952-.316-1.952-.658-2.912-1.047-1.618-.65-3.141-1.4-4.616-2.133l-1.183-.58a1.85,1.85,0,0,1,.151-3.371c4.164-1.627,8.313-3.213,12.462-4.807q7.069-2.7,14.152-5.459c2.174-.857,10.139-3.291,12.756-3.562,2.555-.262,5.768.826,8.623,1.777,1.023.35,1.991.666,2.84.9l32.779,10.916a1.761,1.761,0,0,1,1.277,1.674,1.8,1.8,0,0,1-1.254,1.762,170.01,170.01,0,0,0-19.166,7.424,3.074,3.074,0,0,0-1.285.85c-.491.73.008,1.746.841,3.213.159.277.31.563.452.832a12.048,12.048,0,0,1,1.3,4.2,5.022,5.022,0,0,1-.239,3.154,2.273,2.273,0,0,1-1.295,1.236l-.059.021c-2.267,2.277-12.69,3.184-21.083,3.184C4492.249,15825.176,4491.2,15825.16,4490.218,15825.129Z" transform="translate(-4449.061 -15783.996)" class="type__svg-fill"></path>
    <path d="M367.493,508.465c-1.076,0-2.121-.015-3.109-.046-6.76-.2-18.491-1.171-21.114-5.5-.154-.39-.671-2.194.242-5.828l1.774.444a10,10,0,0,0-.361,4.642c1.452,2.338,8.964,4.11,19.513,4.417,12.39.356,21.966-1.332,22.852-2.616l.327-.29c.63-.322,1.071-.549.747-2.543l1.806-.3c.49,3-.525,3.846-1.542,4.378C386.467,507.545,375.951,508.465,367.493,508.465Z" transform="translate(-323.227 -467.288)" class="type__svg-line"></path>
    <path d="M399.463,523a2.366,2.366,0,0,1-1.408-.466,27.957,27.957,0,0,0-20.27-5.269,15.082,15.082,0,0,1-4.764-.193,16.212,16.212,0,0,0-3.651-.293,26.478,26.478,0,0,0-8.148,2.113c-.5.232-1.018.439-1.54.647a11.627,11.627,0,0,0-2.548,1.24,1.633,1.633,0,0,1-1.8.1,1.659,1.659,0,0,1-.844-1.611,42.042,42.042,0,0,1,2.2-10.042c-1.935-.39-3.683-.8-5.547-1.3L350,507.629a24.364,24.364,0,0,1-3.3-1.02c-.635-.244-1.342-.486-2.084-.735-.949-.32-1.95-.659-2.914-1.047-1.618-.654-3.141-1.408-4.612-2.138l-1.181-.581a1.846,1.846,0,0,1,.149-3.37c4.161-1.623,8.31-3.214,12.461-4.8,4.712-1.8,9.425-3.609,14.152-5.461,2.177-.857,10.142-3.295,12.756-3.558,2.557-.261,5.771.822,8.624,1.774,1.025.344,1.994.669,2.841.893L419.667,498.5a1.762,1.762,0,0,1,1.281,1.674,1.794,1.794,0,0,1-1.257,1.762,170.79,170.79,0,0,0-19.167,7.426,3.034,3.034,0,0,0-1.281.847c-.5.732.01,1.747.84,3.212.159.281.312.561.456.832a10.8,10.8,0,0,1,1.179,6.96h0a2.259,2.259,0,0,1-1.418,1.635A2.38,2.38,0,0,1,399.463,523Zm-18.083-7.8a29.959,29.959,0,0,1,17.768,5.869.521.521,0,0,0,.508.068.41.41,0,0,0,.276-.307,9.064,9.064,0,0,0-1.018-5.728c-.132-.254-.276-.512-.427-.779-.857-1.52-1.928-3.411-.759-5.134a4.627,4.627,0,0,1,2.038-1.486,172.9,172.9,0,0,1,19.367-7.507l-32.767-10.857c-.825-.22-1.833-.554-2.892-.91-2.684-.893-5.74-1.9-7.861-1.689a85.631,85.631,0,0,0-12.273,3.439c-4.734,1.86-9.449,3.663-14.166,5.469-4.146,1.589-8.292,3.177-12.448,4.8l1.179.605c1.506.749,2.931,1.454,4.485,2.079.932.378,1.9.7,2.814,1.013.769.256,1.5.508,2.162.761a22.8,22.8,0,0,0,3.08.952l1.167.3c2.15.581,4.146,1.037,6.472,1.476l1.071.2-.388,1.022a40.081,40.081,0,0,0-2.426,10.25,14.737,14.737,0,0,1,2.665-1.266c.488-.193.976-.383,1.437-.6a28.31,28.31,0,0,1,8.846-2.287,18.953,18.953,0,0,1,4.022.317,13.19,13.19,0,0,0,4.229.183A28.9,28.9,0,0,1,381.379,515.2Z" transform="translate(-334.888 -484.877)" class="type__svg-line"></path>
    <path d="M385.134,501.846a.915.915,0,0,1-.915-.915c0-1.171-2.3-2.567-4.442-3.365-4.842-1.808-9.847-3.678-15.023-4.161a29.494,29.494,0,0,0-16.77,3.5,11.082,11.082,0,0,0-2.25,2.431.941.941,0,0,1-1.164.556.889.889,0,0,1-.583-1.1,10.767,10.767,0,0,1,3.112-3.487,31.187,31.187,0,0,1,17.827-3.722c5.418.5,10.538,2.416,15.494,4.266,1.694.635,5.63,2.4,5.63,5.081A.915.915,0,0,1,385.134,501.846Z" transform="translate(-321.839 -475.406)" class="type__svg-line"></path>
    <path d="M367.1,505.035l-1.406-1.166a.35.35,0,0,0-.076.142,101.852,101.852,0,0,0,.142-13.3.6.6,0,0,0-.054-.261.575.575,0,0,0,.5-.166l-1.047.186-.1-.242-.02.019.02-.019-.347-.9a1.085,1.085,0,0,1,1.276-.671,1.9,1.9,0,0,1,1.589,1.95,103.834,103.834,0,0,1-.132,13.446A1.635,1.635,0,0,1,367.1,505.035Zm-.654-15.145v.046l.015-.041Z" transform="translate(-291.916 -479.462)" class="type__svg-line"></path>
    <path d="M365.4,526.127a1.287,1.287,0,0,1-.815-.3.927.927,0,0,1-.329-.586,18.506,18.506,0,0,1-.027-3.465l.024-.505c.181-3.573.215-7.482.251-11.262.032-3.58.066-7.277.22-10.711a1.2,1.2,0,0,1-.183-.342c-.615-1.655-.5-2.867.361-3.6,1.262-1.091,3.456-.344,3.7-.2,1.469.82,1.33,2.755,1.271,3.582a2.107,2.107,0,0,1-.027.22.913.913,0,0,1-.071.337l-.012.044a1.773,1.773,0,0,0-.059.315,24.871,24.871,0,0,0,.268,2.977c.056.434.107.827.139,1.164.2,2.128.512,4.268.818,6.338l.232,1.608c.142.976.251,1.86.354,2.692a38.889,38.889,0,0,0,1.564,7.834,2.331,2.331,0,0,1-.015,1.869,2.022,2.022,0,0,1-2.167,1.084,2.37,2.37,0,0,1-1.191-.666,1.506,1.506,0,0,1-.81.949,1.285,1.285,0,0,1-1.118-.13,2.27,2.27,0,0,1-.678-.678,3.284,3.284,0,0,1-.9,1.164A1.412,1.412,0,0,1,365.4,526.127Zm3.746-5.83a.913.913,0,0,1,.9.761c.193,1.108.783,2.282,1.193,2.367.022,0,.124.017.215-.146a2.293,2.293,0,0,0-.112-.454,40.239,40.239,0,0,1-1.638-8.161c-.1-.822-.212-1.7-.349-2.66l-.234-1.6c-.308-2.094-.625-4.258-.825-6.438-.032-.315-.08-.683-.134-1.091a28.132,28.132,0,0,1-.278-2.994l-.239.007c-.4.015-.766.037-1.115.022-.134,3.253-.163,6.738-.2,10.115-.034,3.78-.068,7.69-.246,11.282a.918.918,0,0,1,1.684.12,1.555,1.555,0,0,1,.056.254,8.381,8.381,0,0,0,.376,1.154,7.292,7.292,0,0,0,.039-1.5.913.913,0,0,1,.766-1.03A.693.693,0,0,1,369.146,520.3Zm-2.829-22.222c.339.015.854,0,1.264-.015.159-.007.325-.012.5-.017,0-.5-.056-1.115-.366-1.286-.344-.137-1.362-.264-1.633,0-.1.09-.173.437.042,1.164A.913.913,0,0,1,366.317,498.075Z" transform="translate(-292.733 -470.615)" class="type__svg-line"></path>
  </svg>