<svg xmlns="http://www.w3.org/2000/svg" width="79.927" height="77.793" viewBox="0 0 79.927 77.793">
    <path d="M441.331,499.058a1.574,1.574,0,0,1-.449-.063,2.348,2.348,0,0,1-1.432-1.611c-.344-.925-1.035-2.484-1.786-4.171-1.862-4.2-3-6.818-3.019-7.848a6.834,6.834,0,0,1,2.521-5.193v0a9.374,9.374,0,0,1,2.209-1.437,4.9,4.9,0,0,1,2.167-.42,7.34,7.34,0,0,1,3.436.805,14.03,14.03,0,0,1,2.013,1.613,5.31,5.31,0,0,1,1.335,5.047,39.85,39.85,0,0,1-1.806,4.483c-.976,2.25-2.082,4.8-2.548,6.233a4.43,4.43,0,0,1-.7,1.174c-.107.146-.21.278-.278.391A1.977,1.977,0,0,1,441.331,499.058Z" transform="translate(-434.643 -478.313)" class="type__svg-fill"></path>
    <path d="M469.661,527.056a3.273,3.273,0,0,1-2.316-1.262c-1.974-2.165-5.557-10.638-8.212-17.366a9.264,9.264,0,0,1,.637-7.848,8.21,8.21,0,0,1,3.05-3.519,11.528,11.528,0,0,1,11.392-1.428,10,10,0,0,1,5.886,9.886c-.137,1.242-2.411,6.928-7.607,19.008-.271.622-1.083,2.516-2.814,2.528Z" transform="translate(-400.221 -454.667)" class="type__svg-fill"></path>
    <path d="M501.268,541.746a.874.874,0,0,1-.373-.08,27.546,27.546,0,0,0-3.143-1.03c-.51-.146-1.035-.3-1.562-.459a.915.915,0,1,1,.534-1.75c.517.159,1.035.3,1.533.451a27.346,27.346,0,0,1,3.385,1.12.913.913,0,0,1-.373,1.747Zm-9.53-3.326a.956.956,0,0,1-.356-.071l-4.654-1.967a.916.916,0,0,1,.715-1.686l4.649,1.965a.916.916,0,0,1-.354,1.759Zm-9.308-3.931a.945.945,0,0,1-.354-.071l-4.654-1.967a.916.916,0,1,1,.713-1.689l4.651,1.967a.916.916,0,0,1-.356,1.759Zm-9.305-3.934a.912.912,0,0,1-.356-.073l-4.654-1.964a.917.917,0,0,1,.715-1.689l4.649,1.967a.916.916,0,0,1-.354,1.76Zm-9.308-3.936a.945.945,0,0,1-.354-.071l-4.654-1.972a.914.914,0,1,1,.715-1.682l4.649,1.967a.914.914,0,0,1-.356,1.757Zm-9.256-4.036a.912.912,0,0,1-.425-.1c-.813-.427-1.589-.871-2.377-1.325-.666-.378-1.335-.764-2.038-1.145a.914.914,0,0,1,.866-1.611c.717.386,1.406.779,2.082,1.169.769.439,1.528.874,2.318,1.291a.915.915,0,0,1-.427,1.725Zm-8.71-5.093a.9.9,0,0,1-.588-.215,9.374,9.374,0,0,1-1.193-1.174,6.656,6.656,0,0,1-1.581-3.714.916.916,0,0,1,.84-.986.872.872,0,0,1,.986.84,4.839,4.839,0,0,0,1.154,2.68,7.989,7.989,0,0,0,.971.954.915.915,0,0,1-.588,1.615Zm-.242-8.529a.916.916,0,0,1-.527-1.664,19.327,19.327,0,0,1,3.756-1.886l.949-.4a.913.913,0,0,1,.725,1.677l-.971.41a17.846,17.846,0,0,0-3.4,1.7A.937.937,0,0,1,445.611,508.96Zm8.9-4.717a.914.914,0,0,1-.547-1.647,21.576,21.576,0,0,0,2.911-2.606c.193-.212.388-.442.571-.678a.914.914,0,1,1,1.449,1.115c-.217.281-.446.552-.678.805a23.068,23.068,0,0,1-3.163,2.831A.9.9,0,0,1,454.516,504.243Zm3.9-8.624-.063-.122a4.375,4.375,0,0,0-2.367-1.55c-.4-.154-.813-.3-1.247-.439a.916.916,0,1,1,.556-1.745q.707.231,1.347.471a6.018,6.018,0,0,1,3.312,2.379l-.73.576Zm-8.292-3.326a1.024,1.024,0,0,1-.19-.02c-1.608-.344-3.287-.651-4.932-.935a.91.91,0,0,1-.744-1.054.886.886,0,0,1,1.054-.747c1.669.283,3.37.6,5,.944a.915.915,0,0,1-.19,1.811Zm-9.954-1.764a1.05,1.05,0,0,1-.149-.012c-.879-.142-1.716-.283-2.479-.422a.915.915,0,1,1,.33-1.8c.754.139,1.576.273,2.445.417a.915.915,0,0,1-.146,1.818Z" transform="translate(-431.555 -463.954)" class="type__svg-line"></path>
    <path d="M469.661,527.056a3.273,3.273,0,0,1-2.316-1.262c-1.974-2.165-5.557-10.638-8.212-17.366a9.264,9.264,0,0,1,.637-7.848,8.21,8.21,0,0,1,3.05-3.519,11.528,11.528,0,0,1,11.392-1.428,10,10,0,0,1,5.886,9.886c-.137,1.242-2.411,6.928-7.607,19.008-.271.622-1.083,2.516-2.814,2.528Zm.225-30.485a10.147,10.147,0,0,0-6.035,2.006l-.166.1a6.771,6.771,0,0,0-2.309,2.782,7.452,7.452,0,0,0-.542,6.3c3.624,9.173,6.489,15.3,7.863,16.8.151.166.608.666.964.666h0c.244,0,.642-.251,1.144-1.42,4.849-11.27,7.363-17.485,7.47-18.483a8.234,8.234,0,0,0-4.81-8.017A8.806,8.806,0,0,0,469.886,496.571Z" transform="translate(-400.221 -454.667)" class="type__svg-line"></path>
    <path d="M441.331,499.058a1.574,1.574,0,0,1-.449-.063,2.348,2.348,0,0,1-1.432-1.611c-.344-.925-1.035-2.484-1.786-4.171-1.862-4.2-3-6.818-3.019-7.848a6.834,6.834,0,0,1,2.521-5.193v0a9.374,9.374,0,0,1,2.209-1.437,4.9,4.9,0,0,1,2.167-.42,7.34,7.34,0,0,1,3.436.805,14.03,14.03,0,0,1,2.013,1.613,5.31,5.31,0,0,1,1.335,5.047,39.85,39.85,0,0,1-1.806,4.483c-.976,2.25-2.082,4.8-2.548,6.233a4.43,4.43,0,0,1-.7,1.174c-.107.146-.21.278-.278.391A1.977,1.977,0,0,1,441.331,499.058Zm-2.96-17.512a5.1,5.1,0,0,0-1.9,3.778c.022.754,1.8,4.756,2.86,7.148.769,1.728,1.477,3.326,1.83,4.273.141.378.22.481.256.508a2.164,2.164,0,0,1,.376-.674,4.481,4.481,0,0,0,.434-.654c.493-1.516,1.615-4.1,2.606-6.391.717-1.657,1.611-3.717,1.691-4.112a3.529,3.529,0,0,0-.774-3.339,12.548,12.548,0,0,0-1.765-1.423,5.684,5.684,0,0,0-2.423-.517,3.165,3.165,0,0,0-1.42.249,7.506,7.506,0,0,0-1.777,1.154Z" transform="translate(-434.643 -478.313)" class="type__svg-line"></path>
  </svg>