<svg xmlns="http://www.w3.org/2000/svg" width="86.755" height="66.313" viewBox="0 0 86.755 66.313" class="type__svg" role="presentation">
    <g transform="translate(-248.199 -478.654)">
        <g transform="translate(274.623 478.654)">
            <path d="M281.606,505.029c-1.576.569-3.939,3.114-7.4,2.745a8.086,8.086,0,0,1-3-1.045,5.932,5.932,0,0,1-1.764-1.789c-.351-.461-.708-.918-1.093-1.35a12.512,12.512,0,0,1-2.831-5.908,14.688,14.688,0,0,1-.556-2.538c-.891.161-1.435-1.062-1.706-1.75-.146-.373-.437-1.86-.534-2.248a5.823,5.823,0,0,1,.034-3,.621.621,0,0,1,.151-.3c.256-.237.705-.02,1.057-.107-.093-1.145-.334-1.926-.339-3.077-.015-2.66,4.7-2.167,4.773-1.74a5.35,5.35,0,0,1,3.331-3.646,2.758,2.758,0,0,1,2.1-.073,2.156,2.156,0,0,1,.91.9,3.29,3.29,0,0,1,.444,1.584,22.619,22.619,0,0,0,2.972-1.145,4.418,4.418,0,0,1,3.133-.21c.988.393,1.611,1.606.993,2.409-.278.366-.781.644-.793,1.089a6.708,6.708,0,0,1,2.44.071,1.975,1.975,0,0,1,1.552,1.557c.061.847-.215,2.15.325,2.358a3.461,3.461,0,0,1,1.474,1.911,3.51,3.51,0,0,1-1.108,2.958,5.241,5.241,0,0,0-.82,1.232.542.542,0,0,1-.141.232l-.637-.115c-.227,2.4-.1,6.626-1.428,8.422a15.736,15.736,0,0,0-2.765,6.265,1.8,1.8,0,0,0,.024,1.083,1.438,1.438,0,0,0,.94.769c1.513.393,5.725,1.176,6.045,1.816a15.489,15.489,0,0,0,4.549,11.143c-2.033.02-29.378.571-31.43.151a9.027,9.027,0,0,0-1.106-.1l4.72-11.262a16.666,16.666,0,0,0,2.653-.774c1.215-.459,3.419-.327,3.917-1.525a2.546,2.546,0,0,0-.1-1.669c-.229-.776-.852-2.665-1.154-3.417" transform="translate(-258.487 -478.114)" class="type__svg-fill"></path>
            <path d="M267.54,525.293a65.291,65.291,0,0,1-6.679-.173,6.446,6.446,0,0,0-.74-.063l-.237-.015a.913.913,0,0,1-.786-1.266l4.717-11.26a.926.926,0,0,1,.642-.542,16.323,16.323,0,0,0,2.535-.734,8.837,8.837,0,0,1,1.537-.369c.72-.125,1.706-.3,1.857-.654a2.028,2.028,0,0,0-.134-1.059c-.21-.715-.774-2.438-1.079-3.219-.368-.478-.659-.847-.974-1.2a13.341,13.341,0,0,1-3.048-6.36c-.044-.239-.127-.515-.21-.805-.1-.346-.21-.72-.281-1.091a3.659,3.659,0,0,1-1.72-2.214c-.107-.276-.29-1.086-.43-1.723-.059-.273-.112-.51-.144-.632a6.738,6.738,0,0,1,.041-3.475,1.517,1.517,0,0,1,.405-.715,1.321,1.321,0,0,1,.656-.334c-.012-.083-.027-.163-.039-.244a12.22,12.22,0,0,1-.188-1.935c-.007-1.679,1.284-2.789,3.458-2.975a7.227,7.227,0,0,1,1.669.042,6.378,6.378,0,0,1,3.568-3.314,3.569,3.569,0,0,1,2.819-.044,3.043,3.043,0,0,1,1.308,1.262,4.554,4.554,0,0,1,.378.859c.288-.112.576-.242.876-.373.347-.151.693-.305,1.044-.439a5.2,5.2,0,0,1,3.8-.2,2.934,2.934,0,0,1,1.73,1.9,2.191,2.191,0,0,1-.088,1.476,4.891,4.891,0,0,1,.905.159,2.883,2.883,0,0,1,2.218,2.377,8.235,8.235,0,0,1,0,.918,7.385,7.385,0,0,0,0,.771,3.789,3.789,0,0,1,.459,6.216,4.257,4.257,0,0,0-.671,1.018,1.271,1.271,0,0,1-.437.578.908.908,0,0,1-.325.146c-.015.273-.029.559-.046.854-.137,2.57-.29,5.484-1.486,7.1A14.505,14.505,0,0,0,283,505.914a.918.918,0,0,1-.049.1,14.894,14.894,0,0,0-1.13,3.426,1.192,1.192,0,0,0-.037.532.513.513,0,0,0,.329.256c.347.09.827.2,1.372.32,3.683.832,4.888,1.215,5.266,1.974a.928.928,0,0,1,.1.412,14.624,14.624,0,0,0,4.239,10.452.914.914,0,0,1-.6,1.6l-2.609.044C282.021,525.166,273.365,525.293,267.54,525.293Zm-6.274-1.957c1.264.212,10.872.166,28.58-.134l.61-.01a16.6,16.6,0,0,1-3.441-9.893c-.556-.2-2.814-.713-3.936-.964-.566-.129-1.069-.244-1.425-.334a2.331,2.331,0,0,1-1.545-1.279,2.617,2.617,0,0,1-.088-1.638c.1-.483.215-.966.354-1.44a8.965,8.965,0,0,1-5.728,1.581,7.993,7.993,0,0,1-2.711-.83c.027.09.054.173.076.246a3.391,3.391,0,0,1,.063,2.279c-.534,1.276-2.026,1.542-3.224,1.755a6.791,6.791,0,0,0-1.21.273,16.951,16.951,0,0,1-2.318.705Zm9.452-18.393.127.168a4.651,4.651,0,0,0,1.328,1.352,7.264,7.264,0,0,0,2.667.942c2.155.239,3.856-.859,5.235-1.733a13.675,13.675,0,0,1,1.4-.813,16.721,16.721,0,0,1,1.474-2.406c.871-1.176,1.023-4.029,1.132-6.113.037-.676.068-1.308.122-1.852a.908.908,0,0,1,.356-.642.945.945,0,0,1,.718-.173,5.752,5.752,0,0,1,.754-1.059,2.632,2.632,0,0,0,.881-2.235A3.159,3.159,0,0,0,286,489.2c-.981-.373-.937-1.554-.9-2.418a6.5,6.5,0,0,0,0-.72c-.02-.278-.417-.613-.886-.742a6.025,6.025,0,0,0-2.106-.039.915.915,0,0,1-1-.935,2,2,0,0,1,.761-1.391,2.146,2.146,0,0,0,.22-.229.32.32,0,0,0,.037-.32,1.114,1.114,0,0,0-.642-.683,3.606,3.606,0,0,0-2.467.215c-.325.125-.642.264-.959.4a11.408,11.408,0,0,1-2.138.779.928.928,0,0,1-.766-.173.914.914,0,0,1-.351-.7,2.411,2.411,0,0,0-.322-1.145,1.316,1.316,0,0,0-.51-.527,1.9,1.9,0,0,0-1.384.1,4.465,4.465,0,0,0-2.765,3,.869.869,0,0,1-.922.705.9.9,0,0,1-.586-.239,4.353,4.353,0,0,0-2.836.313.805.805,0,0,0-.405.747,10.292,10.292,0,0,0,.166,1.662c.066.42.132.849.171,1.342a.918.918,0,0,1-.691.964,2.368,2.368,0,0,1-.678.037,5.877,5.877,0,0,0,.1,2.252c.037.134.093.4.156.7.117.532.259,1.215.346,1.445.42,1.069.7,1.176.71,1.179a.919.919,0,0,1,.752.207.906.906,0,0,1,.307.72,5.177,5.177,0,0,0,.286,1.349,9.662,9.662,0,0,1,.254,1.008,11.621,11.621,0,0,0,2.611,5.452c.4.444.766.915,1.127,1.386Z" transform="translate(-259.026 -478.654)" class="type__svg-line"></path>
        </g>
        <path d="M257.666,494.642" transform="translate(13.637 23.029)" fill="#619fba" stroke="#002744" stroke-linecap="round" stroke-linejoin="round" stroke-width="0.75"></path>
        <g transform="translate(293.923 498.669)">
            <g id="Group_4142" data-name="Group 4142">
                <path d="M280.511,511.307c.649.605,1.015,2.892,1.264,3.744a2.784,2.784,0,0,1,.11,1.828c-.549,1.313-2.431,1.02-3.851.966a13.452,13.452,0,0,0-8.583,2.7,8.614,8.614,0,0,0-1.664,2.816,12.668,12.668,0,0,0-.371,2.831,16.224,16.224,0,0,0,.161,4.839c.168.83,38.934.63,38.934.63a61.369,61.369,0,0,0-.73-8.832c-.454-2.3-3.343-3.739-5.1-4.368-2.438-.876-5.154-.469-7.133-.981a1.574,1.574,0,0,1-1.03-.842,1.97,1.97,0,0,1-.027-1.188,17.228,17.228,0,0,1,3.031-6.86,10.58,10.58,0,0,0,2.172-6.111,9.361,9.361,0,0,0-.141-5.218,1.785,1.785,0,0,1-.132-.961c.149-.566.852-.871,1.433-1.188a5.709,5.709,0,0,0,2.311-2.284,2.023,2.023,0,0,1-2.028-.461,3.164,3.164,0,0,0,1.845-3.626c-.627,1.359-2.719,1.867-4.432,1.576s-3.072-1.276-4.639-1.918a13.169,13.169,0,0,0-5.974-1.123c-1.969.2-4.341.229-5.188,1.728-.886-.361-2.152.652-2.8,1.276a4.927,4.927,0,0,0-1.213,2.306c-.151.573-.4,1.406-.5,1.986a32.238,32.238,0,0,0-.529,3.534c-.029.515.356,2.907.356,2.907S275.311,506.428,280.511,511.307Z" transform="translate(-266.395 -486.314)" class="type__svg-fill"></path>
                <path d="M293.614,533.154c-26.117,0-26.23-.581-26.393-1.4a17.183,17.183,0,0,1-.176-5.118c.022-.19.037-.422.051-.671a8.356,8.356,0,0,1,.381-2.409,9.159,9.159,0,0,1,1.945-3.187,14.376,14.376,0,0,1,9.186-2.894l.559.029c1.24.068,2.2.078,2.414-.434a2.19,2.19,0,0,0-.142-1.215c-.066-.222-.139-.534-.222-.888a9.01,9.01,0,0,0-.791-2.448c-5.064-4.749-4.837-9.981-4.747-10.943a24.491,24.491,0,0,1-.344-2.977,31.524,31.524,0,0,1,.544-3.653c.081-.447.239-1.04.383-1.562l.129-.488a5.812,5.812,0,0,1,1.462-2.731,5.014,5.014,0,0,1,3.026-1.611c1.113-1.254,3.085-1.428,4.847-1.586l.659-.061a13.927,13.927,0,0,1,6.413,1.186c.556.227,1.086.5,1.616.766a10.109,10.109,0,0,0,2.828,1.1c1.5.256,3.065-.234,3.448-1.059a.884.884,0,0,1,.9-.53.918.918,0,0,1,.813.649,3.822,3.822,0,0,1-.73,3.438.946.946,0,0,1,.735.322.92.92,0,0,1,.115,1.02,6.66,6.66,0,0,1-2.685,2.66l-.224.12a2.646,2.646,0,0,0-.766.51,3.021,3.021,0,0,0,.1.354,10.428,10.428,0,0,1,.2,5.786,11.414,11.414,0,0,1-2.338,6.45,16.321,16.321,0,0,0-2.865,6.494,1.5,1.5,0,0,0-.039.632.678.678,0,0,0,.425.334,14.4,14.4,0,0,0,2.665.3,15.771,15.771,0,0,1,4.549.71c1.516.542,5.108,2.126,5.686,5.052a61.185,61.185,0,0,1,.747,9,.919.919,0,0,1-.261.652.929.929,0,0,1-.649.273C301.945,533.139,297.492,533.154,293.614,533.154Zm-24.7-2.311c3.453.434,23.852.5,37.2.444a54.452,54.452,0,0,0-.693-7.741c-.408-2.065-3.553-3.343-4.51-3.685a14.038,14.038,0,0,0-4.027-.6,15.556,15.556,0,0,1-3.024-.354,2.469,2.469,0,0,1-1.635-1.354,2.752,2.752,0,0,1-.09-1.738,18.186,18.186,0,0,1,3.187-7.226,9.664,9.664,0,0,0,2-5.654.844.844,0,0,1,.056-.244,8.53,8.53,0,0,0-.163-4.62,2.533,2.533,0,0,1-.144-1.464,2.854,2.854,0,0,1,1.674-1.647l.205-.11a5.2,5.2,0,0,0,.979-.693,2.606,2.606,0,0,1-.93-.63.916.916,0,0,1,.278-1.445,2.8,2.8,0,0,0,.757-.534,6.745,6.745,0,0,1-3.1.212,11.632,11.632,0,0,1-3.351-1.272c-.486-.246-.971-.5-1.481-.7a12.6,12.6,0,0,0-5.54-1.059l-.678.063c-1.54.137-3.285.29-3.8,1.2a.909.909,0,0,1-1.14.4c-.181-.076-.883.178-1.816,1.086a4.044,4.044,0,0,0-.966,1.882l-.137.508c-.127.474-.276,1.005-.349,1.413a32.108,32.108,0,0,0-.517,3.424c-.01.268.171,1.616.347,2.7a1.1,1.1,0,0,1,0,.268c-.027.2-.6,5.042,4.171,9.508h0a7.189,7.189,0,0,1,1.32,3.37c.073.312.134.588.193.783a3.6,3.6,0,0,1,.078,2.436c-.732,1.75-2.736,1.633-4.207,1.559l-.525-.027a12.239,12.239,0,0,0-7.978,2.5,6.142,6.142,0,0,0-1.637,4.278c-.02.276-.037.532-.056.747A15.889,15.889,0,0,0,268.917,530.843Z" transform="translate(-266.935 -486.856)" class="type__svg-line"></path>
            </g>
            <g transform="translate(14.188 29.282)">
                <path d="M273.6,499.231a3.2,3.2,0,0,0-.2,2.919,4.279,4.279,0,0,0,2.191,1.42,7.294,7.294,0,0,0,4.307.159c1.794-.3,4.649-1.3,4.237-4.378" transform="translate(-272.207 -498.312)" class="type__svg-fill"></path>
                <path d="M278.3,505.433a7.3,7.3,0,0,1-2.45-.454,4.886,4.886,0,0,1-2.7-1.843,4.074,4.074,0,0,1,.188-3.792.914.914,0,1,1,1.616.857,2.37,2.37,0,0,0-.2,2.047,3.382,3.382,0,0,0,1.686,1,6.491,6.491,0,0,0,3.863.122c1.752-.293,3.78-1.113,3.478-3.353a.917.917,0,0,1,1.818-.244c.373,2.8-1.493,4.817-5,5.4A14.14,14.14,0,0,1,278.3,505.433Z" transform="translate(-272.749 -498.854)" class="type__svg-line"></path>
            </g>
            <g transform="translate(8.754 8.543)">
                <path d="M292.529,497.433a53.555,53.555,0,0,0-2.531-6.3,21.268,21.268,0,0,1-8.158,1.73,14.96,14.96,0,0,1-7.946-2.13c-.315,1.686-3,5.235-3,5.235" transform="translate(-269.981 -489.815)" class="type__svg-fill"></path>
                <path d="M293.072,498.89a.915.915,0,0,1-.871-.632,54.573,54.573,0,0,0-2.123-5.418c-5.327,2.023-11.036,1.894-15.14-.224a27.918,27.918,0,0,1-2.772,4.444.914.914,0,1,1-1.457-1.106c.986-1.3,2.628-3.775,2.826-4.849a.919.919,0,0,1,1.393-.605c3.812,2.438,9.813,2.616,15.255.329a.916.916,0,0,1,1.176.439,55.2,55.2,0,0,1,2.582,6.426.912.912,0,0,1-.588,1.152A.939.939,0,0,1,293.072,498.89Z" transform="translate(-270.522 -490.356)" class="type__svg-line"></path>
            </g>
            <g transform="translate(8.747 13.684)">
                <path d="M288.676,503.329c-1.728.622-4.317,3.409-8.112,3.006a8.865,8.865,0,0,1-3.285-1.145,6.493,6.493,0,0,1-1.933-1.96c-.383-.505-.774-1.005-1.2-1.479a13.711,13.711,0,0,1-3.1-6.469,12.426,12.426,0,0,1-.146-2.445" transform="translate(-269.978 -491.923)" class="type__svg-fill"></path>
                <path d="M281.857,507.833a7.811,7.811,0,0,1-.849-.046,9.681,9.681,0,0,1-3.614-1.25,6.6,6.6,0,0,1-2.082-2.011l-.149-.2c-.373-.483-.747-.964-1.154-1.423a14.718,14.718,0,0,1-3.319-6.921,13.038,13.038,0,0,1-.164-2.631.928.928,0,0,1,.942-.888.914.914,0,0,1,.888.94,11.566,11.566,0,0,0,.134,2.265,12.849,12.849,0,0,0,2.882,6.016c.439.49.842,1.01,1.245,1.53l.156.207a5.069,5.069,0,0,0,1.477,1.5,7.859,7.859,0,0,0,2.953,1.045c2.352.256,4.268-.949,5.791-1.911a10.584,10.584,0,0,1,1.913-1.047.9.9,0,0,1,1.169.552.913.913,0,0,1-.549,1.169,9.578,9.578,0,0,0-1.552.874A11.313,11.313,0,0,1,281.857,507.833Z" transform="translate(-270.519 -492.463)" class="type__svg-line"></path>
            </g>
        </g>
        <g transform="translate(248.199 496.616)">
            <path d="M278.953,503.557a11.453,11.453,0,0,0-1.428-9.547,6.008,6.008,0,0,1-.8-2.384,2.982,2.982,0,0,0,.305-3.783,3.715,3.715,0,0,0-3.666-1.391,4.962,4.962,0,0,0-3.246,2.372c-3.243-1.464-7.285-.329-9.776,2.211a13.728,13.728,0,0,0-3.529,9.781c0,.408-.093,1.047-.076,1.452,0,.11.859,3.148.949,3.209,0,0,3.568,7.6,5.405,8.615.281.756.515.681.766,1.532a12.329,12.329,0,0,1-.735,3.822c-.547,1.313-12.268-.493-14.469,7.956-.1,5.845-.151,3.295.161,4.839.168.83,38.934.63,38.934.63s1.774-10.9-12.214-12.663c-.439-.112-1.762-.207-2.228-.647-.715-.671-.744-5.269.156-5.876a8.06,8.06,0,0,0,3.3-3.885c.769-2.321,1.925-3.478,2.172-6.111l.02-.132c-.5-1.867-3.624-4.366-5.689-10.291a.938.938,0,0,0-.605.344,63.077,63.077,0,0,1-6.509,5.908s-4.456-.42-4.324-1.906a83.4,83.4,0,0,1-4.278,7.429" transform="translate(-247.659 -485.474)" class="type__svg-fill"></path>
            <path d="M274.837,534.365c-26.1,0-26.212-.578-26.378-1.4a2.143,2.143,0,0,0-.09-.349c-.188-.315-.185-.371-.151-1.816l.061-2.875c1.769-6.9,8.837-7.736,12.634-8.183a15.71,15.71,0,0,0,1.979-.305,13.837,13.837,0,0,0,.617-3.06,1.671,1.671,0,0,0-.268-.542,3.41,3.41,0,0,1-.349-.6c-2-1.53-4.908-7.58-5.5-8.832l.029-.015a19.968,19.968,0,0,1-1.062-3.563,7.424,7.424,0,0,1,.039-.881c.017-.21.037-.417.034-.581a14.65,14.65,0,0,1,3.79-10.433,9.974,9.974,0,0,1,10.091-2.684,5.764,5.764,0,0,1,3.417-2.157,4.627,4.627,0,0,1,4.583,1.762,3.976,3.976,0,0,1-.083,4.6,4.863,4.863,0,0,0,.581,1.567A12.262,12.262,0,0,1,280.4,504.27a11.608,11.608,0,0,1-1.323,4.237,17.186,17.186,0,0,0-.9,2.121,9,9,0,0,1-3.656,4.356,8.9,8.9,0,0,0,.007,4.507,7.522,7.522,0,0,0,1.232.269c.225.034.417.068.547.1,4.864.605,8.507,2.421,10.716,5.374a11.781,11.781,0,0,1,2.174,8.322.914.914,0,0,1-.9.766C283.175,534.351,278.719,534.365,274.837,534.365Zm-24.729-2.316c3.331.439,23.928.508,37.331.449a10.016,10.016,0,0,0-1.9-6.189c-1.9-2.528-5.125-4.1-9.576-4.654-.2-.046-.339-.063-.5-.09a4.262,4.262,0,0,1-2.24-.8c-1.049-.988-.786-4.38-.774-4.527.159-1.962.674-2.526,1.047-2.777a7.219,7.219,0,0,0,2.941-3.414,18.294,18.294,0,0,1,.991-2.34,9.6,9.6,0,0,0,1.142-3.568,11.64,11.64,0,0,0-1.34-2.1,30.388,30.388,0,0,1-3.812-6.679c-2.233,2.279-5.979,5.269-6.152,5.406a.931.931,0,0,1-.656.2,10.372,10.372,0,0,1-4.1-1.113,59.152,59.152,0,0,1-3.421,5.84c1.435,3.046,3.907,7.543,4.986,8.136a.922.922,0,0,1,.417.478,1.76,1.76,0,0,0,.256.483,3.311,3.311,0,0,1,.53,1.115c.3,1.018-.625,4.088-.764,4.429-.364.861-1.435.991-3.382,1.22-3.6.427-9.62,1.14-11.045,6.616l-.034,2.67c-.012.554-.022.839-.02,1A1.453,1.453,0,0,1,250.108,532.049Zm17.461-42.409a8.628,8.628,0,0,0-6.038,2.577,12.823,12.823,0,0,0-3.265,9.13c0,.21-.02.478-.039.749a5.68,5.68,0,0,0-.034.671c.015.059.088.322.188.666,1.01-1.706,2.521-4.376,3.163-5.684a.916.916,0,0,1,1.735.483,8.127,8.127,0,0,0,3.133.876,58.021,58.021,0,0,0,6.089-5.55,1.791,1.791,0,0,1,1.04-.632.946.946,0,0,1,1.13.578,27.817,27.817,0,0,0,4.044,7.477l.3.42a10.154,10.154,0,0,0-1.694-6.326,6.8,6.8,0,0,1-.966-2.821.927.927,0,0,1,.288-.761,2.064,2.064,0,0,0,.181-2.589,2.794,2.794,0,0,0-2.753-1.013,4.038,4.038,0,0,0-2.626,1.943.914.914,0,0,1-1.162.361A6.608,6.608,0,0,0,267.569,489.64Z" transform="translate(-248.199 -486.014)" class="type__svg-line"></path>
        </g>
        <g transform="translate(261.353 522.747)">
            <path d="M266.495,497.7c-.783.378-1.969,2.182-7.314,2.5a6.344,6.344,0,0,1-3.285-1.145,6.493,6.493,0,0,1-1.933-1.96" transform="translate(-253.05 -496.182)" class="type__svg-fill"></path>
            <path d="M259.539,501.662a6.584,6.584,0,0,1-3.165-1.062l-.366-.2a6.5,6.5,0,0,1-2.086-2.023l-.146-.19a.915.915,0,0,1,1.459-1.105l.146.2a5.09,5.09,0,0,0,1.484,1.508l.383.205a4.719,4.719,0,0,0,2.421.837c4.034-.242,5.5-1.357,6.284-1.957a4.371,4.371,0,0,1,.681-.451.913.913,0,1,1,.8,1.642,2.708,2.708,0,0,0-.371.266c-.939.717-2.694,2.055-7.287,2.326C259.7,501.659,259.617,501.662,259.539,501.662Z" transform="translate(-253.589 -496.722)" class="type__svg-line"></path>
        </g>
        <g transform="translate(262.654 529.671)">
            <path d="M254.592,499.935a3.1,3.1,0,0,0,.388,2.292,5.682,5.682,0,0,0,1.872,1.267,7.135,7.135,0,0,0,4.261.276c1.791-.3,3.339-.761,3.668-3.217" transform="translate(-253.583 -499.018)" class="type__svg-fill"></path>
            <path d="M259.782,505.423a7.979,7.979,0,0,1-2.687-.52,6.543,6.543,0,0,1-2.287-1.559,3.83,3.83,0,0,1-.486-3.295.915.915,0,0,1,1.635.822,2.765,2.765,0,0,0,.276,1.323,5.068,5.068,0,0,0,1.454.976,6.28,6.28,0,0,0,3.812.237c1.865-.31,2.68-.715,2.911-2.433a.931.931,0,0,1,1.03-.788.919.919,0,0,1,.786,1.03c-.417,3.077-2.5,3.678-4.427,4A12.359,12.359,0,0,1,259.782,505.423Z" transform="translate(-254.122 -499.559)" class="type__svg-line"></path>
        </g>
        <g transform="translate(285.24 510.581)">
            <path d="M263.865,492.112a3.686,3.686,0,0,0,.464,2.728,6.764,6.764,0,0,0,2.228,1.511,8.511,8.511,0,0,0,5.078.327c2.135-.356,3.975-.908,4.371-3.832" transform="translate(-262.84 -491.195)" class="type__svg-fill"></path>
            <path d="M269.952,498.369a9.248,9.248,0,0,1-3.153-.613,7.587,7.587,0,0,1-2.645-1.8,4.466,4.466,0,0,1-.561-3.736.916.916,0,0,1,1.63.835,3.348,3.348,0,0,0,.354,1.752,6.108,6.108,0,0,0,1.811,1.213,7.592,7.592,0,0,0,4.634.293c2.267-.376,3.324-.905,3.612-3.051a.916.916,0,1,1,1.816.244c-.478,3.548-2.9,4.241-5.127,4.612A14.361,14.361,0,0,1,269.952,498.369Z" transform="translate(-263.377 -491.736)" class="type__svg-line"></path>
        </g>
        <g transform="translate(279.908 486.578)">
            <path d="M282.088,489.473c-.173.117-.476-.032-.637-.115a2.208,2.208,0,0,1-.993-1.086,20.355,20.355,0,0,1-.535-2.357c-.115-.1-2.169-.5-2.438-1.262a4.473,4.473,0,0,1,.049-2.377,9.786,9.786,0,0,0-3.17,1.118c-1.042.427-2.409.6-3.207-.149a3.181,3.181,0,0,0-3.065.171,5.236,5.236,0,0,1-3.339,1.562,7.183,7.183,0,0,1-1.808,3.221,5.966,5.966,0,0,1-1.379.512" transform="translate(-260.652 -481.361)" class="type__svg-fill"></path>
            <path d="M282.479,490.972a2.024,2.024,0,0,1-.908-.261,3.057,3.057,0,0,1-1.413-1.537,9.681,9.681,0,0,1-.486-2.018c-1.113-.342-2.194-.764-2.511-1.657a3.873,3.873,0,0,1-.19-1.491c-.281.112-.569.249-.861.385s-.571.268-.859.386c-1.669.686-3.226.564-4.178-.325a3.091,3.091,0,0,0-1.767.12,6.041,6.041,0,0,1-3.295,1.779c-.425,1.171-1.432,2.894-2.145,3.219a6.633,6.633,0,0,1-1.6.581.915.915,0,1,1-.32-1.8,4.418,4.418,0,0,0,1-.376,6.918,6.918,0,0,0,1.433-2.55.914.914,0,0,1,.869-.82,4.414,4.414,0,0,0,2.672-1.227,2.906,2.906,0,0,1,2.043-.808,3.444,3.444,0,0,1,2.355.544c.459.429,1.452.293,2.231-.027.264-.107.522-.229.779-.351a7.144,7.144,0,0,1,2.7-.835,1,1,0,0,1,.735.322.9.9,0,0,1,.2.776,3.711,3.711,0,0,0-.083,1.889,6.361,6.361,0,0,0,1.467.559,1.719,1.719,0,0,1,.725.324c.256.239.29.439.39,1.032a9.986,9.986,0,0,0,.369,1.645,1.264,1.264,0,0,0,.564.632c.039.02.037.032.007.044a.93.93,0,0,1,.984.383.918.918,0,0,1-.256,1.269A1.168,1.168,0,0,1,282.479,490.972Zm-.354-1.723,0,0Z" transform="translate(-261.192 -481.901)" class="type__svg-line"></path>
        </g>
    </g>
</svg>