<svg xmlns="http://www.w3.org/2000/svg" width="94.747" height="46.645" viewBox="0 0 94.747 46.645" class="type__svg" role="presentation">
    <g data-name="Group 3701">
        <path d="M226.782,529.071a2.589,2.589,0,0,0,1.489-.352,2.42,2.42,0,0,0,.754-1.305c1.159-3.8.959-7.856.747-11.819a11.366,11.366,0,0,1-4.927-2.284,8.253,8.253,0,0,1-2.616-6.694,11.017,11.017,0,0,1,2.758-6.857,6.015,6.015,0,0,1,2.25-1.457,9.617,9.617,0,0,1,2.487-.573c.776-.078.417-1.572.417-2.209l0-3.29.007-3.646a2.516,2.516,0,0,0-2.982-3.06c-13.527-.7-45.167-.386-45.167-.386s-28.152.332-41.679,1.037a2.514,2.514,0,0,0-2.982,3.058l0,3.646,0,3.29c0,.637-.271,1.842.42,2.209.637.337,1.472.3,2.145.608a7.739,7.739,0,0,1,2.267,1.672,10.711,10.711,0,0,1,3.08,6.609,8.251,8.251,0,0,1-2.614,6.694,11.393,11.393,0,0,1-4.927,2.284c-.212,3.963-.415,8.024.747,11.819a2.424,2.424,0,0,0,.752,1.306,2.614,2.614,0,0,0,1.491.354c26.8.822,58.747-1.781,85.533-.61Z" transform="translate(-136.385 -484.154)" class="type__svg-fill"></path>
        <path d="M152.843,531.338c-3.963,0-7.853-.049-11.616-.164a3.4,3.4,0,0,1-2.006-.532,3.22,3.22,0,0,1-1.086-1.769c-1.22-4-.988-8.324-.783-12.141a.909.909,0,0,1,.7-.837,10.33,10.33,0,0,0,4.534-2.082,7.362,7.362,0,0,0,2.309-5.947,9.708,9.708,0,0,0-2.826-6.033,6.761,6.761,0,0,0-2-1.481,3.841,3.841,0,0,0-.825-.217,4.6,4.6,0,0,1-1.359-.408c-1.079-.573-.986-1.867-.93-2.64.012-.139.022-.271.022-.381l-.012-6.931a4.193,4.193,0,0,1,.761-2.848,4.117,4.117,0,0,1,3.092-1.127c13.39-.7,41.433-1.035,41.713-1.037.32-.007,31.825-.307,45.225.391a3.376,3.376,0,0,1,3.851,3.973l-.01,6.933c0,.117.017.268.029.432.073.761.237,2.538-1.274,2.687a8.455,8.455,0,0,0-2.209.5,5.1,5.1,0,0,0-1.96,1.254,10.111,10.111,0,0,0-2.5,6.284,7.354,7.354,0,0,0,2.309,5.942,10.3,10.3,0,0,0,4.534,2.084.912.912,0,0,1,.7.84c.205,3.817.437,8.143-.783,12.134A3.251,3.251,0,0,1,229.356,530a3.447,3.447,0,0,1-1.984.532l-.517.036c-14.142-.612-29.836-.181-45.018.237C172.185,531.065,162.3,531.338,152.843,531.338Zm-13.7-13.834c-.19,3.631-.32,7.358.742,10.833a1.753,1.753,0,0,0,.422.832,2.046,2.046,0,0,0,.974.176c12.695.393,26.834.005,40.508-.373,15.208-.417,30.934-.852,45.04-.234l.425-.037.041,0a2.048,2.048,0,0,0,.974-.175,1.721,1.721,0,0,0,.42-.832c1.064-3.473.935-7.2.744-10.835a11.407,11.407,0,0,1-4.651-2.318,9.093,9.093,0,0,1-2.924-7.441,11.949,11.949,0,0,1,3.014-7.433A6.941,6.941,0,0,1,227.413,498a10.077,10.077,0,0,1,2.436-.608c0-.225-.027-.549-.044-.732-.019-.232-.037-.444-.037-.605l.01-6.936a2.688,2.688,0,0,0-.317-1.65,2.737,2.737,0,0,0-1.8-.493c-13.342-.691-44.793-.39-45.108-.386-.281,0-28.289.339-41.64,1.035a1.681,1.681,0,0,0-2.118,2.145l.012,6.931c0,.154-.012.33-.024.517a2.914,2.914,0,0,0,.022.947,6.9,6.9,0,0,0,.778.171,5.232,5.232,0,0,1,1.257.356,8.531,8.531,0,0,1,2.54,1.864,11.539,11.539,0,0,1,3.336,7.184,9.085,9.085,0,0,1-2.924,7.441A11.4,11.4,0,0,1,139.142,517.5Z" transform="translate(-136.926 -484.693)" class="type__svg-line"></path>
    </g>
    <g transform="translate(77.639 1.254)">
        <path d="M169.116,485.582v1.076" transform="translate(-168.198 -484.667)" fill="#619fba"></path>
        <path d="M169.655,488.111a.916.916,0,0,1-.915-.915v-1.074a.915.915,0,1,1,1.83,0V487.2A.916.916,0,0,1,169.655,488.111Z" transform="translate(-168.74 -485.207)" class="type__svg-line"></path>
    </g>
    <g transform="translate(77.304 6.373)">
        <path d="M168.979,487.678c.117.717-.076,1.432.044,2.15" transform="translate(-168.061 -486.767)" fill="#619fba"></path>
        <path d="M169.565,491.284a.914.914,0,0,1-.9-.766,5.794,5.794,0,0,1-.034-1.271,4.182,4.182,0,0,0-.012-.881.917.917,0,0,1,1.808-.3,5.81,5.81,0,0,1,.032,1.274,4.33,4.33,0,0,0,.012.878.917.917,0,0,1-.752,1.054A1.092,1.092,0,0,1,169.565,491.284Z" transform="translate(-168.603 -487.305)" class="type__svg-line"></path>
    </g>
    <g transform="translate(77.283 13.136)">
        <path d="M168.969,490.451v2.509" transform="translate(-168.054 -489.536)" fill="#619fba"></path>
        <path d="M169.509,494.415a.915.915,0,0,1-.915-.915v-2.509a.915.915,0,1,1,1.83,0V493.5A.915.915,0,0,1,169.509,494.415Z" transform="translate(-168.594 -490.076)" class="type__svg-line"></path>
    </g>
    <g transform="translate(77.251 20.424)">
        <path d="M168.966,493.891l.144-.454a9.64,9.64,0,0,0-.127,2.428" transform="translate(-168.041 -492.522)" fill="#619fba"></path>
        <path d="M169.525,497.323a.916.916,0,0,1-.913-.847,10.134,10.134,0,0,1,.017-1.784.9.9,0,0,1,0-.537l.144-.454a.916.916,0,0,1,1.774.442,8.369,8.369,0,0,0-.115,2.194.919.919,0,0,1-.844.984Z" transform="translate(-168.581 -493.062)" class="type__svg-line"></path>
    </g>
    <g transform="translate(77.278 27.349)">
        <path d="M168.967,496.275c0,.893-.007,1.9.051,2.865" transform="translate(-168.052 -495.36)" fill="#619fba"></path>
        <path d="M169.558,500.6a.914.914,0,0,1-.913-.857c-.054-.9-.054-1.818-.054-2.662v-.261a.915.915,0,0,1,1.83,0v.261c0,.808,0,1.694.049,2.548a.911.911,0,0,1-.854.969Z" transform="translate(-168.592 -495.9)" class="type__svg-line"></path>
    </g>
    <g transform="translate(77.07 34.367)">
        <path d="M168.882,499.151a7.08,7.08,0,0,1,.085,2.165" transform="translate(-167.966 -498.236)" fill="#619fba"></path>
        <path d="M169.508,502.771a.8.8,0,0,1-.1-.007.912.912,0,0,1-.8-1.013,6.141,6.141,0,0,0-.076-1.879.916.916,0,0,1,.72-1.079.9.9,0,0,1,1.076.72,7.917,7.917,0,0,1,.1,2.448A.913.913,0,0,1,169.508,502.771Z" transform="translate(-168.507 -498.776)" class="type__svg-line"></path>
    </g>
    <g transform="translate(77.226 41.254)">
        <path d="M168.95,501.973a17.6,17.6,0,0,0,.073,2.274" transform="translate(-168.031 -501.058)" fill="#619fba"></path>
        <path d="M169.565,505.7a.916.916,0,0,1-.876-.642,5.256,5.256,0,0,1-.1-1.615,6.1,6.1,0,0,0,0-.822.911.911,0,0,1,.8-1.013.877.877,0,0,1,1.013.8,7.559,7.559,0,0,1,.015,1.093,4.637,4.637,0,0,0,.027,1.01.92.92,0,0,1-.6,1.147A.947.947,0,0,1,169.565,505.7Z" transform="translate(-168.571 -501.598)" class="type__svg-line"></path>
    </g>
    <g transform="translate(16.855 18.7)">
        <path d="M144.207,493.586l6.87-.854-2.66.11a.766.766,0,0,0-.573.183.779.779,0,0,0-.112.556l.381,6.66" transform="translate(-143.292 -491.814)" class="type__svg-fill"></path>
        <path d="M148.651,501.7a.913.913,0,0,1-.913-.864l-.349-6.115-2.528.315a.891.891,0,0,1-1.023-.793.915.915,0,0,1,.793-1.023l3.209-.4a1.757,1.757,0,0,1,1.071-.354l2.662-.11a.884.884,0,0,1,.954.84.921.921,0,0,1-.8.986l-2.516.312.351,6.238a.916.916,0,0,1-.861.966Z" transform="translate(-143.832 -492.356)" class="type__svg-line"></path>
    </g>
    <g transform="translate(60.285 18.117)">
        <path d="M162,493.161c2.289-.286,4.578-.383,6.867-.669-.886.036-1.479.207-2.367.244a8.661,8.661,0,0,0-.988.227c-.127.146,0,0,.012.193.127,2.221-.217,5.1-.09,7.319" transform="translate(-161.089 -491.577)" class="type__svg-fill"></path>
        <path d="M165.978,501.93a.917.917,0,0,1-.913-.864c-.066-1.154-.01-2.474.044-3.751.042-1.006.088-2.038.068-2.963-.842.073-1.679.151-2.521.256a.915.915,0,0,1-.225-1.816c1.157-.144,2.314-.242,3.47-.339.649-.056,1.3-.107,1.952-.171.083-.012.166-.022.247-.034a11.611,11.611,0,0,1,1.276-.132.922.922,0,0,1,.947.842.912.912,0,0,1-.8.981c-.488.061-.976.112-1.464.161-.3.039-.608.073-.962.088l-.029,0-.063.012c.027,1.013-.022,2.118-.066,3.19-.054,1.23-.107,2.5-.049,3.568a.913.913,0,0,1-.859.966Z" transform="translate(-161.629 -492.117)" class="type__svg-line"></path>
    </g>
    <g transform="translate(27.726 18.459)">
        <path d="M148.855,492.632l-.193,8.18" transform="translate(-147.747 -491.717)" fill="#619fba"></path>
        <path d="M149.2,502.265h-.022a.912.912,0,0,1-.893-.935l.19-8.18a.994.994,0,0,1,.937-.893.916.916,0,0,1,.893.937l-.19,8.178A.916.916,0,0,1,149.2,502.265Z" transform="translate(-148.287 -492.257)" class="type__svg-line"></path>
    </g>
    <g transform="translate(32.228 18.639)">
        <path d="M156.908,493.226a4.33,4.33,0,0,0-6.384,3.343,1.563,1.563,0,0,0,.083.815,1.733,1.733,0,0,0,.671.676,8.678,8.678,0,0,0,5.686,1.364" transform="translate(-149.592 -491.79)" class="type__svg-fill"></path>
        <path d="M156.582,500.929a9.668,9.668,0,0,1-5.266-1.562,2.6,2.6,0,0,1-1-1.064,2.416,2.416,0,0,1-.161-1.289,5.246,5.246,0,0,1,7.734-4.051.915.915,0,1,1-.879,1.606,3.414,3.414,0,0,0-5.035,2.638.707.707,0,0,0,.007.342c.017.039.093.125.342.29a7.747,7.747,0,0,0,5.076,1.215.916.916,0,0,1,.2,1.82A8.894,8.894,0,0,1,156.582,500.929Z" transform="translate(-150.132 -492.331)" class="type__svg-line"></path>
    </g>
    <g transform="translate(42.702 17.994)">
        <path d="M154.8,492.442a17.756,17.756,0,0,1,.166,8.624" transform="translate(-153.883 -491.526)" fill="#619fba"></path>
        <path d="M155.505,502.522a.872.872,0,0,1-.205-.024.913.913,0,0,1-.686-1.1,16.862,16.862,0,0,0-.159-8.178.916.916,0,1,1,1.767-.481,18.636,18.636,0,0,1,.173,9.068A.916.916,0,0,1,155.505,502.522Z" transform="translate(-154.424 -492.067)" class="type__svg-line"></path>
    </g>
    <g transform="translate(44.597 18.117)">
        <path d="M159.472,492.492c-.771,1.7-2.658,2.611-3.673,4.175a1.049,1.049,0,0,0-.222.647,1.143,1.143,0,0,0,.232.515q.9,1.362,1.921,2.645" transform="translate(-154.661 -491.576)" class="type__svg-fill"></path>
        <path d="M158.27,501.93a.913.913,0,0,1-.717-.349q-1.04-1.311-1.967-2.706a2,2,0,0,1-.378-.94,1.907,1.907,0,0,1,.368-1.228,10.457,10.457,0,0,1,1.847-2.006,6.856,6.856,0,0,0,1.757-2.048.916.916,0,1,1,1.669.757,8.3,8.3,0,0,1-2.2,2.645,9.179,9.179,0,0,0-1.547,1.65,21.291,21.291,0,0,0,1.882,2.74.917.917,0,0,1-.718,1.484Z" transform="translate(-155.2 -492.117)" class="type__svg-line"></path>
    </g>
    <g transform="translate(51.827 18.586)">
        <path d="M163.423,492.684l-4.1.581a18.916,18.916,0,0,0-.271,3.521l3.338-.793a7.286,7.286,0,0,1-1.4.332c-.554.042-1.925-.093-1.94.461-.027,1.079-.6,2.15-.5,3.524,1-.261,4.273.146,5.269-.112" transform="translate(-157.623 -491.769)" class="type__svg-fill"></path>
        <path d="M159.09,501.768a.923.923,0,0,1-.532-.173.906.906,0,0,1-.381-.676,7.561,7.561,0,0,1,.286-2.414,6.131,6.131,0,0,0,.21-1.184,20.118,20.118,0,0,1,.281-3.67.917.917,0,0,1,.776-.752l4.1-.581a.883.883,0,0,1,1.035.779.914.914,0,0,1-.776,1.035l-3.431.483c-.061.451-.1.908-.129,1.364.349-.027.642-.012.857-.02l1.325-.317a.916.916,0,0,1,.51,1.757,8.53,8.53,0,0,1-1.554.373l-1.24.3c-.051.293-.12.578-.185.859-.076.31-.146.613-.193.918.442,0,1.027.01,1.713.034a13.713,13.713,0,0,0,2.362-.029.917.917,0,0,1,.464,1.774,11.687,11.687,0,0,1-2.889.083,14.7,14.7,0,0,0-2.377.029A.862.862,0,0,1,159.09,501.768Z" transform="translate(-158.163 -492.309)" class="type__svg-line"></path>
    </g>
</svg>