<svg id="Laag_1" data-name="Laag 1" xmlns="http://www.w3.org/2000/svg" viewBox="0 0 845.02 569.74">
  <defs>
    <style>
      .cls-1 {
        fill: #d7edf1;
      }

      .cls-2 {
        fill: #b2dbe0;
      }

      .cls-2, .cls-3, .cls-4 {
        stroke: #003357;
        stroke-linecap: round;
        stroke-linejoin: round;
        stroke-width: 1.49px;
      }

      .cls-3 {
        fill: #fbfbfa;
      }

      .cls-4 {
        fill: none;
      }

      .cls-5 {
        fill: #e30613;
      }
    </style>
  </defs>
  <path class="cls-1" d="M2.23,169.75.74,0H843.53V236.75L845,244.2c-13.54,2.65-19.85.67-32.93,5a78.21,78.21,0,0,0-2-9c-.15-.51-.4-1.11-.93-1.17a1.53,1.53,0,0,0-.77.18c-1.43.57-3.08.54-4.41,1.3-1.93,1.12-2.64,3.62-2.42,5.84.2,2,.83,4.44-.74,5.69-.83.65-2,.67-2.86,1.28s-1.72,1.69-2.54,1.11-.12-1.76.58-2.4,1.47-1.73.8-2.41c-.41.38-1.1-.11-1.22-.66s.07-1.12,0-1.68-.57-1.2-.6-1.86a4.47,4.47,0,0,1,.91-2.12c.36-.69.4-1.75-.32-2.06-.25-.1-.53-.09-.78-.18-1-.36-.75-1.78-.32-2.72s.78-2.29-.12-2.79a2,2,0,0,0-1.21-.12,6.05,6.05,0,0,0-2.75.72,2.1,2.1,0,0,0-1,2.44c.23.55.78,1.07.56,1.62a2.44,2.44,0,0,1-.55.61c-.85.89-.3,2.33.16,3.47a18.3,18.3,0,0,1,1.54,6,2,2,0,0,1-2.5.21,1.2,1.2,0,0,1,1.72-1.19,11.22,11.22,0,0,1-1.84,5.77,2.79,2.79,0,0,1-.94,1c-.88.48-2,.06-3,.26s-1.9,1.18-2.77,1.92-2.21,1.27-3.11.56a2.77,2.77,0,0,1-.75-1.14,22.92,22.92,0,0,1-1.8-7.33c0-.74-.39-1.74-1.11-1.6a1.24,1.24,0,0,0-.7.58,16.07,16.07,0,0,0-2.93,9.45,5.82,5.82,0,0,1-.17,2,1.57,1.57,0,0,1-1.5,1.12c-1.12-.11-1.37-1.62-1.31-2.75l.26-4.92a1.91,1.91,0,0,0-2.37-2.37,30.18,30.18,0,0,0-9.92,1.69.85.85,0,0,0-.55.38c-.18.42.32.78.66,1.08,1,.9.89,2.5.67,3.85l-.88,5.36a1.87,1.87,0,0,1-.48,1.15,1.84,1.84,0,0,1-.79.32c-3,.72-5.37,1.2-8.36,1.92-.39-1.06-2-.94-2.78-1.74s-.47-2-.54-3.11a3.11,3.11,0,0,0-1.22-2.38,2,2,0,0,0-2.54.12c-.62.63-.66,1.63-1.13,2.37-.67,1.09-2.07,1.43-3.32,1.67l-3.21.62a1.81,1.81,0,0,1-2.36-.78l-3-4.19a5.78,5.78,0,0,1-1-1.85,12,12,0,0,1,.05-3.11,22.16,22.16,0,0,0-.48-3.42,11.06,11.06,0,0,1,.51-4.73l.67-2.74a1.3,1.3,0,0,0,0-1.06c-.2-.29-.58-.37-.89-.53-1.69-.83-1.46-3.79-3.24-4.39a7.75,7.75,0,0,1-2,1.84c-.76-1.27-1.55-2.68-1.29-4.13a10.19,10.19,0,0,1,.66-1.85c1.42-3.81-.47-8.11.35-12.09a7.81,7.81,0,0,0,.32-2,1.7,1.7,0,0,0-1.08-1.59c-1.31-.37-2.15,1.46-3.44,1.91a2.58,2.58,0,0,1-3-1.64,8.22,8.22,0,0,1-.32-3.7,58.18,58.18,0,0,0-.36-10.22c-.2-1.65-.73-3.6-2.31-4.12a3.82,3.82,0,0,0-2.8.43c-.31.16-.5.42-.79.6a1.2,1.2,0,0,1-1.74-.71,2.27,2.27,0,0,1,.25-1.13,3.75,3.75,0,0,0-.2-2.81,4.09,4.09,0,0,1-.56-1.31,3.84,3.84,0,0,1,.49-1.64,4.1,4.1,0,0,0,0-3.06,4.7,4.7,0,0,1-.53-1.42,9.61,9.61,0,0,1,.34-1.81c.15-1.27-.78-2.48-.6-3.74a6.48,6.48,0,0,1,1.36-2.47c.51-.8.81-1.94.17-2.64a2.69,2.69,0,0,0-2.49-.4l-2.63.47a1.3,1.3,0,0,0-.71.28c-.41.4-.15,1.07.09,1.59a4.83,4.83,0,0,1,.39,3.29,2.58,2.58,0,0,1-2.49,1.91,2.76,2.76,0,0,1-2.2-1.93,8,8,0,0,1-.25-3l.38-8.6c0-.59,0-1.28-.5-1.6a1.66,1.66,0,0,0-.89-.19c-1.26,0-2.85.14-3.25,1.34a3,3,0,0,0-.08,1.12,51.61,51.61,0,0,1-.46,9.86c-.1.7-.29,1.52-.94,1.82-1,.43-1.95-.65-2.23-1.67-.58-2.07.05-4.28-.16-6.43a1.71,1.71,0,0,0-.33-1,1.75,1.75,0,0,0-1.82-.23,10.14,10.14,0,0,0-4,2.28,1.23,1.23,0,0,0-.43.65c-.13.84,1.23,1.05,1.63,1.8a1.82,1.82,0,0,1,.13,1q-.36,7.16-1.23,14.26c.13.26.22.38.41.18a472.83,472.83,0,0,0-49.07,27.69l.32-9c.07-2.21.19-4.55,1.42-6.38a2.83,2.83,0,0,0,.51-.95c.18-.92-.81-1.67-1.73-1.81a23.48,23.48,0,0,1-2.79-.17c-.76-.21-1.41-.72-2.18-.91-1.4-.35-2.83.45-3.92,1.4a14.41,14.41,0,0,1-3.36,2.69c-.78.35-1.71.53-2.2,1.23s-.28,1.92,0,2.89c1.11,4.45.53,9.13-.05,13.68l-.54,4.29a2.32,2.32,0,0,1-.22.82,2.22,2.22,0,0,1-.74.65,25.23,25.23,0,0,1-5.23,2.46c-.3.1-.69.17-.89-.07s-.06-.64-.12-1c-.23-1.11-2.34-.38-2.9-1.37a1.61,1.61,0,0,1-.15-.72l-.25-4.92a1.29,1.29,0,0,0-.25-.82,1.21,1.21,0,0,0-.9-.21l-2,.06a1.36,1.36,0,0,0-1,.28c-.53.52,0,1.39,0,2.13a1.44,1.44,0,0,1-2.6.59c-.92-.64-.4-2.08.23-3s1.24-2.3.4-3-2.17,0-3.18-.43a2.32,2.32,0,0,1-1.19-2.25c0-.91.31-1.79.34-2.69a1.25,1.25,0,0,0-.42-1.15,1.43,1.43,0,0,0-1-.07l-2.44.45-.47-5.9c0-.46-.14-1-.56-1.17s-1,.24-1.45.23c-.9,0-1.16-1.22-1.15-2.11l0-4a1.82,1.82,0,0,0-.25-1.13c-.81-1.05-3.86.05-3.87-1.28l0-6.15a7.29,7.29,0,0,1-2.79-.48,2.47,2.47,0,0,1-1.55-2.2c.06-1.15,1.16-2.41.4-3.28-.53-.61-1.53-.39-2.28-.69-1.19-.49-1.37-2.07-1.45-3.35s-.55-2.89-1.83-3c-.69-.09-1.55.26-2-.29a1.24,1.24,0,0,1-.21-.75,16.94,16.94,0,0,1,.28-4.44c.09-.5.12-1.17-.36-1.35s-.9.21-1.23,0a.85.85,0,0,1-.24-.46c-.58-2.1-1.1-4.54.18-6.29.61-.84,1.64-1.58,1.52-2.61-.17-1.49-2.42-1.64-3.27-2.88a3.56,3.56,0,0,1-.36-2.35,4.45,4.45,0,0,0-.19-2.38,1.43,1.43,0,0,0-2-.69,1.78,1.78,0,0,0-.52,1.41c-.06,1.72.34,3.73-.9,4.92-.33.32-.74.54-1.08.85a2.65,2.65,0,0,0,.82,4.18,1,1,0,0,1,.53.31.91.91,0,0,1,.08.54,25.32,25.32,0,0,1-1.56,6.7,4.06,4.06,0,0,1,.81,3.8,2.87,2.87,0,0,0-3.48,4.05,3.19,3.19,0,0,1,.33.7c.23,1-1,1.65-2,1.78s-2.27.31-2.57,1.28c-.37,1.21,1.14,2.74.22,3.59a1.83,1.83,0,0,1-.85.35c-1.12.24-2.25.42-3.39.55l.52,3.11a3.34,3.34,0,0,1-.12,2.19,2.71,2.71,0,0,1-1.38,1.08,6.64,6.64,0,0,1-3.24.48,19.85,19.85,0,0,0,1.51,6.35c-.86.89-2.49.11-3.54.76-1.24.78-.66,2.68.05,4a6.69,6.69,0,0,1-4.33,1.79c-.4,0-.88,0-1.11.34a1.28,1.28,0,0,0-.12.89c.09.68.37.6.46,1.28l-7.38,6.36c-1.63,1.41-3.37,3-3.68,5.13.58-2,.05-4.16-.31-6.23a25.54,25.54,0,0,1,.37-11.7c.22-.76.5-1.51.67-2.29a15.18,15.18,0,0,0,.27-3,44.81,44.81,0,0,0-1-10,11.76,11.76,0,0,1-.39-2.82l.14-4.81a9.87,9.87,0,0,1,.41-3.06,3.36,3.36,0,0,1,2-2.18,9.47,9.47,0,0,1,3,0c1,0,2.25-.48,2.35-1.5a.71.71,0,0,0-.19-.61.94.94,0,0,0-.49-.18,17.25,17.25,0,0,0-5.6,0l.13.11c.13-11.2.26-22.47-1.39-33.55a3.06,3.06,0,0,1-2.16,1.2c-.27,0-.58,0-.74.24a.79.79,0,0,0-.11.5c0,2.84,1,5.83-.16,8.41a3.85,3.85,0,0,1-2.51-1.63,3.9,3.9,0,0,1-.18-2c.33-3.32-.17-5.85-.15-9.19,0-1.43-1.3-2.44-2.19-3.56-2-2.49-2-6-2.89-9-.42-1.43-1-2.8-1.5-4.22a45.21,45.21,0,0,1-1.64-8.16c-1-7.48-2.05-15-1.23-22.55a12.58,12.58,0,0,0,0-5.15c-.47-1.48-1.54-2.74-1.76-4.27a9.94,9.94,0,0,1,.32-3.15,21.47,21.47,0,0,0,.3-5.66,6.35,6.35,0,0,0-1.39-3.95c-1-1-2.83-1.34-3.8-.3a2.31,2.31,0,0,0-.55,1.09,5.19,5.19,0,0,0,0,1.42l.43,7.63a16.87,16.87,0,0,1-.15,4.6c-.24,1.11-.69,2.16-1,3.25-1,3.81.13,7.86-.48,11.75-.27,1.77-.91,3.47-1.12,5.25-.19,1.59,0,3.2-.18,4.79-.35,3.85-2.37,7.31-3.73,10.93a32.43,32.43,0,0,0-2.05,12.45c0,1.15-.12,2.65-1.24,2.91a.56.56,0,0,1,.63-.6l.17.54a5,5,0,0,0-2,.77,1.68,1.68,0,0,0-.64,1.92,5.41,5.41,0,0,0,.76,1,4.13,4.13,0,0,1,.53,2.51,49.35,49.35,0,0,1-.54,6.43.88.88,0,0,1-.17.46c-.43.45-1-.34-1.13-.95l-1.38-8.5c-.16-1-.67-2.36-1.72-2.27-.78.07-1.22.92-1.45,1.67-1,3.34-1,6.91-.93,10.41.12,6.64,0,13.64.08,20.29a15.15,15.15,0,0,0-5.57.38c-.34.08-.74.25-.78.6s.27.57.55.74a12.79,12.79,0,0,0,5.6,1.8c0,.24-.5.49-.48.73-.63.78.18,1.87.78,2.67,1.64,2.17,1.88,5.06,1.95,7.78.15,5.89.57,12,.17,17.88-.31.16-.22.64,0,.88s.6.37.8.65a1.76,1.76,0,0,1,.22,1c.19,10,.66,20.27,1.44,30.22l.49-.16.26.09c-3.24.86-5.33,4.12-6,7.39s-.27,6.66-.24,10a44,44,0,0,1-6.56,23.49c-1.7,2.75-4,5.47-7.08,6.3-3.32.88-7-.56-10.23.67l-.4,7-6.64,2-.53-8a2.13,2.13,0,0,0-2.92-2.43L448.79,284l.85,7.12a4.3,4.3,0,0,1-6.55-2c-.27-.92-.21-1.92-.53-2.83-.9-2.59-5.18-3-6.52-.57l-.54-12.6-6.31.5a2.31,2.31,0,0,1-2.09-.54,2.27,2.27,0,0,1-.31-1.29l-.3-9.23-9.34,1.5c-.86-1.77-.65-3.85-.51-5.82s.16-4.1-1-5.7-3.18-1.5-4.9-.54a4.74,4.74,0,0,1-6.66-3.38c-.29-2.29,1-5.23-.95-6.55s-4.64.69-6.48-.56c.5-2.66,1-5.43.3-8s-3-5-5.72-4.88c-1.36.06-2.71.73-4,.38-4.5-1.21-1.33-10.88-6-11.42-1.66-.2-3.57,1.17-4.85.1a3.25,3.25,0,0,1-.82-2.4l-.52-8.83c-2.53,1.32-5.59.66-8.45.78s-6.25,1.8-6.14,4.65c.09,2.32,2.08,5.54-.12,6.31-.93.33-1.9-.3-2.85-.57-2.27-.66-4.77.91-5.73,3.07a9.08,9.08,0,0,0,.22,6.9c-3.68-1.55-8.44,1.62-8.42,5.61,0,1.71.63,3.77-.65,4.91-1,.89-2.55.59-3.89.66-4.67.22-7.6,6.69-4.7,10.34l-10.58,2.52a3.1,3.1,0,0,0-1.76.84c-.7.87-.28,2.14,0,3.23.77,3,1.19,6.83-.8,9.2a7.14,7.14,0,0,0-6.67,1.39,9.66,9.66,0,0,0-3.23,6.14,3.65,3.65,0,0,1-.49,1.72c-.66.89-2,.86-3.07.9a11.18,11.18,0,0,0-5.94,2l.62.12a29.85,29.85,0,0,1-7-21c.13-2,.23-4.5-1.52-5.49a5.91,5.91,0,0,0,0-3.72l-.73-3.56c-.61-3-1.23-5.95-1.84-8.93-.42-2-1.46-4.56-3.52-4.42.39,3.11.14,7.27-2.89,8.1-1.79.49-3.59-.56-5.34-1.15s-4.24-.38-4.78,1.39c-.24.8,0,1.69-.28,2.46-.56,1.55-2.68,1.69-4.3,1.4C252.53,239,244.36,218.06,227.11,213l-.19-2.39a4,4,0,0,1-3.82-1.52c2.31-1.06,1.46-5.34-1.08-5.44-1.37-.06-3.24.61-3.76-.65-.3-.76.28-1.55.63-2.29,1.37-2.87-1.46-6.62-4.63-6.38s-5.43,4-4.46,7c.22.68.56,1.45.18,2.06-.49.8-1.68.57-2.62.53-2.73-.13-5,2.25-5.93,4.84s-.74,5.39-1,8.12c-.13,1.72-.7,3.78-2.37,4.24a4.56,4.56,0,0,1-3.2-.77,91.64,91.64,0,0,1-22-16.63,3,3,0,0,1-1-1.77c-.06-1.17,1.22-2.06,1.26-3.23.06-1.7-2.65-2.21-3.84-1s-1.2,3.14-1.14,4.84c-2.84-2.59-8.14-5.18-11.7-6.65l1-10.8c.19-2.1.37-4.32-.53-6.23-.45-1-1.16-1.81-1.61-2.77-1-2.18-.71-4.76-.07-7.09.51-1.83.91-4.32-.8-5.14-1.36-.64-3,.56-3.44,2a11,11,0,0,0,0,4.47c.51,4.71-.74,9.43-1,14.16a35.13,35.13,0,0,0,.4,8l-.85.53c.2-3.17-7-3.19-6.06-6.23.22-.72.9-1.19,1.37-1.77a3.6,3.6,0,0,0-5.18-5,99.09,99.09,0,0,1-.16-11.3c.19-4.68.72-9.34.88-14a87.93,87.93,0,0,0-3-25.73c-1.84.36-3,2.31-3.16,4.17a21.37,21.37,0,0,0,.69,5.55,23,23,0,0,1-1.8,13.48c-2.42-1.49-.24-6.54-2.92-7.47a2.53,2.53,0,0,0-2.89,1.53,8.34,8.34,0,0,0-.47,3.52,40.17,40.17,0,0,1-1.22,9.57,64.33,64.33,0,0,1-4.15-25.43,3.27,3.27,0,0,0-.6-2.56c-1.07-1.05-3,0-3.45,1.46s.09,3,.35,4.44a26.58,26.58,0,0,1,0,6.55c-.47,6.16-.1,11.87-.57,18-1.37,1.68-.15,4.11.48,6.19a16.25,16.25,0,0,1,.43,6.18c-.29,3.22-2,5.81-1.87,9,.06,1.22.38,2.41.48,3.62a7.21,7.21,0,0,1-2.27,6.22c-1.79,1.45-4.75,1.47-6.2-.31-1.79-2.19-.59-5.4-.58-8.22,0-5-3.93-10-1.8-14.52.63-1.34,1.75-3,.81-4.09-1.63-.46-3.32.89-3.86,2.49a9.66,9.66,0,0,0,.14,5,15.18,15.18,0,0,1-.46,5.87,5.93,5.93,0,0,0-1.63,5.8c.25.9.71,1.74.9,2.65a10.18,10.18,0,0,1-.24,4,53.66,53.66,0,0,0,.36,20.9,6.11,6.11,0,0,1-1.85,5.88c-3.62-.27-7.59-1.4-9.46-4.51-1.64-2.75-1.18-6.23-.53-9.36a5.41,5.41,0,0,0,.13-2.49,1.79,1.79,0,0,0-1.82-1.41c-1,.17-1.45,1.41-1.53,2.44a12.93,12.93,0,0,0,.33,4.11,9.83,9.83,0,0,1,.56,3.05c-.09,1.32-.88,2.49-1.14,3.78s-1.11,2.67.21,2.62A7.27,7.27,0,0,0,81,218a9.76,9.76,0,0,1-1.86,1.34,5.12,5.12,0,0,1-2,.3c-8.52,0-15.69-6.13-23.78-8.84-3.63-1.22-9-1.93-12.32-3.75,1-2.58-1.77-5.7-4.46-5.07l2.05-5.21a11.92,11.92,0,0,0-5.37-.64c-1.79.33-3.51,1.77-3.54,3.58,0,1.08.36,2.55-.66,2.94-.49.19-1-.07-1.58-.08-1.3,0-2.14,1.46-2.15,2.76s.53,2.54.6,3.84a1.33,1.33,0,0,1-.38,1.19c-.56.41-1.33-.1-2-.13-1.44-.05-2.06,1.88-1.77,3.28s1,2.86.51,4.2c-1.88-.7-4,1-4.45,2.93s-2.24,3.59-1.62,5.49a2.85,2.85,0,0,0-2.51.44A33.18,33.18,0,0,0,15,230a4.37,4.37,0,0,1,0,3.56,2.13,2.13,0,0,1-3.09.81,31.68,31.68,0,0,1,.4,5.5,2.71,2.71,0,0,1-.4,1.64,2.84,2.84,0,0,1-2.3.71L.74,245.11Z"/>
  <path class="cls-2" d="M204.91,406.87c-4.2,0-7.36-.05-11.56-.08q-45.82-.35-91.64-.64l-101,.35V244.27l10-1.45a2.81,2.81,0,0,0,2.29-.71,2.58,2.58,0,0,0,.4-1.64,31.67,31.67,0,0,0-.39-5.5,2.13,2.13,0,0,0,3.09-.81,4.41,4.41,0,0,0,0-3.56,35.55,35.55,0,0,1-1.33-3.42,2.83,2.83,0,0,1,2.5-.44c-.62-1.9,1.14-3.56,1.63-5.5s2.56-3.62,4.43-2.92c.51-1.34-.21-2.79-.5-4.2s.33-3.33,1.76-3.28c.7,0,1.47.54,2,.13a1.33,1.33,0,0,0,.38-1.19c-.07-1.3-.6-2.55-.59-3.84s.84-2.78,2.14-2.76c.53,0,1.08.27,1.58.08,1-.39.65-1.86.66-2.94,0-1.82,1.75-3.25,3.53-3.58a11.92,11.92,0,0,1,5.37.64l-2.05,5.21c2.68-.63,5.43,2.49,4.45,5.07,3.37,1.82,8.68,2.53,12.31,3.75,8.07,2.71,15.24,8.8,23.75,8.84a5.12,5.12,0,0,0,2-.3A9.69,9.69,0,0,0,82,218.61a7.25,7.25,0,0,1,5.89-1.3c-1.32.05-.47-1.33-.21-2.62s1.06-2.46,1.15-3.78a10.13,10.13,0,0,0-.56-3,12.94,12.94,0,0,1-.34-4.11c.09-1,.51-2.27,1.53-2.44a1.78,1.78,0,0,1,1.82,1.4,5.44,5.44,0,0,1-.13,2.5c-.65,3.13-1.11,6.61.53,9.36,1.87,3.11,5.83,4.24,9.45,4.51A6.11,6.11,0,0,0,103,213.2a53.66,53.66,0,0,1-.36-20.9,10.57,10.57,0,0,0,.24-4c-.2-.92-.66-1.75-.91-2.65a6,6,0,0,1,1.64-5.8,15.38,15.38,0,0,0,.46-5.87,9.45,9.45,0,0,1-.14-5c.53-1.6,2.23-3,3.85-2.49.94,1.14-.18,2.75-.81,4.09-2.12,4.5,1.82,9.54,1.8,14.52,0,2.82-1.21,6,.57,8.22,1.46,1.78,4.42,1.76,6.2.31a7.23,7.23,0,0,0,2.27-6.22c-.1-1.21-.42-2.4-.49-3.62-.17-3.23,1.59-5.82,1.88-9a16.25,16.25,0,0,0-.43-6.18c-.64-2.08-1.86-4.51-.48-6.19.46-6.16.1-11.87.56-18a26.1,26.1,0,0,0-.05-6.55c-.26-1.48-.77-3-.34-4.44s2.37-2.51,3.44-1.46a3.27,3.27,0,0,1,.6,2.56,64.5,64.5,0,0,0,4.14,25.43,40.17,40.17,0,0,0,1.22-9.57,8.34,8.34,0,0,1,.48-3.52,2.53,2.53,0,0,1,2.88-1.54c2.68.94.5,6,2.91,7.48a22.9,22.9,0,0,0,1.8-13.48,21.41,21.41,0,0,1-.68-5.55c.17-1.86,1.31-3.81,3.15-4.17a87.59,87.59,0,0,1,3,25.73c-.15,4.68-.68,9.34-.88,14a101.24,101.24,0,0,0,.17,11.29,3.6,3.6,0,0,1,5.18,5c-.48.58-1.16,1.05-1.38,1.77-.93,3,6.26,3.06,6.06,6.23l.85-.53a35.14,35.14,0,0,1-.41-8c.3-4.73,1.56-9.45,1-14.16a11,11,0,0,1,0-4.47c.45-1.43,2.08-2.63,3.43-2,1.71.82,1.31,3.31.8,5.14-.64,2.33-1,4.91.07,7.09.45,1,1.16,1.8,1.61,2.77.89,1.91.72,4.13.52,6.23l-1,10.8c3.55,1.47,8.85,4.05,11.69,6.65-.06-1.7,0-3.61,1.13-4.84s3.9-.72,3.84,1c0,1.17-1.32,2.06-1.26,3.23a3,3,0,0,0,1,1.76,91.31,91.31,0,0,0,22,16.64,4.55,4.55,0,0,0,3.2.77c1.67-.46,2.23-2.52,2.36-4.24.21-2.73.07-5.54,1-8.12s3.18-5,5.92-4.84c.94,0,2.13.27,2.62-.54.37-.6,0-1.37-.19-2-1-3,1.29-6.75,4.46-7s6,3.52,4.62,6.39c-.35.74-.93,1.53-.62,2.28.51,1.27,2.38.6,3.75.66,2.54.1,3.38,4.38,1.07,5.44a4,4,0,0,0,3.82,1.52l.19,2.39c17.22,5.1,25.39,26,43.07,29.18,1.62.29,3.74.15,4.3-1.4.29-.77,0-1.66.28-2.46.54-1.77,3-2,4.77-1.39s3.55,1.64,5.34,1.15c3-.83,3.28-5,2.88-8.1,2.06-.14,3.1,2.4,3.52,4.42q.92,4.47,1.84,8.93l.73,3.56a5.91,5.91,0,0,1-.05,3.72c1.75,1,1.65,3.48,1.53,5.49a29.8,29.8,0,0,0,7,21l-.62-.12a11.15,11.15,0,0,1,5.93-2c1.1,0,2.41,0,3.07-.9a3.76,3.76,0,0,0,.48-1.72,9.67,9.67,0,0,1,3.24-6.14,7.1,7.1,0,0,1,6.65-1.39c2-2.37,1.57-6.2.8-9.2-.27-1.09-.7-2.36,0-3.23a3.11,3.11,0,0,1,1.75-.85l10.57-2.51c-2.9-3.66,0-10.12,4.69-10.34,1.34-.07,2.88.23,3.88-.66,1.28-1.14.66-3.2.66-4.91,0-4,4.73-7.16,8.41-5.61a9.08,9.08,0,0,1-.22-6.9c1-2.17,3.45-3.73,5.72-3.07.95.27,1.92.9,2.85.57,2.19-.77.21-4,.12-6.31-.11-2.85,3.27-4.54,6.13-4.65s5.91.54,8.44-.78l.51,8.83a3.25,3.25,0,0,0,.82,2.4c1.28,1.07,3.19-.3,4.85-.1,4.62.54,1.45,10.21,6,11.42,1.31.35,2.66-.32,4-.39,2.7-.12,5,2.28,5.71,4.89s.2,5.39-.3,8.05c1.83,1.25,4.64-.71,6.47.56s.66,4.26.95,6.55a4.73,4.73,0,0,0,6.65,3.38c1.72-1,3.74-1.06,4.89.54s1.14,3.74,1,5.7-.36,4.05.51,5.82l9.33-1.5.3,9.23a2.26,2.26,0,0,0,.3,1.29,2.31,2.31,0,0,0,2.09.54l6.3-.5.54,12.6c1.34-2.4,5.62-2,6.52.57.31.91.25,1.91.52,2.83a4.29,4.29,0,0,0,6.54,2l-.85-7.12,8.13-1.07a2.13,2.13,0,0,1,2.92,2.43l.53,8,6.63-2,.4-7c3.21-1.23,6.9.21,10.22-.67,3.13-.83,5.37-3.55,7.07-6.3a44.05,44.05,0,0,0,6.56-23.49c0-3.34-.45-6.73.23-10s2.77-6.53,6-7.39l-.26-.09-.49.16c-.78-9.95-1.25-20.24-1.43-30.22a1.69,1.69,0,0,0-.23-1c-.2-.28-.55-.41-.79-.65s-.34-.72,0-.88c.41-5.88,0-12-.16-17.88-.07-2.72-.31-5.61-1.95-7.78-.6-.81-1.41-1.89-.78-2.67,0-.24.5-.49.49-.73a12.75,12.75,0,0,1-5.6-1.8c-.28-.17-.59-.42-.55-.74s.43-.52.77-.6a15.22,15.22,0,0,1,5.58-.38c-.12-6.65,0-13.65-.09-20.29-.06-3.5-.11-7.07.93-10.41.23-.75.67-1.6,1.44-1.67,1.05-.09,1.56,1.24,1.73,2.27l1.37,8.5c.1.61.71,1.4,1.13.95a.88.88,0,0,0,.17-.46,49.5,49.5,0,0,0,.54-6.43,4,4,0,0,0-.53-2.51,5.36,5.36,0,0,1-.75-1,1.67,1.67,0,0,1,.63-1.92,5,5,0,0,1,2-.77l-.17-.54a.57.57,0,0,0-.63.6c1.12-.26,1.27-1.76,1.24-2.91a32.43,32.43,0,0,1,2-12.45c1.35-3.62,3.37-7.08,3.72-10.93.15-1.59,0-3.2.18-4.79.22-1.78.85-3.49,1.12-5.25.61-3.89-.51-7.94.48-11.75.29-1.09.74-2.15,1-3.25a16.87,16.87,0,0,0,.15-4.6L510,74.54a5.19,5.19,0,0,1,0-1.42,2.31,2.31,0,0,1,.55-1.09c1-1,2.82-.73,3.8.3a6.4,6.4,0,0,1,1.38,4,21.06,21.06,0,0,1-.3,5.66,10.24,10.24,0,0,0-.32,3.15c.22,1.53,1.29,2.79,1.76,4.27a12.53,12.53,0,0,1,0,5.14c-.82,7.51.2,15.08,1.23,22.56a45.19,45.19,0,0,0,1.63,8.16c.48,1.42,1.09,2.79,1.5,4.22.88,3.08.9,6.56,2.89,9.05.89,1.12,2.2,2.13,2.19,3.56,0,3.34.48,5.87.15,9.19a4,4,0,0,0,.17,2,3.9,3.9,0,0,0,2.52,1.63c1.16-2.58.2-5.57.15-8.41a.86.86,0,0,1,.11-.5c.16-.22.47-.22.74-.24a3.06,3.06,0,0,0,2.16-1.2c1.65,11.08,1.52,22.34,1.39,33.55l-.13-.11a17.19,17.19,0,0,1,5.59,0,.91.91,0,0,1,.49.18.71.71,0,0,1,.19.61c-.1,1-1.32,1.52-2.34,1.5a9.47,9.47,0,0,0-3,0,3.36,3.36,0,0,0-2,2.18,10.18,10.18,0,0,0-.41,3.06l-.13,4.81a10.84,10.84,0,0,0,.39,2.82,45.4,45.4,0,0,1,1,10,15.18,15.18,0,0,1-.27,3c-.17.77-.45,1.53-.67,2.29a25.68,25.68,0,0,0-.37,11.7c.36,2.07.89,4.21.31,6.23.31-2.13,2-3.72,3.68-5.13l7.36-6.36c-.08-.68-.36-.6-.45-1.28a1.23,1.23,0,0,1,.11-.89c.24-.33.72-.33,1.12-.35a6.63,6.63,0,0,0,4.32-1.78c-.71-1.28-1.29-3.18-.05-4,1.05-.65,2.68.13,3.54-.76a19.85,19.85,0,0,1-1.51-6.35,6.65,6.65,0,0,0,3.24-.48,2.71,2.71,0,0,0,1.38-1.08,3.41,3.41,0,0,0,.12-2.19l-.53-3.11c1.14-.13,2.27-.31,3.39-.55a1.75,1.75,0,0,0,.84-.35c.93-.85-.58-2.38-.21-3.59.29-1,1.56-1.15,2.56-1.28s2.26-.79,2-1.78a3.23,3.23,0,0,0-.34-.7,3,3,0,0,1,.36-3.21,2.93,2.93,0,0,1,3.12-.84,4.09,4.09,0,0,0-.81-3.8,25.32,25.32,0,0,0,1.56-6.7.91.91,0,0,0-.08-.54,1,1,0,0,0-.53-.31,2.64,2.64,0,0,1-.81-4.18c.33-.31.74-.53,1.07-.85,1.23-1.19.84-3.2.89-4.92a1.85,1.85,0,0,1,.52-1.41,1.42,1.42,0,0,1,2,.69,4.44,4.44,0,0,1,.2,2.38,3.55,3.55,0,0,0,.35,2.35c.85,1.24,3.1,1.39,3.27,2.88.12,1-.9,1.77-1.51,2.6-1.29,1.76-.76,4.2-.19,6.3a.85.85,0,0,0,.24.46c.33.26.84-.09,1.23.05s.45.85.36,1.35a16.94,16.94,0,0,0-.28,4.44,1.24,1.24,0,0,0,.21.75c.43.55,1.29.2,2,.29,1.28.15,1.74,1.75,1.82,3s.26,2.86,1.45,3.35c.75.3,1.75.08,2.28.69.76.87-.34,2.13-.4,3.28a2.47,2.47,0,0,0,1.55,2.2,7.29,7.29,0,0,0,2.79.48l0,6.15c0,1.33,3.06.23,3.87,1.28a1.82,1.82,0,0,1,.25,1.13l0,4c0,.89.25,2.1,1.15,2.11.5,0,1-.41,1.45-.23s.52.71.56,1.17l.46,5.9,2.44-.45a1.43,1.43,0,0,1,1,.07,1.25,1.25,0,0,1,.42,1.15c0,.9-.32,1.78-.34,2.68a2.33,2.33,0,0,0,1.19,2.26c1,.41,2.36-.3,3.17.43s.23,2.11-.39,3-1.15,2.37-.23,3a1.44,1.44,0,0,0,2.59-.59c0-.74-.55-1.61,0-2.13a1.39,1.39,0,0,1,1-.28l2-.06a1.21,1.21,0,0,1,.9.21,1.23,1.23,0,0,1,.24.82l.26,4.92a1.61,1.61,0,0,0,.15.72c.56,1,2.67.26,2.89,1.37.06.33-.09.72.12,1s.59.17.89.07a25.23,25.23,0,0,0,5.23-2.46,2.09,2.09,0,0,0,.73-.65,2,2,0,0,0,.22-.82l.55-4.29c.58-4.55,1.15-9.23,0-13.68-.24-1-.53-2.08,0-2.89s1.43-.88,2.2-1.23a14.41,14.41,0,0,0,3.36-2.69c1.09-.95,2.52-1.75,3.92-1.4.76.19,1.41.7,2.17.91a23.48,23.48,0,0,0,2.79.17c.92.14,1.91.89,1.72,1.81a2.8,2.8,0,0,1-.5.95c-1.23,1.83-1.35,4.17-1.43,6.38l-.31,9a472,472,0,0,1,49-27.69c-.19.2-.29.08-.41-.18q.85-7.1,1.22-14.26a1.92,1.92,0,0,0-.12-1c-.4-.75-1.77-1-1.63-1.8a1.21,1.21,0,0,1,.42-.65,10.14,10.14,0,0,1,4-2.28,1.75,1.75,0,0,1,1.82.23,1.71,1.71,0,0,1,.33,1c.21,2.15-.42,4.36.16,6.43.28,1,1.26,2.1,2.22,1.67.66-.3.85-1.12.95-1.82a52.47,52.47,0,0,0,.45-9.86,3,3,0,0,1,.08-1.12c.4-1.2,2-1.38,3.25-1.34a1.68,1.68,0,0,1,.89.19c.49.32.52,1,.49,1.6l-.37,8.6a8,8,0,0,0,.25,3.05,2.76,2.76,0,0,0,2.19,1.93,2.57,2.57,0,0,0,2.49-1.91,4.78,4.78,0,0,0-.39-3.29c-.23-.52-.49-1.19-.08-1.59a1.25,1.25,0,0,1,.71-.28l2.62-.47a2.69,2.69,0,0,1,2.49.4,2.24,2.24,0,0,1-.18,2.64,6.59,6.59,0,0,0-1.35,2.47c-.18,1.26.75,2.47.6,3.74a8.87,8.87,0,0,0-.34,1.81,5,5,0,0,0,.52,1.42,4.1,4.1,0,0,1,0,3.06,3.66,3.66,0,0,0-.49,1.64,3.88,3.88,0,0,0,.56,1.31,3.7,3.7,0,0,1,.19,2.81,2.38,2.38,0,0,0-.24,1.13,1.2,1.2,0,0,0,1.74.71,8.18,8.18,0,0,1,.79-.6,3.8,3.8,0,0,1,2.79-.43c1.58.52,2.1,2.47,2.31,4.12a57.15,57.15,0,0,1,.35,10.21,8.4,8.4,0,0,0,.33,3.71,2.58,2.58,0,0,0,3,1.64c1.28-.45,2.12-2.28,3.43-1.92a1.72,1.72,0,0,1,1.08,1.6,7.81,7.81,0,0,1-.32,2c-.82,4,1.07,8.28-.35,12.09a10.19,10.19,0,0,0-.66,1.85c-.26,1.45.53,2.86,1.29,4.13a7.55,7.55,0,0,0,1.94-1.84c1.78.6,1.56,3.56,3.24,4.39.31.16.7.24.89.53a1.3,1.3,0,0,1,0,1.06l-.67,2.74a11.22,11.22,0,0,0-.51,4.73,22.16,22.16,0,0,1,.48,3.42,12,12,0,0,0-.05,3.11,5.78,5.78,0,0,0,1,1.85l3,4.19a1.79,1.79,0,0,0,2.35.78l3.21-.62c1.25-.24,2.64-.58,3.32-1.67.47-.74.5-1.74,1.12-2.37a2,2,0,0,1,2.55-.12,3.13,3.13,0,0,1,1.21,2.38c.07,1.08-.22,2.33.54,3.11s2.39.68,2.77,1.74c3-.72,5.36-1.2,8.35-1.92a1.84,1.84,0,0,0,.79-.32,1.87,1.87,0,0,0,.48-1.15l.88-5.36c.22-1.35.36-3-.66-3.85-.35-.3-.84-.66-.66-1.08a.82.82,0,0,1,.55-.38,30.07,30.07,0,0,1,9.9-1.69,2.47,2.47,0,0,1,2.08.7,2.56,2.56,0,0,1,.29,1.67l-.26,4.92c-.06,1.13.19,2.64,1.31,2.75a1.57,1.57,0,0,0,1.49-1.12,5.58,5.58,0,0,0,.17-2,16.07,16.07,0,0,1,2.93-9.45,1.26,1.26,0,0,1,.69-.58c.73-.14,1.06.86,1.12,1.6a22.92,22.92,0,0,0,1.8,7.33,2.77,2.77,0,0,0,.75,1.14c.89.71,2.23.18,3.1-.56s1.65-1.7,2.77-1.92,2.08.22,3-.26a2.79,2.79,0,0,0,.93-1,11.16,11.16,0,0,0,1.84-5.76,1.2,1.2,0,0,0-1.72,1.19,2,2,0,0,0,2.5-.21,18.3,18.3,0,0,0-1.54-6c-.46-1.14-1-2.58-.16-3.47a2.44,2.44,0,0,0,.55-.61c.22-.55-.33-1.07-.56-1.62a2.1,2.1,0,0,1,1-2.44,6.05,6.05,0,0,1,2.75-.72,2,2,0,0,1,1.2.12c.9.5.55,1.85.12,2.79s-.64,2.36.32,2.72c.26.09.54.08.79.18.71.31.67,1.37.31,2.06s-.94,1.34-.9,2.12.49,1.22.59,1.86-.1,1.13,0,1.68.81,1,1.22.66c.67.68-.1,1.76-.8,2.41s-1.35,1.86-.57,2.4,1.71-.54,2.53-1.11,2-.64,2.85-1.28c1.58-1.25.94-3.69.74-5.69-.22-2.22.49-4.72,2.42-5.84,1.33-.76,3-.73,4.41-1.3a1.51,1.51,0,0,1,.77-.18c.52.06.78.66.92,1.17a76.22,76.22,0,0,1,2,9.05c13.06-4.36,17.73-4.44,31.25-7.09V398.87"/>
  <path class="cls-3" d="M111,200.9a1.58,1.58,0,0,0-2.11-.2,3.12,3.12,0,0,0-1.13,2,4.87,4.87,0,0,0,1.08,4.37,3.26,3.26,0,0,0,4.25.4c.4-1.77.79-3.68.06-5.35s-3.07-2.69-4.41-1.47"/>
  <path class="cls-3" d="M125.63,166c-.81,1.34-1.65,2.88-1.25,4.4s2.78,2.34,3.52,1a2.72,2.72,0,0,0,.24-1.3,5,5,0,0,0-.73-3,2.09,2.09,0,0,0-2.74-.65"/>
  <path class="cls-3" d="M132.18,161.85l.23,7.2c0,1.2.35,2.73,1.54,2.92a1.94,1.94,0,0,0,1.17-.26,3.52,3.52,0,0,0-2.72-6.46"/>
  <path class="cls-4" d="M10.84,248.1a1.5,1.5,0,0,0-2.62-.45c1.19,1,.73,3-.24,4.2s-2.35,2.11-3,3.51a7.77,7.77,0,0,0-.48,3.95C5,267,7.2,274.49,7.64,282.18a109.58,109.58,0,0,1-.58,14.93c-1.85,23.28-2.13,41.44-.36,64.72"/>
  <path class="cls-4" d="M44.07,211.27c2.1,1.11-.17,5.31,1.93,6.42a10.41,10.41,0,0,0,1.45.41c1.64.61,1.81,2.82,1.74,4.57s.29,4,2,4.39c.6.14,1.25,0,1.84.16,1.34.4,1.71,2.16,1.45,3.54s-.87,2.76-.55,4.12l4.72.23.37,6.77c.83-.92,2.46.19,2.58,1.43s-.57,2.4-.81,3.62.27,2.84,1.52,2.9c.37,0,.75-.11,1.12-.08,1.2.09,1.63,1.67,1.39,2.84S64,255,64.39,256.1c.6,1.82,3,2.07,5,2l4.62-.21a2.11,2.11,0,0,0,1.21-.31,2,2,0,0,0,.6-1.35,18.13,18.13,0,0,0-.52-7.75,54.38,54.38,0,0,1-1.91-6.05c-.37-2.09,0-4.48,1.58-5.86A9.59,9.59,0,0,0,76.79,235a4.54,4.54,0,0,0,.54-1.74l1.44-8.86"/>
  <path class="cls-4" d="M82.73,239.36c5.39,15.36,1.14,32.24,1.7,48.51.23,6.86,1.33,13.67,1.86,20.51,1.94,24.9-3.63,50-1.13,74.82"/>
  <path class="cls-4" d="M194.09,230.34a38.62,38.62,0,0,1-6.36,1.66l3.22,6.14a16.74,16.74,0,0,0-6.83-.34,10.93,10.93,0,0,1,1.77,7.14,8.58,8.58,0,0,0-3.9-.74,2.93,2.93,0,0,0-2.69,2.52,8,8,0,0,0,.71,2.44c.26.82.19,1.9-.57,2.28-.54.27-1.19.08-1.79.14-1.61.18-2.38,2.07-2.64,3.67a21.92,21.92,0,0,0,1,10.83c5.48,15.13.47,33.24.49,49.33q0,13.86,0,27.71l-.07,51.28"/>
  <path class="cls-4" d="M157.74,203.3l-1.6-.71q1.05,7.42,2.42,14.79a1.69,1.69,0,0,1,2.52.24,5.48,5.48,0,0,1,.87,2.74,27.45,27.45,0,0,0,1.61,6c.54,1.36,1.74,2.94,3.12,2.43,1.13-.42,1.33-1.92,1.24-3.12-.45-5.85-3.23-12-.69-17.3"/>
  <path class="cls-3" d="M172.56,208.72a128,128,0,0,1,2.52,37.95"/>
  <path class="cls-4" d="M230.54,219.36l2.58,5.91a1.5,1.5,0,0,0,.69.88,3.51,3.51,0,0,0,1,.06c1.27.09,1.77,1.64,2.19,2.85a20.41,20.41,0,0,0,4,6,5.47,5.47,0,0,0,2.12,1.77,1.87,1.87,0,0,0,2.39-.81,21.17,21.17,0,0,1,1,7.07,3.1,3.1,0,0,1,3.72,2.18c.24,1-.05,2.1.17,3.11a3.23,3.23,0,0,0,4.14,2.21l.79,6.2a5.71,5.71,0,0,0,3.47-.57,22.5,22.5,0,0,1-1,9.81c-.72-.92-1.15,0-1.15,1.16l.05,39.85,4.51-1.32c-.33,1.7-.65,3.54.14,5.08s3.2,2.27,4.26.9c1.26-1.65-.64-4-.36-6a2.9,2.9,0,0,1,4.18.83c.67,1.22.34,2.73.5,4.12s1.43,2.92,2.7,2.37c2.62-1.15-1.66-6.41.91-7.66,1.48.59,1.65,2.56,1.87,4.14s1.4,3.5,2.91,3c.95-.32,1.33-1.44,1.52-2.42,1.41-7.18-.61-14.77,1.17-21.87.38-1.53,1.1-3.18,2.57-3.73,2.58-1,4.82,2.08,5.61,4.72a30.6,30.6,0,0,1,1.25,10.72c2.31-.27,4-2.37,4.7-4.6a24.37,24.37,0,0,0,.49-6.94,2.41,2.41,0,0,1,.47-1.75,3.13,3.13,0,0,1,1.73-.62,6.39,6.39,0,0,0,5-5.73"/>
  <path class="cls-3" d="M253.05,317.36c.19-.36-.44-.68-.75-.42a1.33,1.33,0,0,0-.33,1.12l1.77,74.87"/>
  <path class="cls-3" d="M281.62,315.7a26,26,0,0,0-1.12,7.56,672.54,672.54,0,0,0,.7,74.05"/>
  <path class="cls-4" d="M276.2,367.58c-2.52-.87-4.3-3.49-6.94-3.84a7.89,7.89,0,0,0-4.45,1.12,37.67,37.67,0,0,0-10.93,8.28.76.76,0,0,0,1.25.32"/>
  <path class="cls-3" d="M267.23,371.07l1.32,9.34c.88,6.25,1.76,12.57,1.25,18.86"/>
  <path class="cls-4" d="M105.92,225.24c1.15,19.09,1.58,38.21,1.6,57.32q0,15.65-.37,31.29c-.35,14.86-1,29.71-1.57,44.56L104.86,376c0,.48-.13,1.08-.6,1.18s-.5-.92-.09-.67"/>
  <path class="cls-4" d="M123.24,212q1.37,60.51-2,121c-.73,13.14-1.61,26.49,1.44,39.29"/>
  <path class="cls-3" d="M137.53,202.23c4.68,56.16-3.66,112.8.91,169"/>
  <path class="cls-4" d="M156,252.24l-2.92,62.52c-.53,11.27-1.05,22.58.17,33.79,1.16,10.68,4.6,19.4,1,29.52"/>
  <path class="cls-3" d="M192.84,247.66l-.33-1.55L218,244.64c5.91-.34,11.86-.67,17.73.08"/>
  <path class="cls-3" d="M183.08,268.76q31.68-.86,63.38-.82"/>
  <path class="cls-3" d="M183,280.66l10.2-.44,53.8-2.33"/>
  <path class="cls-3" d="M181.17,302.13a692.09,692.09,0,0,0,69.68-.39"/>
  <path class="cls-3" d="M184.05,312.2q31.2-1.18,62.42-1.35"/>
  <path class="cls-3" d="M181.11,341A516.74,516.74,0,0,1,247,339.47"/>
  <path class="cls-3" d="M183.53,350.89c3.13-1,6.48-.94,9.76-.87l51.21,1.17"/>
  <path class="cls-3" d="M364.38,243.22l.08,12.12a8.64,8.64,0,0,0,1,4.75c.9,1.37,3,2.09,4.22,1a61.66,61.66,0,0,0-.79-16.61,3.07,3.07,0,0,0-.83-1.89c-1.17-1-2.94.09-4.06,1.16"/>
  <path class="cls-3" d="M341.81,287.9a1.75,1.75,0,0,0,.25.93,1.25,1.25,0,0,0,.88.44,2.88,2.88,0,0,0,2.8-2.11,8.32,8.32,0,0,0,.07-3.75l-.95-7.23c-.17-1.32,0-5.16-1.58-5.76-1.31-.52-2.48,1.31-2.65,2.36-.35,2.16.33,4.84.51,7Z"/>
  <path class="cls-3" d="M391.19,286.73c0,.55,0,1.2.45,1.51a1.65,1.65,0,0,0,1.08.16l1.93-.16a1,1,0,0,0,.76-.31.92.92,0,0,0,.1-.52q.08-4.17.13-8.34l.07-4.25a24.44,24.44,0,0,0,0-3.92c-.19-1.23-1.31-1.06-2.28-.9a3.27,3.27,0,0,0-1.95.83,2.93,2.93,0,0,0-.5,2.27c.1,1.4.18,2.81.23,4.21q.15,4.19,0,8.37C391.22,286,391.21,286.38,391.19,286.73Z"/>
  <path class="cls-3" d="M292,308.26l23.44-1c.06-2.33.36-4.8,1.83-6.61s4.44-2.56,6.14-1a5.51,5.51,0,0,1,1.39,2.62,16.6,16.6,0,0,1,.63,4.08,1.4,1.4,0,0,0,.25.92,1.35,1.35,0,0,0,1,.28l13.21.23a1.18,1.18,0,0,0,.67-.11,1.31,1.31,0,0,0,.5-.86l.65-2.39c.46-1.68,1.08-3.56,2.66-4.27s3.72.23,4.75,1.74a12,12,0,0,1,1.57,5.22c-.42.16.19.77.63.78a115.31,115.31,0,0,0,17.23-.63,4.81,4.81,0,0,1,.44-3.58A7.41,7.41,0,0,1,371.6,300c1.32-.79,3.36-.58,4,.8a4.43,4.43,0,0,1,.34,1.54l.5,5.23a89.14,89.14,0,0,0,16.72,1.11c2.34-1.84.31-5.62,2.24-7.88a3.55,3.55,0,0,1,6.14,1.43c.39,1.53-.26,3.14-.06,4.7a77,77,0,0,0,14.7.85,9.72,9.72,0,0,1,4.52-8c.79.47,1-.18,1.88-.33a4.78,4.78,0,0,1,4.65,2.35,7.71,7.71,0,0,1,.81,5.34,157.83,157.83,0,0,1,17.26-.56,5.21,5.21,0,1,1,10.27-1.39c0,.46,0,1,.39,1.26a1.29,1.29,0,0,0,.47.15,62.86,62.86,0,0,0,17.8.74"/>
  <path class="cls-4" d="M291.49,329.45q10.61-.85,21.25-.65c7.27.14,14.53.64,21.8,1,19.58.93,39.21.69,58.82.46a4.48,4.48,0,0,1,2.66-1c25.64-2.15,51.43-.55,77.11,1"/>
  <path class="cls-3" d="M294.24,363.36l-.16.65"/>
  <path class="cls-3" d="M291.36,352.31a11.31,11.31,0,0,1,.66-4.63c1.05-2.37,4.05-3.86,6.41-2.8,1.82.82,2.82,2.8,3.43,4.7,1.62,5,1.54,10.36,1.45,15.61a.94.94,0,0,1-.08.41.83.83,0,0,1-.64.3l-6.7,1c-.88.13-2.12.29-2.87-.33a2.84,2.84,0,0,1-.69-1.89c-.37-2.61-.66-5.24-.81-7.87C291.43,355.31,291.38,353.81,291.36,352.31Z"/>
  <path class="cls-3" d="M316.58,351.78c0-2.27.36-4.85,2.2-6.18a5.49,5.49,0,0,1,5.32-.2,4.88,4.88,0,0,1,2.81,2.68,6.44,6.44,0,0,1,.26,2.06l.35,16.55c0,.25-4.85.56-5.31.58-1.09,0-2.74.32-3.72-.33s-1-2.51-1.17-3.58c-.26-1.8-.46-3.62-.59-5.43Q316.52,354.86,316.58,351.78Z"/>
  <path class="cls-3" d="M339.23,354.43c.23-2.75,1.16-5.6,3.27-7.39s5.59-2.1,7.54-.14c1.44,1.46,1.71,3.67,1.87,5.7q.51,6.57.51,13.16a1,1,0,0,1-.16.65c-.25.28-.68.19-1,.16-.5-.05-1-.09-1.5-.11a29,29,0,0,0-2.95,0c-1.37.08-2.8.41-4.13-.05-2.19-.75-2.72-3.34-3.06-5.35A26,26,0,0,1,339.23,354.43Z"/>
  <path class="cls-3" d="M365.75,349.85a5.9,5.9,0,0,1,.37-2.09,5.27,5.27,0,0,1,1.92-2c1.83-1.27,4.26-2.24,6.22-1.18a5.38,5.38,0,0,1,2,2.19c1.48,2.7,1.66,5.9,1.8,9l.44,9.18c0,.6.23,1.38-.55,1.5a14,14,0,0,1-2.24,0c-1.3,0-2.63,0-3.93-.09a6.06,6.06,0,0,1-4.18-1.72,8.62,8.62,0,0,1-1.66-4.74,57.31,57.31,0,0,1-.24-9C365.72,350.54,365.74,350.19,365.75,349.85Z"/>
  <path class="cls-3" d="M392.32,364.5c.49-3.15-.38-6.32-.75-9.47s-.1-6.71,2.15-9a7.47,7.47,0,0,1,1.86-1.34,5,5,0,0,1,4.68-.31,4.48,4.48,0,0,1,2,3,14.44,14.44,0,0,1,.15,3.72A111.53,111.53,0,0,0,402.8,366l-5.73.12a10.82,10.82,0,0,1-3.11-.24,6,6,0,0,1-.71-.26,1.92,1.92,0,0,0-.55-.11C392.21,365.41,392.26,364.93,392.32,364.5Z"/>
  <path class="cls-3" d="M415.61,355.57a22.88,22.88,0,0,1,.14-5.61,7.7,7.7,0,0,1,2.71-4.79,4.7,4.7,0,0,1,5.26-.39,5.41,5.41,0,0,1,1.36,1.34c2,2.75,2.45,6.34,2.8,9.75l.65,6.29a4.08,4.08,0,0,1-.45,3,3,3,0,0,1-2.7.91c-1-.1-1.93-.46-2.91-.63a11.22,11.22,0,0,0-3.79.1c-.69.12-1.83.62-2.35-.1a4,4,0,0,1-.31-2.13c0-1.14-.1-2.29-.16-3.43Z"/>
  <path class="cls-3" d="M444.55,355c0-2.16,0-4.5,1.29-6.22a7.31,7.31,0,0,1,5.17-2.49c1.36-.13,2.94.06,3.7,1.18a4.09,4.09,0,0,1,.55,1.52,38.08,38.08,0,0,1,.64,12,6.81,6.81,0,0,0,.14,3.24c.19.47.47,1.07.1,1.42a1.06,1.06,0,0,1-.74.2c-3,0-6-.05-8.94-.17-.95,0-1.71,0-1.79-1.18-.09-1.48,0-3-.06-4.48Z"/>
  <path class="cls-4" d="M471.35,348.08a11.55,11.55,0,0,0-4.35-8.61,19.66,19.66,0,0,1-2-1.56c-.54-.53-1-1.18-1.53-1.69a8.42,8.42,0,0,0-3.94-1.56c-3.71-.79-7.6-1.57-11.27-.56-3.51,1-6.36,3.49-9.07,5.92-2.16,1.94-4.39,4-5.55,6.64-2.81,6.48,1.53,14.5-1.51,20.88"/>
  <path class="cls-3" d="M478.54,290.4a78.89,78.89,0,0,1-1,16c-.86,5.14-2.24,10.36-1.3,15.48"/>
  <path class="cls-4" d="M475.11,387.58a3.92,3.92,0,0,0-.48,2.7c-1.22-6.1,2.6-12.37,1.38-18.48-.28-1.4-.82-2.75-1-4.16-.35-2.41.3-4.85.33-7.29.06-3.53-1.19-7-.86-10.54.18-2,.86-3.92.78-5.9s-.82-3.66-1-5.53a18.61,18.61,0,0,1,.18-4.28l.74-6.3a28.92,28.92,0,0,0,3.48-.68.85.85,0,0,0,.41-.21c.21-.22.13-.57.05-.86a8,8,0,0,1-.13-3.51.69.69,0,0,1,.82-.69h3c-.91-1.75-.8-3.84-.66-5.81a.74.74,0,0,1,.19-.55.78.78,0,0,1,.5-.09,13.58,13.58,0,0,1,2,.29,1.18,1.18,0,0,0,.91-.05c.33-.24.3-.73.24-1.13a15.25,15.25,0,0,1,0-4.16,1.41,1.41,0,0,1,.47-1,1.4,1.4,0,0,1,.93-.13l2.48.19c.29-1.2-.19-3.14.11-4.34a4.5,4.5,0,0,1,.85-2,1.57,1.57,0,0,1,2-.4,2.3,2.3,0,0,1,.66,1.93l.12,5a3.6,3.6,0,0,1,3-.53,2.55,2.55,0,0,1,1.82,2.35,8.1,8.1,0,0,1-.58,2.07,1.85,1.85,0,0,0,.36,2,2.25,2.25,0,0,0,1.14.38l2.09.28a.6.6,0,0,1,.43.2.63.63,0,0,1,0,.43l-1.07,4.79c.38.37,1,0,1.52-.12,1.06-.23,2,.87,2.08,2a5.7,5.7,0,0,1-1,3c.06.53.93.9,1.46.83s1.13-.27,1.58,0a1.66,1.66,0,0,1,.56.85c1.08,2.94.75,6.19.41,9.31l-2.85,26a20.79,20.79,0,0,1,1.67,8.54c.06,2.77,0,5.54-.13,8.31l-.62,18.13"/>
  <path class="cls-3" d="M488.19,326.46a64.19,64.19,0,0,1,.57,9.6h5.92c.65-2.06-1-4.22-.72-6.36.19-1.34,1.13-2.53,1.08-3.88,0-.25-.43,0-.34-.23C492.45,325.64,490.44,326.42,488.19,326.46Z"/>
  <path class="cls-3" d="M500.47,162.3c.06.31.24.71.55.66a.51.51,0,0,0,.34-.27,2.65,2.65,0,0,0,.08-2.22,12.49,12.49,0,0,0-.71-2.14c-.11-.22-.57-1.12-.92-1s0,1.64,0,1.94Z"/>
  <path class="cls-4" d="M495.54,173.66c2.67-2.11,6-3.12,9.29-4.08l11.26-3.32a6.51,6.51,0,0,1,1.68-.34c1.57,0,2.9,1.1,4.07,2.15l9.68,8.7"/>
  <path class="cls-4" d="M498.34,204a.82.82,0,0,0-.77.59l19.2-6.56a6.08,6.08,0,0,1,2.48-.47,6,6,0,0,1,2.27.92c3.45,2,7.1,4.18,8.83,7.77"/>
  <path class="cls-3" d="M520.73,170.49a149.28,149.28,0,0,1,0,26"/>
  <path class="cls-3" d="M521.1,201.23c-.57,1.63-.19,3.42,0,5.13a58.64,58.64,0,0,1,.07,11.55l-.77,12.84"/>
  <path class="cls-3" d="M520.19,141.07l-.54,7.61a11.35,11.35,0,0,0,0,2.67,19.11,19.11,0,0,0,.75,2.52,14.93,14.93,0,0,1,.09,8.78"/>
  <path class="cls-4" d="M843.53,305.25c-9.52.22-4.35.38-13.8,1.51-2.35.28-4.71.83-7.07.55s-4.78-1.64-5.43-3.92a12.13,12.13,0,0,1,0-4.29c.3-3.87-.89-7.69-2.07-11.38a2.54,2.54,0,0,0-.77-1.36c-1.11-.84-2.56.48-3.32,1.65a8.27,8.27,0,0,0-.29-4.23c-.59-1.31-2.19-2.28-3.48-1.67.76-1.67-.28-3.54-1-5.22a17.22,17.22,0,0,1-1.18-10.26c.4-2,.62-4.89-1.38-5.27-1.77-.33-2.8,1.91-3.17,3.67a11.29,11.29,0,0,0-3.64-6.45l1.71-1.17"/>
  <path class="cls-4" d="M782.77,266c-2.33,1.19-1,6.05-3.62,6.45a11,11,0,0,0-1.41.09c-.91.29-1.15,1.51-.92,2.45a11.5,11.5,0,0,1,.72,2.78c-.07,2.94-4.62,3.77-5.44,6.6-.27.92-.09,1.94-.42,2.84s-1.64,1.53-2.22.77l-1.56,9.42a2.21,2.21,0,0,1-.44,1.18c-.61.64-1.66.33-2.54.23-1.51-.18-3,.45-4.44.87-4.25,1.22-8.78.7-13.16.18l-11-1.31"/>
  <path class="cls-4" d="M736.29,270.72c-1.08-.34-1.7,1.21-1.77,2.35Q731,331.47,733.09,390"/>
  <path class="cls-3" d="M765.86,301.56a23.74,23.74,0,0,0,1.08,5.91c1.71,7,1.13,14.34.78,21.55a333.57,333.57,0,0,0,2.42,59.35"/>
  <path class="cls-4" d="M676.76,202.18a2.14,2.14,0,0,0-2.3,1.76,8,8,0,0,0,.21,3.18c1.28,7.17-1.53,14.37-4.29,21.1a19.17,19.17,0,0,1-.5-6.27c.15-1.66.5-3.38-.08-4.94s-2.6-2.72-3.94-1.74q-.48,10.36-.67,20.74a4,4,0,0,1-2-4.06,9,9,0,0,0-2.85,6.92,6.31,6.31,0,0,1-2.63-.91l-.46,11.59c-.17,4.5-1,9.93-5.1,11.69l.11-3.27c-.62-.87-2.09-.59-2.73.26a5.09,5.09,0,0,0-.72,3.06l-.63,26.64c-.37,15.5.73,31.54-.14,47-1.18,20.82,1.29,41.69.53,62.53"/>
  <path class="cls-4" d="M607.12,237.89a19,19,0,0,0-.11,5.48,10,10,0,0,0,3.26-.83l1.43,8.4c1.1-1.32,3.77-.85,4,.86.19,1.42-1.07,3.25.11,4.07.84.6,2.08-.16,3,.29,1.94.94-.81,4.11.22,6l3,.17a12,12,0,0,1-.38,5.67,4.09,4.09,0,0,1,3.25,3.37,11.94,11.94,0,0,1-.35,5c.6.79,1.7-.55,2.7-.58s1.39,1,1.42,1.94a4.72,4.72,0,0,0,.4,2.6c.52.72,2.06.48,1.88-.4a25.67,25.67,0,0,1,.12,9.33c-.8,0-.45-.22-1.25-.18,4.46,14.82.07,30.64-1.34,46.05-.48,5.25-.6,10.53-.73,15.8-.38,15.64-.75,31.31.2,46.93"/>
  <path class="cls-4" d="M623.45,208.58c.21,1.07.43,2.15.63,3.22a255,255,0,0,1,4.54,44.61c2.64-1.16,5.59-2.66,6.32-5.45a9.8,9.8,0,0,0,0-3.5l-2.09-18.65"/>
  <path class="cls-4" d="M544.49,218.08a5.48,5.48,0,0,0-2.41,8c-2.2-.62-5.42-.67-5.87,1.58-.33,1.7,1.38,3.74.19,5-.88.92-2.42.33-3.53-.31l.36,6.07a2.5,2.5,0,0,0-4,1.1c-.29,1.16.31,2.33.54,3.51s-.19,2.74-1.38,2.85c-.8.08-1.53-.57-2.32-.48-1.45.16-1.53,2.23-1.2,3.65s.2,3.5-1.26,3.6c-.61,0-1.18-.36-1.8-.36-1.15,0-1.85,1.31-2,2.46s.09,2.38-.44,3.4-2.3,1.4-2.73.34a4.25,4.25,0,0,0-.78,6.14,3,3,0,0,0-3.71,1.68c-.44,1.23,0,2.64-.4,3.89s-2.53,1.89-2.83.61c-2,.76.51,4.47-1.12,5.85a7.35,7.35,0,0,1-1.36.64,3.25,3.25,0,0,0-1.36,3.42,16.63,16.63,0,0,0,1.4,3.66c1.55,3.68,1.56,7.81,1.53,11.81l-.16,29.16"/>
  <path class="cls-3" d="M516.92,236.17c-1.53,4.17-4,7.89-6.52,11.58a86.25,86.25,0,0,0-7.5,12.91"/>
  <path class="cls-3" d="M564,209.69c-.92,1.82-1.64,4-.82,5.85.74,1.67,2.52,2.61,4.23,3.24,2.26.84,5,1.3,6.93-.14,2.86-2.13,2-6.45.56-9.14s-3.31-6.06-6.7-4.48A9.52,9.52,0,0,0,564,209.69Z"/>
  <path class="cls-3" d="M564.44,222.44c-.83,0-1.21,1-1.47,1.79a9,9,0,0,1-4.5,5.22,1.6,1.6,0,0,1-1.23.21c-.34-.12-.56-.43-.86-.63a2.06,2.06,0,0,0-2.48.4,6.07,6.07,0,0,0-1.3,2.36,1.93,1.93,0,0,0-.17,1.05,1.52,1.52,0,0,0,.45.72,3.33,3.33,0,0,0,4.9-.44,2.92,2.92,0,0,0-1.9-4.31"/>
  <path class="cls-3" d="M578.06,222.4c-.13-.48-.91-.43-1.17,0a1.76,1.76,0,0,0,0,1.44,9.21,9.21,0,0,0,2.5,4.39,5.72,5.72,0,0,0,4.7,1.57c1.71-.28,3.48-1.49,5-.71,1.37.7,1.63,2.5,1.72,4,.12,1.92-.11,4.38-1.94,5a3,3,0,0,1-3.29-1.46,8.73,8.73,0,0,1-1-3.7c-.14-1.07-.14-2.41.81-2.91"/>
  <path class="cls-4" d="M655.27,289.36a7,7,0,0,1,12.18-.64,2.24,2.24,0,0,0,.61.75c.74.49,1.68-.17,2.35-.75,1.87-1.63,4.21-3,6.68-2.76s4.77,2.74,4,5.09c2.33-1.65,4.8-3.35,7.63-3.69s6.12,1.24,6.66,4.05c2.13-.35,3.9-1.88,6-2.41s5,.84,4.52,2.95a9.24,9.24,0,0,1,6.17-3.05c2.35,0,4.8,1.73,4.9,4.08a12.26,12.26,0,0,1,12.65-.46"/>
  <path class="cls-3" d="M714.61,273.31a1.82,1.82,0,0,1-2.05,2,53.05,53.05,0,0,1-10,.49c-5.38-.25-10.74-1.33-16.13-1.15-5.14.18-10.19,1.51-15.33,1.7-1.6.05-3.49-.16-4.31-1.53a4.87,4.87,0,0,1-.42-2.68l.35-10.15a2.28,2.28,0,0,1,2.48-2.6,112.41,112.41,0,0,1,24-1.45,115.29,115.29,0,0,1,12,1.2c2,.31,4,.67,5.95,1.08,1.14.24,3.64.29,4.16,1.56a3.58,3.58,0,0,1,0,1.78c-.14.91-.21,1.8-.27,2.72C714.87,268.64,714.74,271,714.61,273.31Z"/>
  <path class="cls-3" d="M704.52,262.05l-1,11"/>
  <path class="cls-3" d="M693,260.35a.31.31,0,0,0-.37-.38l-.89,12"/>
  <path class="cls-3" d="M679.7,261c-.73-.06-1,.94-1,1.68l0,11.48,1-.17"/>
  <path class="cls-4" d="M728.58,324.84c.91-1-.21-2.75-1.55-2.85a4.44,4.44,0,0,0-3.42,1.88,4.09,4.09,0,0,1-1.08-1.84,23.1,23.1,0,0,0-6.53,3.26,2.27,2.27,0,1,0-4.51.19,2.38,2.38,0,1,0-4.66.64c-.37-1.82-1.22-3.74-2.94-4.46s-4.16.77-3.66,2.55c-.73-2.28-4.7-2.31-5.46,0a3.57,3.57,0,0,0-7.08.58,4.55,4.55,0,0,0-3.2-3.22c-1.56-.3-3.37.91-3.29,2.5-.88-1.39-1.87-2.87-3.42-3.41s-3.69.53-3.52,2.16a3.46,3.46,0,0,0-6.7.79,3.74,3.74,0,0,0-2.53-3.33c-1.45-.34-3.16,1.07-2.71,2.48-.24-2.14-3.25-3.06-5.06-1.9s-2.45,3.57-2.27,5.72a47.32,47.32,0,0,0,1.45,6.29,18.91,18.91,0,0,1-.24,8.91l2-.49"/>
  <path class="cls-3" d="M697,354.91a1.92,1.92,0,0,0-2.19,1.75c-.76,2.7-1.5,6.16-1,8.95,1.83-.13,3.72-.48,5.55-.72a10.72,10.72,0,0,0,3.83-1,3.12,3.12,0,0,0,1.7-2.61,9.56,9.56,0,0,0-.29-2.55,5.77,5.77,0,0,0-.94-2.79C702.21,354.43,698.78,354.82,697,354.91Z"/>
  <path class="cls-4" d="M510.66,282.79c21.38-2.23,42.9.72,64.33,2.32q21.93,1.65,43.93,1.42"/>
  <path class="cls-4" d="M513,320.44A995.29,995.29,0,0,1,618,322.82l-2,.57"/>
  <path class="cls-4" d="M514.65,334.4l24.19-.39c9.3-.15,18.6-.31,27.9-.13,16,.3,32,1.56,47.92,2.82"/>
  <path class="cls-3" d="M553.48,399.06c-1-9.42-2-19.07.38-28.25a4.65,4.65,0,0,0,.18-2.47,4.74,4.74,0,0,0-1-1.56,20.51,20.51,0,0,1-3.84-6.89,258.5,258.5,0,0,1,28.25-.49c-4,1.52-5.16,6.46-5.56,10.67a112.65,112.65,0,0,0,.31,24.42c0,.31.14.7.44.77s.44-.57.13-.49"/>
  <path class="cls-3" d="M566.21,395.85a203.56,203.56,0,0,0,.48-21,7.32,7.32,0,0,0-1.05-4.29,6.82,6.82,0,0,0-2.21-1.69,9.78,9.78,0,0,0-3.63-1.3,4,4,0,0,0-3.49,1.3c-.95,1.2-.85,2.89-.79,4.42.38,9.36-2.21,18.73-1.14,28"/>
  <path class="cls-3" d="M353,274c.06,1.18,0,2.36,0,3.55l-.34,11.14a.73.73,0,0,1-.14.49.75.75,0,0,1-.61.11l-1.54-.2a2.06,2.06,0,0,1-1-.31,2.33,2.33,0,0,1-.61-1.6c-.2-1.23-.75-2.37-1.07-3.58a20.66,20.66,0,0,1-.52-5.33c0-2.14-.17-4.32-.07-6.46a2.38,2.38,0,0,1,1.94-2.32,22.72,22.72,0,0,1,3-.82,10.54,10.54,0,0,1,.64,2.63A22.09,22.09,0,0,1,353,274Z"/>
  <path class="cls-3" d="M371.89,242.06c.8-.3,1.61-.55,2.43-.77.58-.16,1.32-.24,1.67.24a1.47,1.47,0,0,1,.2.88l.45,15.84a5.85,5.85,0,0,1-.12,1.77,3.1,3.1,0,0,1-1.7,2,1.27,1.27,0,0,1-.81.12c-.51-.15-.72-.75-.85-1.26a51.48,51.48,0,0,1-1-18.26l1.72,1.35"/>
  <path class="cls-3" d="M402.74,268.85a176.21,176.21,0,0,1,.21,19.5.54.54,0,0,1-.09.31.45.45,0,0,1-.34.13,22.78,22.78,0,0,1-4.37.09s-.07-9.94-.1-10.85c-.06-1.81-.15-3.62-.25-5.43-.05-1-.3-2.34.37-3.16a2.06,2.06,0,0,1,1.52-.59C400.7,268.8,401.73,268.81,402.74,268.85Z"/>
  <path class="cls-4" d="M10,355.93c-.3-4.7,4.17-8.37,8.63-9.87,3.62-1.22,7.7-1.56,11.21-.06s6.24,5.15,5.87,8.95c1.85-5.58,7-10.11,12.91-10.4S60.4,348.8,61,354.65"/>
  <path class="cls-4" d="M3.1,360.62c-3.68-4.25,8.82,7,13.23,10.47a4.89,4.89,0,0,0,2.54,1.3,4.88,4.88,0,0,0,2.11-.5l21.79-8.69a5.31,5.31,0,0,1,3.08-.57,5.66,5.66,0,0,1,2.45,1.59,49.52,49.52,0,0,0,21.34,11.36"/>
  <path class="cls-3" d="M495.23,404.24l9.87.06c29.57.22,60.53-.15,90.1-.64,61.49-1,123.08-2.15,184.7-3"/>
  <path class="cls-3" d="M443.34,404.33q21.07-.15,42.16-.12"/>
  <path class="cls-3" d="M230.54,406.87c66.82-.15,133.42-1.81,200.18-2.43"/>
  <path class="cls-3" d="M498.84,424.45c9.19-.56,18.42-1,27.69-1.16q127.68-2.28,255.38-2.61c-1.27-1.39,2.14-.76,3.92-.78"/>
  <path class="cls-4" d="M.74,432.39c153-1.38,254.56-2.27,407.53-2.69,26.36-.07,52.29-2.56,78.36-4.43"/>
  <path class="cls-4" d="M770.55,435.15l-49.85,2.74c-69.24,3.82-139.45,2.18-208.68,6-7.53.42-122.49,1.28-122.49,1.28S252,448.28,238.92,447.9c-49.89-1.46-217.21,4.25-235.2,2"/>
  <path class="cls-3" d="M657.26,351.5a570.93,570.93,0,0,1,62.74-.39"/>
  <path class="cls-4" d="M654.93,380.43c12.15-.52,24.62-4,36.21-.35"/>
  <path class="cls-3" d="M694.64,394.89a110.15,110.15,0,0,1-.78-16.55,12.84,12.84,0,0,1,.89-5.68,6.57,6.57,0,0,1,6.49-3.54,2.4,2.4,0,0,1,1.23.43,2.83,2.83,0,0,1,.83,1.7,31.4,31.4,0,0,1,.75,7.36c0,2.21-.31,4.41-.32,6.62a56.34,56.34,0,0,0,1.39,11l.58-.72"/>
  <path class="cls-3" d="M710.56,379.86a63.61,63.61,0,0,1,16.59-.83"/>
  <path class="cls-4" d="M678.15,213.47a54,54,0,0,1,18.33-2.65,22.17,22.17,0,0,1,8.77,1.69"/>
  <path class="cls-4" d="M534.7,250.82a275.75,275.75,0,0,1,67.93,1"/>
  <path class="cls-4" d="M537.06,263.35c14.34-5.68,30.47-1.24,45.89-1.67,8.21-.22,16.46-1.86,24.59-.66"/>
  <path class="cls-3" d="M213.17,220.48a56.25,56.25,0,0,1,1.61,9.74l3.85-1a1.14,1.14,0,0,0,1.1-1.6c-.28-1.35-.62-2.69-1-4a2.76,2.76,0,0,0-.81-1.43c-1.29-1-3,.7-4.58.76"/>
  <path class="cls-3" d="M199.94,248.45A31.22,31.22,0,0,1,202,264.27a1.66,1.66,0,0,0,.22,1.37c.46.46,1.24.21,1.82-.08,2.74-1.36,6-2.8,8.71-1.46,0,0,.33-2.81.33-3.09a21.68,21.68,0,0,0-.3-3.11c-.31-1.88-.75-3.75-1.19-5.6a4.9,4.9,0,0,0-1.42-3c-1.13-.86-2.67-.39-4-.51C204.15,248.66,202,247.87,199.94,248.45Z"/>
  <path class="cls-3" d="M220.52,248.45a31.12,31.12,0,0,1,2.1,15.82,1.59,1.59,0,0,0,.22,1.37c.45.46,1.23.21,1.81-.08,2.74-1.36,6-2.8,8.72-1.46,0,0,.33-2.81.32-3.09a20.34,20.34,0,0,0-.3-3.11c-.31-1.88-.75-3.75-1.18-5.6a5,5,0,0,0-1.42-3c-1.13-.86-2.68-.39-4-.51C224.74,248.66,222.6,247.87,220.52,248.45Z"/>
  <path class="cls-3" d="M185,391.64q-.09-12.25-1.37-24.45a4.14,4.14,0,0,1,.2-2.32c.74-1.45,2.77-1.47,4.39-1.29l4.11.45a1.13,1.13,0,0,1,.65.22,1,1,0,0,1,.27.57c1.22,4.89.75,10,.86,15.05a66.19,66.19,0,0,0,1.54,12.69"/>
  <path class="cls-3" d="M291.74,404.4c-.61-3.47-1.12-7-1.54-10.47-.31-2.58-.56-5.27.33-7.71s3.27-4.53,5.85-4.24a6,6,0,0,1,4.43,3.49,17.71,17.71,0,0,1,1.38,5.69l1.6,12.5"/>
  <path class="cls-3" d="M340.81,401.71l-.26-9.44c-.07-2.44-.12-5,.82-7.21s3.16-4.17,5.59-3.94c2.19.21,3.93,2.09,4.64,4.18a17.3,17.3,0,0,1,.51,6.54l-.44,8.57"/>
  <path class="cls-3" d="M368.21,403l-.68-16.66a5,5,0,0,1,.15-1.85c.47-1.35,2-2,3.3-2.55s2.74-1,4-.45c1.55.66,2.1,2.54,2.4,4.2a68.32,68.32,0,0,1,1.09,15"/>
  <path class="cls-3" d="M394.05,399.76l-.69-13.36a3.23,3.23,0,0,1,1.78-3.65,6.41,6.41,0,0,1,2.46-1.23A4.41,4.41,0,0,1,402,384a11.93,11.93,0,0,1,1.07,5.23,105.17,105.17,0,0,1-.35,14.09"/>
  <path class="cls-3" d="M443.82,398.76a.53.53,0,0,0,.72.37,22,22,0,0,0,.29-11.85,5.79,5.79,0,0,1-.31-2.87,4,4,0,0,1,1.93-2.25c2.57-1.56,6.54-1.28,7.92,1.39a7.44,7.44,0,0,1,.66,2.63,55,55,0,0,1-.06,13.57"/>
  <path class="cls-3" d="M418.94,400.72l-.71-12.08a4.53,4.53,0,0,1,.17-1.94,4.11,4.11,0,0,1,.9-1.25,23.7,23.7,0,0,1,4.23-3.51,1.32,1.32,0,0,1,1-.3"/>
  <path class="cls-3" d="M315.31,403c.17-.2.3.36,0,.35s-.38-.33-.43-.59a90.36,90.36,0,0,1-1.23-11.83c-.11-2.83.14-6.13,2.47-7.75a9,9,0,0,1,4.3-1.18,2.92,2.92,0,0,1,1.5.11,2.66,2.66,0,0,1,1.06,1.07c3.35,5.16,3.24,11.76,3,17.91"/>
  <path class="cls-3" d="M16.69,293.37l-1.16-16.16a47.69,47.69,0,0,1,12.79-1.78q.06,10.45.89,20.88c0-.28-8.06.66-8.79.77s-2.47.77-3.2,0S16.75,294.32,16.69,293.37Z"/>
  <path class="cls-3" d="M41.46,295.19a1.53,1.53,0,0,0,.29,1.05,1.55,1.55,0,0,0,1.32.26l10.17-1.17a1,1,0,0,0,1.16-1.17,133,133,0,0,0-.79-17.74A1.39,1.39,0,0,0,51.68,275c-2.15.28-4.29.53-6.43.82a5.62,5.62,0,0,0-3.37,1.2c-1,1-.77,2.67-.74,4l.15,6.66Z"/>
  <path class="cls-3" d="M17.44,340.37A41.31,41.31,0,0,1,29,339.31c-.53,0-.88-6.34-.91-7-.11-2.37-.09-4.74-.06-7.11,0-4.76.09-9.6-1.08-14.24-.29-1.15-.63-1.89-1.95-1.56a15.37,15.37,0,0,0-3.09,1.34A12.15,12.15,0,0,0,18.37,313a5.14,5.14,0,0,0-1.26,3.4,63.63,63.63,0,0,0,.35,6.76A125,125,0,0,1,17.44,340.37Z"/>
  <path class="cls-3" d="M52.31,307.85q1.24,9.6,2,19.24a78,78,0,0,1,.38,9.9,2.5,2.5,0,0,1-.29,1.27,2.37,2.37,0,0,1-.78.66,13.56,13.56,0,0,1-10.79,1.38,2.45,2.45,0,0,1-1.56-1,2.72,2.72,0,0,1-.2-1.33q.18-8.56-.29-17.12c-.15-2.75-.61-5.57-.58-8.33,0-2.2,1.3-2.64,3.26-2.7A24,24,0,0,0,52.31,307.85Z"/>
  <path class="cls-3" d="M16.53,261.28a19.54,19.54,0,0,1,11-.64c-1.5-2.29-1.54-5.22-1.31-7.95s.69-5.51,0-8.16a52.9,52.9,0,0,1-5.57,1.29,8.45,8.45,0,0,0-3.45,1.08c-2.25,1.6-1.19,5.54-1.05,7.81C16.16,255.31,16.79,261.19,16.53,261.28Z"/>
  <path class="cls-3" d="M42.6,260.81a1.78,1.78,0,0,0,.19,1.33c.4.49,1.16.41,1.77.28l8.08-1.68a.91.91,0,0,0,.64-.33,1,1,0,0,0,0-.63c-.95-5.57-2.42-11.25-1.3-16.79-.1.51-5,.74-5.6.76-.93,0-2.77-.44-3.56.2s-.09,3.38,0,4.4c.15,1.93.21,3.87.18,5.8A64.37,64.37,0,0,1,42.6,260.81Z"/>
  <path class="cls-3" d="M32.16,219.7l.19,7.07a11.51,11.51,0,0,0,4-.06c.55-.1,1.18-.33,1.3-.88a1.55,1.55,0,0,0-.1-.79L36,220.2a1.55,1.55,0,0,0-.46-.84,1.44,1.44,0,0,0-1.56.1,5.36,5.36,0,0,0-2.1,2.15"/>
  <path class="cls-3" d="M681.08,233.2a.89.89,0,0,1,.15-.43.78.78,0,0,1,.35-.21,16.66,16.66,0,0,1,8.36-.91.3.3,0,0,1,.2.08.29.29,0,0,1,.05.18l1,12.63-5.75-.06a20.32,20.32,0,0,1-3.12-.15,1.16,1.16,0,0,1-1-1.16,50.55,50.55,0,0,1-.43-6.39A26.88,26.88,0,0,1,681.08,233.2Z"/>
  <path class="cls-3" d="M694.23,237.72a10.71,10.71,0,0,0-.05-3.53.49.49,0,0,1,0-.41.46.46,0,0,1,.38-.13l7.65-.28a.89.89,0,0,1,.49.07c.25.15.29.5.3.8l.25,11.29a10.09,10.09,0,0,0-5.17-.37c-1,.2-2.49.87-2.89-.49a28,28,0,0,1-.84-4.25A16.23,16.23,0,0,1,694.23,237.72Z"/>
  <path class="cls-3" d="M208.45,399.19a3.26,3.26,0,0,0-1.63,3.07,9.52,9.52,0,0,0,1,3.51"/>
  <path class="cls-3" d="M215.35,384c-.86.12-1.81-1.59-1.92-2.45a4.33,4.33,0,0,1,.67-2.5c.58-1.09,1.5-2.25,2.73-2.21s2.18,1.46,2.23,2.77a4.28,4.28,0,0,1-3.71,4.39"/>
  <path class="cls-3" d="M208.73,408.78a12.32,12.32,0,0,0-1.74,6,6.7,6.7,0,0,1-.32,1.84,7,7,0,0,1-1.23,1.93l-4.67,5.74a1.74,1.74,0,0,0-.43.77c-.21,1.37,2.57,1.46,2.68,2.85,0,.69-.71,1.22-1.41,1.19a3.53,3.53,0,0,1-1.87-.84c-1.31-.92-2.67-2-3.12-3.53-.55-1.89.46-3.9,1.76-5.38s2.92-2.7,4-4.37c1.81-2.89,2.73-10.26,4.49-13.19"/>
  <path class="cls-3" d="M211.62,389.66c-.64,2.94-.7,5.6.39,5.46,1.57-.19,2.33,1.51,3.38,2.7.53.61,1.21,1.07,1.71,1.7s.7,1.16,1.1,1.71a2.28,2.28,0,0,0,1.66,1.06"/>
  <path class="cls-3" d="M207.17,400.41c.67-1.71,2.66-5.5,3.34-7.21s.48-4,1.39-5.79a1.3,1.3,0,0,1,.59-.65.55.55,0,0,1,.74.29l1-.06c.74.26,1.76-.34,2.4.12a2.73,2.73,0,0,1,1.2,1.94c0,.54.59,1.93.38,2.44-.46,1.05.15,1.25-.29,2.31V395c.33,3.16,1.17,2.36,2,5.44.2.7.36,1.6,1.17,1.78.32.08.82.14.75.42l-2.54,6-2.69,3-6.54-1.9-3-4.8Z"/>
  <path class="cls-3" d="M220.14,404.65a.32.32,0,0,0-.28.45,3.25,3.25,0,0,0,2.71-1.46"/>
  <path class="cls-3" d="M221.49,376.34a6.55,6.55,0,0,1-3.06-4.42c-.09-.51,0-1.18.45-1.36s1,.33,1.33.8c.41.65.51.41.93,1.05-.45,0,.36.21.4-.24s.21-.4.48-.76a1.55,1.55,0,0,1,.53-.52c.57-.27,1.25.32,1.33.95a3.12,3.12,0,0,1-.55,1.79C222.78,374.6,222,375.36,221.49,376.34Z"/>
  <path class="cls-3" d="M221.58,385.24a2.36,2.36,0,0,0,1.52,1.7,2.3,2.3,0,0,0,2.17-.7,4.46,4.46,0,0,0,1.31-3.36,3.21,3.21,0,0,0-1.26-1.91c-1-.75-2.89-1.22-3.57.2a5.08,5.08,0,0,0-.3,1.86A6.31,6.31,0,0,0,221.58,385.24Z"/>
  <path class="cls-3" d="M223.68,388.17a4.5,4.5,0,0,0-.48,2.45,21.06,21.06,0,0,1-2,8.4,3.56,3.56,0,0,0-.47,1.5c0,.49.24,1,.24,1.45s-.43,1-.9.89c.6.35,1.31-.19,1.8-.68a.78.78,0,0,0,.25-.39c0-.18-.21-.3-.23-.44a1.56,1.56,0,0,1,.11-.45,6,6,0,0,1,.33-.93c.26-.59.57-1.15.83-1.74a19.41,19.41,0,0,0,1.11-6.91"/>
  <path class="cls-3" d="M229.22,401.38c.42-1.15-.49-2.32-.78-3.51a10.28,10.28,0,0,1-.06-2.88,21.63,21.63,0,0,0-.85-5.63c-.08-.35-.24-.77-.6-.82a.83.83,0,0,0-.48.13,8.45,8.45,0,0,0-1.57,1l-1.38,1.73-1.57,8.11-.47,5.24,1.73-.12c.72.59,3,1.83,3.72,2.42a1.27,1.27,0,0,1,.45.55,1.4,1.4,0,0,1,0,.61,14,14,0,0,1-1.74,5.2,5.67,5.67,0,0,0-1.19,2.14c-.15.91.26,2.05-.45,2.65-.24.19-.55.27-.78.48s-.3.65,0,.78a5.68,5.68,0,0,1,2.28,1.93,7,7,0,0,0,1,1.35,1.12,1.12,0,1,0,1.7-1.45,7.21,7.21,0,0,0-1.23-1.3c-.42-.43-.39-2.25-.29-2.84"/>
  <path class="cls-3" d="M226.71,416.67c1.35-2.83,1.56-6.08,2.78-9a3.33,3.33,0,0,0,.38-1.39,2.19,2.19,0,0,0-.29-1,5.18,5.18,0,0,0-1.88-2.06,2.76,2.76,0,0,1-1.14-1c-.21-.45.14-1.16.62-1,.48-.46,2.34,1.19,2.69.62"/>
  <path class="cls-3" d="M222.43,385.46a.26.26,0,0,0-.14-.33"/>
  <path class="cls-3" d="M221.93,405.29a.56.56,0,0,0-.47-.52c-1.34,1.94-1.65,4.66-3.61,6"/>
  <path class="cls-3" d="M217.7,404.18c.08-.15-.12-.32-.29-.29a.69.69,0,0,0-.38.32c-1,1.34-2,2.83-1.89,4.49"/>
  <path class="cls-3" d="M215.45,416.67c0,.1.43,1,.53.92s.22,0,.31.08a9,9,0,0,1,1.34,1.35,3.13,3.13,0,0,1,.8,1.75,1.36,1.36,0,0,1-1,1.44c-.69.1-1.27-.48-1.69-1a3.33,3.33,0,0,1-.87-2.07"/>
  <path class="cls-3" d="M488.77,394.48a8.17,8.17,0,0,0-.38,3.41,2.91,2.91,0,0,0,.17,1,2.22,2.22,0,0,0,.86,1,3.76,3.76,0,0,0,4.06-.17,4.52,4.52,0,0,0,1.32-5.58,3.13,3.13,0,0,0-3.61-1.91A3.47,3.47,0,0,0,488.77,394.48Z"/>
  <path class="cls-3" d="M489.9,401.62c-.55.65-.48,1.72-1.14,2.28-.86.72-2.19,0-3.26.37s-1.58,1.72-1.85,2.89c-.46,2-.91,4.13-.09,6,.26.59.63,1.13.85,1.73"/>
  <path class="cls-3" d="M493.57,401.33a4,4,0,0,0-.6,1.47,1.32,1.32,0,0,0,.63,1.35,4.28,4.28,0,0,0,1.08.17,2.56,2.56,0,0,1,1.88,1.91,8,8,0,0,1,.11,2.81q-.24,3.43-.19,6.88"/>
  <path class="cls-3" d="M492.71,408.17l.73,4a7,7,0,0,0,1,2.95"/>
  <path class="cls-3" d="M487.25,409.49c-.16,2-.21,4.05-.17,6.08"/>
  <path class="cls-3" d="M484.66,418.24a2.24,2.24,0,0,0-.06,1.23c.12.54-.22,1,.33,1a8.62,8.62,0,0,1,.88,0c.6.15.83.86.92,1.47a30,30,0,0,1,.16,5l-.19,8.14c-.65,1,.05,3.29.8,4.22a4.67,4.67,0,0,0,3.1,1.57,6.73,6.73,0,0,0,4.16-.86.47.47,0,0,0,.23-.21.49.49,0,0,0-.15-.46,6.44,6.44,0,0,0-1.54-1.25c-.58-.39-1.33-.78-1.92-.42-.26.16-.45.45-.75.52s-.63-.37-.36-.51"/>
  <path class="cls-3" d="M490.05,436.14c-.2-.94.35-1.89.28-2.84a7.83,7.83,0,0,0-.24-1.17,9.43,9.43,0,0,1-.11-2.49,7.4,7.4,0,0,1,.3-2.2,2.6,2.6,0,0,1,1.42-1.62"/>
  <path class="cls-3" d="M492,420.26a3.42,3.42,0,0,1,2,2.25,10,10,0,0,1,.33,3.08l0,5.72c0,1.3.13,2.83,1.23,3.52a4,4,0,0,1,1,.61,2.7,2.7,0,0,1,.44,1.09,4.17,4.17,0,0,0,4.91,2.77,1.18,1.18,0,0,0,.91-.74c.09-.43-.26-.82-.59-1.12-1.32-1.18-2.88-2.25-3.51-3.91a9.42,9.42,0,0,1-.3-3.75,46.61,46.61,0,0,0-1-11.54"/>
  <path class="cls-3" d="M490.5,426.5a2.37,2.37,0,0,0,1.21-1.53,6.73,6.73,0,0,0,.18-2V420.6a1.48,1.48,0,0,0-.22-.93c-.21-.25-.69-.29-.82,0"/>
  <path class="cls-3" d="M496.3,416.4a4.13,4.13,0,0,0,.49,2.46C496.21,417.59,497.1,417.54,496.3,416.4Z"/>
  <path class="cls-3" d="M486.29,415.87c-.1-.17.2-.39.34-.25a3.83,3.83,0,0,0-1.63,5.12"/>
  <path class="cls-3" d="M731.43,101.18a10.08,10.08,0,0,0-.67-2.25l-.34-.9-.68-1.75a14.54,14.54,0,0,0-2.35-3.62,13.44,13.44,0,0,0-1.1-1.16,27.21,27.21,0,0,0-2.12-1.92c-.4-.32-.82-.62-1.22-1a15.31,15.31,0,0,1-1.9-2c-.61-.74-1.2-1.5-1.76-2.29a.8.8,0,0,1-.2-.77c.09-.21.33-.23.52-.23h1a1,1,0,0,1,.52.09,1.83,1.83,0,0,1,.5.5c.77.92,1.87,1.21,2.77,1.91.37.29.7.64,1.06.94a22.61,22.61,0,0,0,3.65,2,21.75,21.75,0,0,1,4.33,3.64,19.16,19.16,0,0,1,2.12,2.36c.32.46.62.94.91,1.43l2.36,3.92c2.5-2.31,3.52-6.44,5.47-9.45a3.55,3.55,0,0,1,.81-.94,3.23,3.23,0,0,1,1.25-.47,69.33,69.33,0,0,1,10.27-1.67,67.87,67.87,0,0,1,7.13.08l6.41.29a1.33,1.33,0,0,1,.73.17.75.75,0,0,1,.29.78.83.83,0,0,1-.58.47,22.17,22.17,0,0,1-4.84.88l-5.9.62c-2.2.24-4.49.5-6.41,1.86-2.23,1.59-3.65,4.41-5.14,7-.87,1.5-1.78,3-2.74,4.36a6.69,6.69,0,0,0,3.46,1.42l4.1.82c-.62.72-1.41,1.49-2.21,1.16a7.66,7.66,0,0,1-.7-.46,2.93,2.93,0,0,0-2.57.19,37.8,37.8,0,0,1-7.86,2.73c-.73.12-1.45.35-2.18.44a5.24,5.24,0,0,1-1.31.06,5.44,5.44,0,0,1-1.48-.52,12.88,12.88,0,0,1-4.49-3.06,4.46,4.46,0,0,0-.76-.8.87.87,0,0,0-1-.1c-.31.2-.64.69-.92.42a.53.53,0,0,1-.13-.2,1.63,1.63,0,0,1,.69-2,.39.39,0,0,0,.19-.12.55.55,0,0,0,0-.34,2.32,2.32,0,0,1,1-2.05A4,4,0,0,1,731.43,101.18Z"/>
  <path class="cls-3" d="M327.39,163.24a6,6,0,0,1,.67-1.64l.34-.65.68-1.28a10.81,10.81,0,0,1,2.35-2.63,11.49,11.49,0,0,1,1.1-.85c.69-.49,1.38-1,2.12-1.4.4-.24.82-.45,1.21-.7a12.58,12.58,0,0,0,1.91-1.47c.61-.54,1.2-1.1,1.76-1.67.16-.16.32-.38.2-.56s-.33-.17-.52-.17h-1a1.28,1.28,0,0,0-.52.06,1.52,1.52,0,0,0-.5.37,17.07,17.07,0,0,1-2.77,1.39c-.37.2-.7.46-1.06.68a26.58,26.58,0,0,1-3.65,1.49,21.47,21.47,0,0,0-4.33,2.65,16.93,16.93,0,0,0-2.12,1.72c-.33.33-.62.69-.91,1l-2.36,2.86c-2.5-1.69-3.52-4.69-5.47-6.89a3.37,3.37,0,0,0-.81-.69,3.79,3.79,0,0,0-1.25-.33,90.76,90.76,0,0,0-10.27-1.22c-2.37-.1-4.75,0-7.13.05l-6.41.21a1.79,1.79,0,0,0-.73.13.48.48,0,0,0-.29.57c.09.2.35.28.58.34a28.89,28.89,0,0,0,4.84.64l5.9.46a16.79,16.79,0,0,1,6.41,1.35c2.23,1.16,3.65,3.22,5.14,5.11.86,1.09,1.78,2.15,2.74,3.18a8.36,8.36,0,0,1-3.46,1l-4.1.6a2.54,2.54,0,0,0,2.21.84c.25-.08.46-.23.7-.33a3.87,3.87,0,0,1,2.57.14,48.37,48.37,0,0,0,7.86,2c.73.09,1.45.26,2.18.33a7.18,7.18,0,0,0,1.31,0,6.85,6.85,0,0,0,1.48-.38,13.89,13.89,0,0,0,4.49-2.23,3.92,3.92,0,0,1,.76-.58,1.12,1.12,0,0,1,1-.07c.31.14.64.5.92.3a.37.37,0,0,0,.13-.15,1.06,1.06,0,0,0-.69-1.45.42.42,0,0,1-.19-.09c-.06-.07,0-.16,0-.25a1.58,1.58,0,0,0-1-1.49A5.2,5.2,0,0,0,327.39,163.24Z"/>
  <path class="cls-3" d="M601.62,412.29c-.09,0,0-.21,0-.24a.37.37,0,0,1,.3.06,11.35,11.35,0,0,0,3,1.15,4.57,4.57,0,0,0,3.15-.46,5.94,5.94,0,0,0,1.05-.82l1.55-1.37,2.65-2.35"/>
  <path class="cls-3" d="M623.22,403.85c2.91.08,5.49,1.8,8.28,2.64,2.59.77,5.38.79,7.88,1.81"/>
  <path class="cls-3" d="M627,397.08c-.2.07-.28.31-.34.51a5.64,5.64,0,0,1-.78,1.55"/>
  <path class="cls-3" d="M623.28,395.12c.33.28.88,0,1.07-.39a5.94,5.94,0,0,0,.27-1.28c.09-.42.4-.87.84-.87a1.11,1.11,0,0,1,.35.08l1,.31a1,1,0,0,0,.38.07c.35-.05.52-.49.47-.85s-.24-.68-.27-1,.18-.79.54-.79.54.29.81.19"/>
  <path class="cls-3" d="M631.67,408.87s-.07,0-.06.06a9.32,9.32,0,0,0,1.41,2.84,1.32,1.32,0,0,0,.58.59"/>
  <path class="cls-3" d="M636.59,408.51c.09-.16.32,0,.39.2a5.15,5.15,0,0,0,1.07,1.43l4.07,4.33a7.42,7.42,0,0,0,1.62,1.4c.31.17.64.29,1,.45a13.71,13.71,0,0,0,2.68,1.57"/>
  <path class="cls-3" d="M577.71,412.81c.66.12,1,.76,1.57,1.19a4.68,4.68,0,0,0,1.13.65c2.77,1.31,5.62,2.64,8.67,2.86"/>
  <path class="cls-3" d="M610.12,405.52l-1.55,2.42a5.92,5.92,0,0,1-2.79,2.74,5,5,0,0,1-1.85.15,2.62,2.62,0,0,1-1.79-.59c-.32-.35-.51-.88-1-1-.16,0-.35,0-.44-.16a.43.43,0,0,1-.08-.24l-.1-1"/>
  <path class="cls-3" d="M598.63,409.71l-.15-.21c-.23-.3-.86-.52-1-.88"/>
  <g>
    <path class="cls-3" d="M622.43,395a2.66,2.66,0,0,0,.3-2.44,8.24,8.24,0,0,1-.72-2.92,3.09,3.09,0,0,1,1.55-2.29,5.6,5.6,0,0,1,2.76-.69c1.57,0,3.46.62,3.71,2.16.11.69-.12,1.47.3,2,.17.24.45.4.56.68a.69.69,0,0,1-.9.81,9.51,9.51,0,0,0,.27,2.49c-.26.31-.73.18-1.13.14s-.93.25-.76.61a.68.68,0,0,0,.18.2,14.5,14.5,0,0,0,8,3.4c1.39.13,2.43,1.1,3.69,1.72a8.17,8.17,0,0,1,3.26,2.57,3.76,3.76,0,0,1,.25,4c-.17.28-.41.57-.35.89a2.1,2.1,0,0,0,.36.63c.12.21.13.53-.09.64s-.34,0-.49.07-.14.53,0,.77l1,1.62c1.27,2,4,2.89,5.85,4.28a7.62,7.62,0,0,0,2.89,1.56c.32.07.75.3.58.57s-.29.14-.46.13l-1.89-.12a1,1,0,0,1,0,1.49,2.46,2.46,0,0,1-1.64.46,16.58,16.58,0,0,1-5.37-.8,1,1,0,0,1-.38-.18,1.31,1.31,0,0,1-.24-.34,6.32,6.32,0,0,0-.47-.75,16.38,16.38,0,0,0-7.88-6c-1.38.69-2.18,2.14-2.93,3.49s-1.81,3.07-3.4,3.68c-2.09.81-4.44-.32-6.67-.08-.92.11-2.15.29-2.5-.57a3,3,0,0,1-.09-1c0-1-.77-1.8-1.15-2.71-.79-1.93-.09-4.44-1.51-6-.24,3.63-3.47,6.26-5,9.56-4.65,1.39-9.84,2.5-14.21.37-.78-.38-1.52-.86-2.34-1.18-2.2-.88-4.68-.53-7-.07-1.44-.16-3.15,0-4.59-.17-1.85-.2-3.82-.39-5.48.45a1.26,1.26,0,0,1-.8.23c-.33-.07-.52-.39-.67-.68l-.71-1.39a15.79,15.79,0,0,1-1.85-4.92,1.59,1.59,0,0,0,1,.51c.08-.82-.21-1.63-.15-2.45s.77-1.71,1.56-1.49c.57.16.84.79,1.12,1.32a7.94,7.94,0,0,0,5.29,3.73,17,17,0,0,0,6.62-.09,18.58,18.58,0,0,1,3.22-.43c2.19,0,4.6.9,6.46-.26a1.13,1.13,0,0,0,.63-.93c0-.46-.51-.74-.93-.93-1-.46-2.37-.81-2.94.12a6.53,6.53,0,0,1-.35.7c-.48.62-1.61.21-1.83-.54a2.31,2.31,0,0,1,.73-2.13,2,2,0,0,1,1.69-.78c1-1.13,2.68-1,4.16-1a24.23,24.23,0,0,0,5-.34c1.62-.28,3.39-.87,4.15-2.33a4.47,4.47,0,0,1,.47-.86c.49-.55,1.47-.64,1.7-1.33s-.26-1.14-.74-1.5-1-.65-1.28-1.2c-.53-1.29-.15-2.78-.06-4.17a2.73,2.73,0,0,1,.36-1.44,2.7,2.7,0,0,1,1.49-.86,6.76,6.76,0,0,1,2.8-.45,2.29,2.29,0,0,1,2,1.71c.1.61-.14,1.31.2,1.83a3.39,3.39,0,0,0,.69.61.92.92,0,0,1,.42.78c0,.31-.49.52-.67.27a3.23,3.23,0,0,0,.93,4.17,26.88,26.88,0,0,1,2.43-5.11,2.4,2.4,0,0,1,.76-.88c.26-.15.55-.22.81-.37a1.67,1.67,0,0,1,.26-.17c.13,0,.12,0,.25,0a4.09,4.09,0,0,1,.53.4c.37.28.76.54,1.14.82a6.44,6.44,0,0,1,1.91,1.91,5.35,5.35,0,0,0,3.58,2.52c.89.16,1.81.1,2.71.25a11.34,11.34,0,0,1,4.18,1.95l3.88,2.52c.59.37,1.35,0,2.05,0a.5.5,0,0,1,.41.17.61.61,0,0,1,0,.33,2.66,2.66,0,0,0,.35,1.43,7.13,7.13,0,0,1,.55,1.15,1.36,1.36,0,0,1-.17,1.21c-.43.53-1.24.44-1.91.3a1.08,1.08,0,0,1-.65-.29c-.34-.38-.06-1-.37-1.46"/>
    <path class="cls-3" d="M618,403a11.71,11.71,0,0,1,.09,3.07,4,4,0,0,1-1.38,2.67"/>
  </g>
  <path class="cls-3" d="M54.71,422c0-.21-.23-.35-.43-.27a.77.77,0,0,0-.37.47c-.39.93-.49,2-.92,2.88a2.42,2.42,0,0,1-2.32,1.59A2.37,2.37,0,0,1,49,424.46a21.58,21.58,0,0,1,.19-3c0-.72,0-1.57.57-2"/>
  <path class="cls-3" d="M54.41,397.94a1.17,1.17,0,0,0-1,.22,32.29,32.29,0,0,1-.18-7.55c.14-2.59.46-5.55,2.58-7.06.78-.56,1.81-.91,2.22-1.79l-1.15-.06.78-4.32a2.46,2.46,0,0,1,.39-1.1,2.63,2.63,0,0,1,.85-.62c1.53-.81,3.74-1.48,4.73-.06a6.47,6.47,0,0,1,.58,2.43,8.65,8.65,0,0,0,1.68,3.2l2.15,3a17.92,17.92,0,0,1,2.34,3.92c.93,2.4.79,5.06.63,7.63a4.27,4.27,0,0,1-.65,2.42c-.62.78-1.72,1.05-2.35,1.82-1.12,1.34-.3,3.32,0,5a18.24,18.24,0,0,1-.13,5,49.19,49.19,0,0,0,.17,11.44c.08.59-.08,1.45-.67,1.36-.21.73.64,1.3.9,2,.39,1.08-.88,2.22-2,2a3,3,0,0,1-2.2-2.38,5.87,5.87,0,0,0-.44-1.44c-.19-.35-.51-.64-.67-1a3.11,3.11,0,0,1,0-1.91,22.32,22.32,0,0,0-3.33-16.47c-.62,1.6-2.49,2.4-3.24,3.95a7.35,7.35,0,0,0-.33,3.62,31.74,31.74,0,0,1-1.63,12A5.1,5.1,0,0,1,53,425.62a1.94,1.94,0,0,1-2.59,0,2.82,2.82,0,0,1-.51-1.51c-.25-1.76-.11-4.06-.18-5.84l-.35-8.5a12.63,12.63,0,0,1,.05-2.46,12.16,12.16,0,0,1,1-3.1q1.27-3,2.79-5.89"/>
  <path class="cls-3" d="M66.2,400.5c-.41-.49-1.2-.32-1.76,0a6.19,6.19,0,0,0-2.29,2.17,1.67,1.67,0,0,1-.67.74c-.66.29-1.32-.48-1.44-1.19a4.75,4.75,0,0,1,1.57-3.91c1-1,2.26-1.84,3.27-2.89a4.66,4.66,0,0,0,1.48-3.94"/>
  <path class="cls-3" d="M57.68,391.11c0-.22-.36.05-.37.28a10.08,10.08,0,0,0,.51,4.41c.23.54.57,1,.83,1.56a7.13,7.13,0,0,1,.35,5.51.82.82,0,0,1-.14.26c-.31.33-.82-.06-1.08-.43l-3.25-4.5"/>
  <path class="cls-3" d="M59.57,383.54a2.17,2.17,0,0,0,3.88.51"/>
  <path class="cls-3" d="M57.82,378.84c.2.51,1,.33,1.4,0s.93-.83,1.43-.61c.27.11.44.4.7.52s.78,0,1.15.13c.66.21.75,1.09.81,1.78s.52,1.57,1.19,1.38"/>
  <path class="cls-3" d="M63.89,420.87c-.3-.32-.87.21-.71.62a1.2,1.2,0,0,0,1.1.59,4.3,4.3,0,0,0,2.46-.54"/>
  <path class="cls-3" d="M51,420.6c-.57.59-.06,1.68.72,1.95a3.75,3.75,0,0,0,2.41-.26"/>
  <path class="cls-3" d="M83.54,397.48c.58.94,1.32,2.06.84,3.06s-1.79,1.14-2.54,1.91a4.2,4.2,0,0,0-.84,2.74,16.3,16.3,0,0,0,.34,5.79c1,3.27,3.93,5.74,4.62,9.08.26,1.27.18,2.58.41,3.85a3.9,3.9,0,0,0,2.11,3,2,2,0,0,0,1.5,0,1.71,1.71,0,0,0,.61-.42c1.35-1.4.13-3.86,1-5.61a2.77,2.77,0,0,0,.44-1.12c0-.52-.46-.91-.84-1.26-2.14-2-3.24-4.84-4.28-7.58-.69-1.84-1.27-4.22.21-5.52a2.58,2.58,0,0,1,4.06,1.94,6.63,6.63,0,0,1-1.25,2.81,2.89,2.89,0,0,0-.31,2.94c.29.44.78.72,1.1,1.14a10.4,10.4,0,0,1,.8,1.91c.3.63,1.05,1.18,1.65.84l2.45-9a8,8,0,0,1,.93-2.35c.54-.8,1.38-1.42,1.65-2.34.17-.58.1-1.2.25-1.78.29-1.07,1.28-1.77,2-2.61,1.36-1.62,1.72-3.83,2-5.92a14.69,14.69,0,0,0,.2-4.58,5,5,0,0,0-2.4-3.73c-.93-.49-2.1-.6-2.8-1.39a4.07,4.07,0,0,1-.72-2.48,12,12,0,0,0-1.13-5,4.15,4.15,0,0,0-4.29-2.26,6.13,6.13,0,0,0-1.57.7,9.79,9.79,0,0,0-2.82,2.11,3.68,3.68,0,0,0-.85,2.22c0,.76.45,1.41.45,2.17,0,1.29-1.42,2.24-2.14,3.17a12.3,12.3,0,0,0-2.43,8.63A11.63,11.63,0,0,0,83.54,397.48Z"/>
  <path class="cls-3" d="M88.23,376.83a3.66,3.66,0,0,1,2.17,1.38,6.74,6.74,0,0,1,1.72,2.7,3,3,0,0,1-.69,3,2.28,2.28,0,0,1-3.74-1.2l.36.26"/>
  <path class="cls-3" d="M96.5,390.33A5.52,5.52,0,0,1,96,394.9c-1.44,2.39-4.44,3.32-6.4,5.31a5.5,5.5,0,0,0-1.15-2.73c-.77-1-1.88-1.69-2.34-2.83a5.85,5.85,0,0,1-.3-2l-.19-5"/>
  <path class="cls-3" d="M85.47,401.44c0-.12-.2-.14-.26,0a.38.38,0,0,0,0,.34,10.77,10.77,0,0,0,1.11,2.06"/>
  <path class="cls-3" d="M91.14,404.7a3.69,3.69,0,0,0,1.79-1.63,1.68,1.68,0,0,1,.37-.53,1.62,1.62,0,0,1,.93-.25,3.92,3.92,0,0,0,2.37-1.17"/>
  <path class="cls-3" d="M87.16,420.41c-.07.1-.24,0-.25-.11a.46.46,0,0,1,.15-.32,4.24,4.24,0,0,1,1.62-1.33,1.41,1.41,0,0,1,1.81.63"/>
  <path class="cls-3" d="M437.57,412.53l-.28-1.55-.24-5.07a2.39,2.39,0,0,0-.18-.92,4.79,4.79,0,0,0-.58-.7,2.2,2.2,0,0,1-.47-1.64l-.29-.22c2.24.59,3.47,3.19,3.28,5.51s-1.41,4.39-2.61,6.38L432,421.19a3,3,0,0,0-.56,1.48,3.43,3.43,0,0,0,.37,1.27,14.63,14.63,0,0,1,1.17,5.25,7.09,7.09,0,0,0,2.29-3.35,6.3,6.3,0,0,1,.44-1.19,4.85,4.85,0,0,1,.87-1,32.83,32.83,0,0,0,7.7-12.79,7.1,7.1,0,0,0,.57-3c-.23-2.32-2.5-4-2.92-6.28.21,0,1-.16.82-.31s-.05-.39.06-.58c1.72-3.06,1.43-6.8,1.1-10.3l-.79-8.18c-.15-1.63-.36-3.38-1.44-4.61-.61-.7-1.46-1.17-2.06-1.89a8.6,8.6,0,0,1-1.35-3.25,5.48,5.48,0,0,0-1.71-3,2.15,2.15,0,0,0-3.09.42c-.21.41-.24.89-.48,1.28-.43.67-1.35.79-2.12,1-.59.14-1.88.74-1.53,1.55.83,0,1.73,1.05,1.77,1.82a.72.72,0,0,1-.53.79c-.13,0-1.89.07-1.25.69-1.37-.06-2.3.87-3,2a28.62,28.62,0,0,0-3.33,7.21,6.09,6.09,0,0,0-.29,3.21,7.07,7.07,0,0,0,1.63,2.64c1.27,1.51,2.54,3.19,2.67,5.16.09,1.37-.28,3,.78,3.89a10.45,10.45,0,0,0,1.45.75,4.22,4.22,0,0,1,1.41,1.74,26.77,26.77,0,0,1,3.17,12.84l.33.55"/>
  <path class="cls-3" d="M438.14,423.88c.11,1.08,1.6,1.38,2.17,2.3a3.67,3.67,0,0,0,.49.78,1.55,1.55,0,0,0,.8.29,2.91,2.91,0,0,0,1.21.06,1.07,1.07,0,0,0,.85-.78,1.58,1.58,0,0,0-.54-1.2L440,421.66a1.68,1.68,0,0,1-.27-.46"/>
  <path class="cls-3" d="M438.16,424a.57.57,0,1,0,.78-.67.61.61,0,0,0-.8.55"/>
  <path class="cls-3" d="M438.65,376.49a17.44,17.44,0,0,0-2,2.34,2.36,2.36,0,0,1-2.74.79,2.81,2.81,0,0,1-.77-.73L431.6,377"/>
  <path class="cls-3" d="M439.24,381.32c.1-.09-.07-.26-.2-.21s-.17.2-.21.33a16.89,16.89,0,0,0-.85,5.15,21,21,0,0,0,1.64,6,40.73,40.73,0,0,1,1.63,6.13"/>
  <path class="cls-3" d="M432.89,380.42c.11,5.14.22,10.35-.94,15.36a31.19,31.19,0,0,1-1.7,5.19"/>
  <path class="cls-3" d="M437.84,375.6l-.92-1.76a.76.76,0,0,0-.27-.34.82.82,0,0,0-.65,0l-2.3.84a3.78,3.78,0,0,1-2.94-.66"/>
  <path class="cls-3" d="M429.75,382.11c.06.08.17-.1.07-.15s-.19,0-.27.11a7.11,7.11,0,0,0-1.06,8.34c.43.71,1,1.35,1.42,2a8.73,8.73,0,0,1,1.3,3.52"/>
  <g>
    <path class="cls-3" d="M742,366.48a1,1,0,0,0,.77.6,2.09,2.09,0,0,0,2.19-1.44,6,6,0,0,0,.13-2.82,2,2,0,0,0-.15-.64,1.25,1.25,0,0,0-1.28-.6,2.25,2.25,0,0,0-1.28.77,3.66,3.66,0,0,0-.41,4.18,3.58,3.58,0,0,0-1.26-.06,1.23,1.23,0,0,0-.95.76c-.18.59.28,1.17.48,1.76.48,1.41-.54,3.16.32,4.38.28.4.73.68.89,1.14a4.47,4.47,0,0,1,.07,1.16,2.1,2.1,0,0,0,3.24,1.65c.28-.18.55-.43.88-.4s.62.45.74.83a6.36,6.36,0,0,1,.28,2.64c0-.2-.26.41-.08.51l.79.45a2,2,0,0,0,1.38.37c.48-.12.37-1.06,0-1.33a13.13,13.13,0,0,0-.95-4.95,4,4,0,0,0-.46-.87,2.21,2.21,0,0,0-1.68-.84"/>
    <path class="cls-3" d="M744.33,367.57a2.56,2.56,0,0,1,.86,2.1,7.27,7.27,0,0,1-.53,2.29"/>
    <path class="cls-3" d="M743.74,361a1.5,1.5,0,0,1,.59-1.56A2.73,2.73,0,0,1,746,359a2.69,2.69,0,0,1,1.72.54,3.75,3.75,0,0,1,1,2.16l.45,2.28a1.19,1.19,0,0,1,0,.77,1.22,1.22,0,0,1-.74.5c-.57.19-1.17-.09-1.75.05.42.27.45.87.43,1.37,0,1-.13,2.11-.25,3.16a3.71,3.71,0,0,1-.32,1.32,4.39,4.39,0,0,1-2.07,1.69,2.68,2.68,0,0,0-1.36,1.25"/>
    <path class="cls-3" d="M750.5,381.45a26.33,26.33,0,0,0,1.17-12.17,5.8,5.8,0,0,0-1.73-3.85l-2.56-.16-.57,4.55-.32,1.32-1.3,1.25,2.07,2.18,1.3,2.08v2.22"/>
    <path class="cls-3" d="M751.09,383.83l-.61-2.33-1.77.22-2.17-.82a26.64,26.64,0,0,1-4.57,7.5,4.41,4.41,0,0,0-.89,1.28,3.37,3.37,0,0,0-.14,1.34,29,29,0,0,0,1.69,8.89l2.57-.1-.16-4a15.28,15.28,0,0,1,.21-4.17,6,6,0,0,1,.7-1.76,9.67,9.67,0,0,1,1.71-2,10.36,10.36,0,0,0,2.23-2.55l1.22-.92-.63-3a7.15,7.15,0,0,1,.51,4.41,39.42,39.42,0,0,1-1.18,4.35,5.76,5.76,0,0,0-.15,3.77c.46,1.13,1.6,2.15,1.25,3.32a1,1,0,0,0-.06.34.75.75,0,0,0,.29.42,3.7,3.7,0,0,1,1.05,2l-4.81.15-2.1-5.23-.08-4.43"/>
  </g>
  <g>
    <path class="cls-3" d="M786.21,375.93a7.87,7.87,0,0,0,.76,3,3.23,3.23,0,0,0,.61,1.37,1.86,1.86,0,0,0,2.7-.5,4.77,4.77,0,0,0,.65-2.6,9.27,9.27,0,0,0-.1-2.88,2.43,2.43,0,0,0-1.28-1.63c-.78-.31-1.39.25-1.92.76A4.08,4.08,0,0,0,786.21,375.93Z"/>
    <path class="cls-3" d="M782.26,414.27a8.9,8.9,0,0,0,3.08,4.15c.49.36,1.22.66,1.66.24a1.4,1.4,0,0,0,.31-.89c.59-6.39-1.74-13,.2-19.13A11.64,11.64,0,0,1,790,405c.14,1.91-.19,3.89.46,5.69.4,1.09,1.15,2.1,1.16,3.25,0,1.41-.95,3.13.14,4,.8.65,2,.11,2.75-.59s1.42-1.61,2.42-1.79c.5-.1,1.07,0,1.45-.35a1.18,1.18,0,0,0,.07-1.45,6.47,6.47,0,0,0-1.08-1.14c-1.52-1.51-1.89-3.79-2.18-5.92l-1.4-10.29a12.18,12.18,0,0,1-.15-3.3c.1-.77.34-1.51.47-2.28.27-1.56-.64-2.71-.39-4.27.22-1.38-.27-3.46-.25-4.86s-.39-2.11-1.77-2.32l-3.14,1.27-2.4-1.52c-1.7-.68-4.75.66-5.62,2.27a11.72,11.72,0,0,0-1.76,3.94c-.77,3.81-2.67,7.86-1,11.36.6,1.25,1.61,2.26,2.21,3.5a12.35,12.35,0,0,1,.91,3.81l1.29,10.16"/>
    <path class="cls-3" d="M783.39,384.49c-.1,1.41-.15,2.83-.14,4.25a5.34,5.34,0,0,0,.14,1.32,5.16,5.16,0,0,0,.76,1.45l3.51,5.31a1.15,1.15,0,0,1,.27.84,1.17,1.17,0,0,1-.52.58c-.67.47-1.62.93-2.24.38a2.57,2.57,0,0,1-.51-.88,7.8,7.8,0,0,0-1.25-1.72,24.38,24.38,0,0,1-4-6.5"/>
    <path class="cls-3" d="M787.12,393.71a12.29,12.29,0,0,1,3.83.16"/>
    <path class="cls-3" d="M812.77,400.22a11.48,11.48,0,0,1,.22,3.7c-.2,2.33-.87,4.62-1,7a3,3,0,0,0,.26,1.6,5.46,5.46,0,0,0,.8.94,4.35,4.35,0,0,1,1.11,2.72.85.85,0,0,1-.26.75.87.87,0,0,1-.53.09,13.84,13.84,0,0,1-5.37-1.25,3.35,3.35,0,0,0-1.39-.42c-1,0-2.19,1.05-2.91.32-.49-.5-.19-1.32.09-2a14.3,14.3,0,0,0-.7-12.68,6.35,6.35,0,0,0-3-2.89,11.12,11.12,0,0,1-2.59-1,4.06,4.06,0,0,1-1.35-2.83c-.55-3.82.45-7.78-.46-11.53a3.45,3.45,0,0,1-.14-1.9c.43-1.27,2.14-1.5,3.19-2,1.28-.6,1.83-1.33,1.54-2.74a5.56,5.56,0,0,1-.2-3.2c.69-1.78,3.48-1.94,4.77-.54a5,5,0,0,1,.45,5.39,2.88,2.88,0,0,0-.42,1.37c.07.88,1,1.36,1.77,1.83a8.43,8.43,0,0,1,3.5,5.54,18.82,18.82,0,0,1-.16,6.69,4.43,4.43,0,0,0,.11,2.77,7.09,7.09,0,0,0,1.1,1.29,6.58,6.58,0,0,1,1.5,2.92"/>
    <path class="cls-3" d="M800.41,379.18a1.28,1.28,0,0,0,2,.44"/>
    <path class="cls-3" d="M800,383.83l.74,5.73a7.15,7.15,0,0,0,.82,3c1,1.48,2.79,2.05,4.42,2.71a4.05,4.05,0,0,1,1.7,1.09,1.6,1.6,0,0,1,.17,1.9,14.24,14.24,0,0,1-4.15-2,7.11,7.11,0,0,0-1.25-.79,14.39,14.39,0,0,0-1.62-.47,9.93,9.93,0,0,1-3.84-2.73"/>
    <path class="cls-3" d="M805.29,382.7a.15.15,0,0,0-.22-.1,38.85,38.85,0,0,1,1,10.74"/>
    <path class="cls-3" d="M808.61,399.89c0-.2-.31-.25-.43-.08a.73.73,0,0,0,0,.58,22.49,22.49,0,0,1,.58,5.37c.07,2,.21,4,.36,6.05a6.52,6.52,0,0,0,.94,3.54"/>
  </g>
  <g>
    <path class="cls-4" d="M139.55,405.31a16.8,16.8,0,0,0-1-6.73c-.42-1.22-.74-2.74-1.8-3.58-2.77-2.23-7.23-1.71-10.28-.35a12.25,12.25,0,0,0-4.67,3.61,7.17,7.17,0,0,0-1.68,3.9,9.83,9.83,0,0,0,.61,3.42"/>
    <path class="cls-3" d="M130.61,403.37a1.27,1.27,0,0,0-2,.29.63.63,0,0,0,.07.71.84.84,0,0,0,.7.08,1.9,1.9,0,0,0,1.3-.61c.28-.41,0-1.14-.5-1"/>
    <path class="cls-4" d="M158.58,394.66a2.94,2.94,0,0,0-2.14,1,9.61,9.61,0,0,0-2.8,6.54c-.12,2.43-.23,2.68.63,4.95"/>
    <path class="cls-4" d="M162.28,393.58a.21.21,0,0,1,0-.37,14.11,14.11,0,0,1,5.64,1.88,12.84,12.84,0,0,1,4.34,4.33,6.14,6.14,0,0,1,.85,2,6.66,6.66,0,0,1-.35,3.24c-.63,2,.68.33-.57,2"/>
    <path class="cls-4" d="M140,391.9a4,4,0,0,0,1.48,3.38,31.52,31.52,0,0,1,2.85,2.56c.45.56.8,1.2,1.29,1.72a2.23,2.23,0,0,0,1.91.79,3,3,0,0,0,1.46-.94l5.28-5.14a9.11,9.11,0,0,0,2.29-2.95,14.92,14.92,0,0,0,.83-3,20.35,20.35,0,0,0,.22-2.22c0-.52.06-1,.11-1.58.07-.81.24-1.8-.41-2.42-.91-.87-2.38-.14-3.43-.68"/>
    <path class="cls-3" d="M143.52,360.84a2,2,0,0,1,.14-2c1.51-2.18,3.82-.3,6.47.73,1.05.41.33,1.62.38,2.41.05.59.57,1.59.66,2.18s-1.17,1.44-1.16,2c0,.35-3.22,1.6-1.59.47.51-.35,1.33.77.66.79a1.85,1.85,0,0,1-.9-.35,1.3,1.3,0,0,0-1.09,0,2,2,0,0,1-2.41-.72,7.32,7.32,0,0,1-.74-3.14,10.1,10.1,0,0,0-.39-2.25Z"/>
    <path class="cls-3" d="M150.37,360.69c-1.16.22-3.42,1.32-4,2.36a.87.87,0,0,0-.14.49c0,.22.22.42.16.63a.61.61,0,0,1-.25.3l-1,.76"/>
    <path class="cls-3" d="M149.35,399.33a2.78,2.78,0,0,1-3-1.05"/>
    <path class="cls-3" d="M146.62,370.49l1.37,2.17c.94,1.5,1.87,3,2.73,4.53a5.6,5.6,0,0,1,.49,1.09c.11.4.12.81.22,1.21a3,3,0,0,0,2,2.09"/>
    <path class="cls-3" d="M139.82,383.17a3,3,0,0,0,.83,1.71,4.65,4.65,0,0,1,.85.6,4.48,4.48,0,0,0,.32.44,5.2,5.2,0,0,0,.64.39,2.09,2.09,0,0,1,.65,1.05A20.85,20.85,0,0,0,146,392c.35.46.49,1.09,1.07,1.13a2.49,2.49,0,0,1,.16,2.09,12.1,12.1,0,0,1-1,2.27l-2.56,4.83c-1,2-6.16,4.5-6,4.31,1.47-2.53,3.12-4.52,4.15-7.27-.35-1.88,1.6-3.6,1.29-5.49-.21-1.31-1.43-2.17-2.5-3a33.26,33.26,0,0,1-4.36-3.86,5,5,0,0,1-1.39-2.2,5.33,5.33,0,0,1,.72-3.25l2.66-5.75a32.73,32.73,0,0,0,1.39-3.29c.21-.63.38-1.27.61-1.89a10.08,10.08,0,0,1,2.6-3.83s2-.75,3,.83c.25.38.62.67.84,1.07A8.69,8.69,0,0,1,147,370c.16.42.59.81,1,.65l.17.26,1.43,1.38a8.55,8.55,0,0,1,1,1.13c.32.42.56.91.89,1.32.68.83,1.73,1.34,2.3,2.26.32.52.47,1.13.78,1.66a3.11,3.11,0,0,0,2.44,1.53l-4.83-1a2.93,2.93,0,0,0,1.63,1.54l.08,2.2c-1.11-.42-2.53-.37-3.23-1.34a5.19,5.19,0,0,1-.53-1.23,9.72,9.72,0,0,0-1.58-2.49c-1.6-2-3.26-4-5-5.86l1.73,3.09a54.7,54.7,0,0,1-3,7.67,15.48,15.48,0,0,1,9.52.67,3.11,3.11,0,0,1,2.12,1.74,3.18,3.18,0,0,1-.15,1.72A36.87,36.87,0,0,1,149,397.33c-.15.21,0,.38.2.52s.49.29.52.55l-1,1-1.74.09-1-1.64,1.38-3.64-.74-2.41.67-4.67-4.45-1.26-.08-2.09"/>
    <path class="cls-3" d="M130.86,401.92a14.38,14.38,0,0,0,4-5.86c.93-2.21,1.63-4.52,2.7-6.66"/>
    <path class="cls-3" d="M137.87,390.39l1.17,3.09c.34.88.67,1.77,1.08,2.62a14,14,0,0,0,1.24,2.16"/>
    <path class="cls-4" d="M135.85,392a3.07,3.07,0,0,0-2.07-.79,16.88,16.88,0,0,0-6.57.06,8.59,8.59,0,0,0-4.41,2.94"/>
    <path class="cls-4" d="M126.83,389.81a2.14,2.14,0,0,0-1.15,0,.55.55,0,0,1,.18-.66,1.46,1.46,0,0,1,.7-.26,19.52,19.52,0,0,1,6.85.41c.32.05.62.1.63.48a.88.88,0,0,1-.33.72c-.33.25-.88.1-1.25.08l-1.74-.15C129.41,390.26,128.12,390.07,126.83,389.81Z"/>
    <path class="cls-3" d="M162.11,400.23s.1.06.07.12a.33.33,0,0,1-.15.1,1.1,1.1,0,0,0-.48,1.55.53.53,0,0,0,.26.23.49.49,0,0,0,.57-.34,1.5,1.5,0,0,0,0-.73c-.76-4.4-3.87-7.84-4.57-12.25a7.74,7.74,0,0,1,.37-4.77"/>
    <path class="cls-3" d="M158.08,385.65c.65.65.23,1.78.58,2.63.18.45.58.8.74,1.27.11.31.12.73.36,1a.33.33,0,0,0,.28.12c.31,0,.61-.1.93-.07a.94.94,0,0,1,.41.08c.16.13.1.42.18.6a.89.89,0,0,0,.84.58.91.91,0,0,0,.67-.52,2,2,0,0,0,.13-.87,1.74,1.74,0,0,0-.25-.9.76.76,0,0,0-.82-.34,1.52,1.52,0,0,0-1.18.13c-.43.32-.54,1-.93,1.34"/>
    <path class="cls-3" d="M136.32,381.53a1.54,1.54,0,0,1,1.49-.44,3.72,3.72,0,0,1,1.64.72,2,2,0,0,0,.44.32c.51.23,1.15-.1,1.66.15"/>
  </g>
  <path class="cls-3" d="M620.48,413.35c-.19.76.62,1.47,1.4,1.48a3.7,3.7,0,0,0,2.12-.93,11.79,11.79,0,0,0,3.62-3.82,13.78,13.78,0,0,0,.92-2.49,11.1,11.1,0,0,0,.64-3.26,3.74,3.74,0,0,0-1.28-2.95"/>
  <path class="cls-3" d="M629.74,409.22a16.52,16.52,0,0,1,6.23-3.63"/>
  <path class="cls-3" d="M604.47,410.12a10.75,10.75,0,0,0,1.09,3.79,3.84,3.84,0,0,0,3.17,2.07"/>
  <path class="cls-3" d="M402.29,444.65c2.14,7.6,1.14,8,1.64,9.79"/>
  <path class="cls-3" d="M795.32,400.41a19.61,19.61,0,0,1,3.16,0,11,11,0,0,0,1.14.1c1,0,1.88-.36,2.83-.37a.64.64,0,0,1-.49.33"/>
  <path class="cls-3" d="M696.91,474.46a4.93,4.93,0,0,1-2,1.12c-1.21.32-2.74.13-2.83.69-.17,1.11-.07.6.35,1s4.61,0,4.61,0,5.28.53,5.22,2.47c0,1,.07.89.07,1,0,1.56-3.31,2.43-3.76,5.33-.59,3.79,1.48,4.76,4.76,4.92s19.69,0,19.69,0l5.24-1.24a2.85,2.85,0,0,0,.39-3.77c-.37-.55-.11-1.39-.66-2s-1.93-.92-2.7-1.49a18.6,18.6,0,0,0-4.89-2.53c-8.87-3.12-13.3,3.44-13.3,3.44a3.55,3.55,0,0,0,.71-1.92c.27-1.52-.67.48-.26-.44.82-1.83-.33-4.63-1.81-6.44a5.66,5.66,0,0,0-.47-.52l-.28-.26c-.12-.1-.23-.2-.36-.29a5.61,5.61,0,0,0-.55-.41l-.39-.24-.37-.21a4.23,4.23,0,0,0-3.82-.37,8.3,8.3,0,0,0-2.62,2.14"/>
  <path class="cls-3" d="M738.7,488.89a2.15,2.15,0,0,1-.86.58c-.53.16-1.2.06-1.24.36-.08.56,0,.3.15.49a10.51,10.51,0,0,0,2,0s2.3.27,2.27,1.27a1.48,1.48,0,0,0,0,.52c0,.8-.85,1.17-1.05,2.67-.26,1.95.06,2.53,1.49,2.61s8.6,0,8.6,0l3.22-.59a7,7,0,0,0-4.37-5.07c-3.87-1.61-5.26.23-5.26.23s-.31.42-.35-.11c-.06-.79-.29.25-.11-.22a2.78,2.78,0,0,0-.68-2.67,2.56,2.56,0,0,0-.2-.26.86.86,0,0,0-.13-.14l-.15-.15-.24-.21-.17-.13-.17-.1a1.58,1.58,0,0,0-1.66-.19,3.94,3.94,0,0,0-1.14,1.1"/>
  <path class="cls-3" d="M756.88,493.8a2.07,2.07,0,0,1-.86.57c-.53.17-1.2.07-1.24.36-.07.57,0,.31.15.5a10.46,10.46,0,0,0,2,0s2.3.28,2.27,1.28a1.21,1.21,0,0,0,0,.52c0,.8-.87,1.17-1.06,2.66-.26,1.95.06,2.54,1.49,2.62s8.6,0,8.6,0l3.22-.59a7,7,0,0,0-4.37-5.08c-3.87-1.61-5.26.24-5.26.24s-.31.41-.35-.11c-.06-.8-.29.25-.12-.23a2.75,2.75,0,0,0-.66-2.66l-.21-.27a1.42,1.42,0,0,1-.12-.13l-.16-.15a1.57,1.57,0,0,0-.24-.21,1.09,1.09,0,0,0-.17-.13l-.16-.1a1.62,1.62,0,0,0-1.67-.2,3.74,3.74,0,0,0-1.14,1.11"/>
  <path class="cls-3" d="M789,488.1a1.28,1.28,0,0,1-.61.57c-.43.17-1.06.07-1,.36.08.57.05.31.27.5a8.35,8.35,0,0,0,1.8,0s2.14.27,2.38,1.27a1.37,1.37,0,0,0,.17.52c.21.8-.46,1.17-.24,2.66.3,1.95.74,2.54,2,2.62s7.7,0,7.7,0l2.73-.59a10.12,10.12,0,0,0-5.27-5.08c-3.9-1.61-4.65.24-4.65.24s-.17.42-.35-.11c-.26-.79-.19.25-.16-.22a3.77,3.77,0,0,0-1.31-2.67,3.19,3.19,0,0,0-.26-.26l-.14-.14-.18-.15-.27-.21-.19-.13-.18-.1c-.6-.35-1.2-.49-1.54-.19a2.53,2.53,0,0,0-.73,1.1"/>
  <g>
    <path class="cls-3" d="M40.54,500.18c.45,4.34.6,8.7.75,13.06.35,10.1-.2,25.69.92,26.86,34,.07,223.09,5.85,269.33,5.77,6.94,0,14.94-.07,21.88,0q91.66.38,183.33,1.26a167,167,0,0,0,18-.4c.64-4.38,28.19-49.42,28.15-50.28-.07-1.35-1.46-1.67-2.49-1.59-6.33.49-12.62,1.66-19,1.82-4.42.11-8.84-.27-13.26-.43-11.51-.43-23,.6-34.5,1.63-.14-.27.08-.1.18.18s-.09.57-.29.79l-6.85,8a3.22,3.22,0,0,1-1,.93,3.47,3.47,0,0,1-1.84.15c-14-1.38-28.19.38-42.29.22-2.43,0-5-.14-7.07-1.34a6,6,0,0,1-2.44-6.76h-51"/>
    <path class="cls-3" d="M64.6,486.86c-.84-.66-.93-2.26.07-2.63,0-.57-1.29-2.5-1.83-3.83a6.09,6.09,0,0,0-3.38-3.48,4.69,4.69,0,0,0-4.7.72c-2.29,2-1.7,5.64-.92,8.58a18.49,18.49,0,0,0-12.55,10.09c-.34.75-.62,1.71-.08,2.34s1.4.54,2.17.52a10.63,10.63,0,0,1,8.44,4,2.52,2.52,0,0,0,1.84-2.57A4.08,4.08,0,0,0,52,497.73a6,6,0,0,0-3.48-1.3c-1,0-2.4-.28-2.23-1.25.09-.51.66-.77,1.15-.95l3.08-1.11a10.18,10.18,0,0,1,.17,3.16"/>
    <path class="cls-3" d="M62.38,479.47c-.88,1.15-1.93,3.33-3.37,3.51a14.45,14.45,0,0,0-2.72.06,4.43,4.43,0,0,0-1.56,3"/>
    <path class="cls-3" d="M57.93,487.07a13.22,13.22,0,0,0,5.63.92s.81,0,.75-1.43"/>
    <path class="cls-3" d="M54.29,487.57a13.83,13.83,0,0,0,4.21,2.88,2.34,2.34,0,0,0,1.41.28.93.93,0,0,0,.79-1"/>
    <path class="cls-3" d="M61.18,489.17c.72.61.72,4.36,1.06,5.16a30.17,30.17,0,0,1,2.07,5.85"/>
    <path class="cls-3" d="M284.57,499.92l1.74,1.25a2.21,2.21,0,0,1,.76.76,1.52,1.52,0,0,1-.51,1.79,3.88,3.88,0,0,1-1.87.7c-1.45.23-3.09.22-4.16-.78-3.26-3-8.72-1.82-13.11-1.08a2.37,2.37,0,0,1-1.24,0c-.76-.3-.95-1.26-1-2.07l-.64-6.42c-.22-2.21-.31-4.77,1.34-6.26,1-.95,2.56-1.18,3.82-1.83s2.37-2.18,1.67-3.42c.25-.74-.28-1.62-.13-2.39a4.91,4.91,0,0,1,5.26-3.91c2.38.38,4.11,3.26,3.07,5.43-.63,1.32-2.07,2.29-2.16,3.74-.13,2.12,2.53,3.22,3.5,5.11.37.72.49,1.55.88,2.25a7.15,7.15,0,0,0,1.39,1.62,21.37,21.37,0,0,1,4.06,5.65C286.49,500.05,285.3,499.92,284.57,499.92Z"/>
    <path class="cls-3" d="M277.58,488.76c-.05-.1.13-.18.21-.11a.39.39,0,0,1,0,.32c-.33,1.68-.65,3.37-1,5l-1.66-3a12.55,12.55,0,0,0-1.91-2.81,4.23,4.23,0,0,0-3-1.38"/>
    <path class="cls-3" d="M268.77,486.91c.43-.45.83,1.31,1.24,1.77a3,3,0,0,1,.62,1.71,15.43,15.43,0,0,1-.61,6.37.81.81,0,0,0,0,.63.79.79,0,0,0,.45.3l3.19,1.17a2.12,2.12,0,0,0,.95.18,3.92,3.92,0,0,0,.9-.38,3.92,3.92,0,0,1,2.39.09L283,500"/>
    <path class="cls-3" d="M277.25,486.75a3.09,3.09,0,0,1-3.05.29,5.08,5.08,0,0,1-2.46-3.11"/>
    <g>
      <path class="cls-3" d="M367.42,499.55c-.86-1.85,0-5.65.49-7.62.78-2.92,1.6-5.94,3.44-8.32.9-1.16,2.1-2.51,1.6-3.9-.3-.82-1.16-1.42-1.15-2.29a2.32,2.32,0,0,1,1.23-1.71,22.66,22.66,0,0,1,4.78-2.56,1.69,1.69,0,0,1,1.33-.12,1.79,1.79,0,0,1,.78,1l1.72,3.95c.87-.32,1.7,1.11,1,1.73-.21.19-.51.29-.68.53-.55.78.84,1.69.72,2.65s-1.41,1-2.2,1.52c-1.34.87-1.06,2.91-.62,4.46l1.76,6.15a1.14,1.14,0,0,0,.33.62,1.37,1.37,0,0,0,.72.2c2.31.23,5.23,2.11,4.41,4.31-.63-.64-2.5-.38-3.13-1a1.06,1.06,0,0,0-.58-.38,1.11,1.11,0,0,0-.68.24,28,28,0,0,1-7.69,3.41,2.44,2.44,0,0,1-1.84,0,2.58,2.58,0,0,1-1-1.77,33.45,33.45,0,0,1-.7-8.7"/>
      <path class="cls-3" d="M377.09,488.92a30.36,30.36,0,0,1,.07,4.16.59.59,0,0,0,.16.43.58.58,0,0,0,.37.08l3.14,0"/>
      <path class="cls-3" d="M379.74,475.38c.09-.12-.19-.15-.33-.07l-.56.36a.75.75,0,0,0-.27.23.7.7,0,0,0-.05.45,7.49,7.49,0,0,0,.36,1.69c.13.37.33.71.47,1.09a5.11,5.11,0,0,1,.25,1.35.23.23,0,0,1,0,.16c-.08.08-.22,0-.32,0-.72-.41-1.2-1.25-2.06-1.26A1.47,1.47,0,0,0,376,480a2.26,2.26,0,0,0-.3,1.24,1.51,1.51,0,0,1-.06.56,1.12,1.12,0,0,1-1.25.55,1.83,1.83,0,0,1-1.15-.81"/>
      <path class="cls-3" d="M375.61,483.08c.48.12.77.6,1.08,1a8.16,8.16,0,0,0,1.81,1.55"/>
      <path class="cls-3" d="M386.62,497.94a7.64,7.64,0,0,0-.2-3A8.77,8.77,0,0,1,386,492a5.45,5.45,0,0,1,.56-1.6c1-2,2.65-4,4.88-4.28-.15.13-.09-.15-.08-.35a48.55,48.55,0,0,1,.37-5.9,4.6,4.6,0,0,1,.5-1.79,3.88,3.88,0,0,1,2-1.45,5.92,5.92,0,0,1,4.14-.2,3.33,3.33,0,0,1,2.24,3.25,9,9,0,0,1-.42,1.58c-.33,1.11-.37,2.3-.75,3.4a5.74,5.74,0,0,1-1.77,2.51c-.27.22-.59.49-.52.83a.84.84,0,0,0,.31.41,4.7,4.7,0,0,0,3.11,1.08,9.58,9.58,0,0,0-1.41,4.17,19,19,0,0,0,.06,3.2c.1,1.36.49.15.59,1.52"/>
      <path class="cls-3" d="M390.66,487.21a2.8,2.8,0,0,0-1.25,2.26,7,7,0,0,0,.49,2.63,7.37,7.37,0,0,1,2.78-2.22,22.18,22.18,0,0,1,3.36-1.24"/>
      <path class="cls-3" d="M392.2,485.44s0-.08,0-.06,0,.09,0,.13a1,1,0,0,0,.91.36,7.29,7.29,0,0,1,1-.09,1,1,0,0,0,.38,0,.84.84,0,0,0,.37-.2,10,10,0,0,0,.78-.65,4.5,4.5,0,0,1,.68-.63,4.23,4.23,0,0,1,.47-.25,7,7,0,0,0,2.21-1.73"/>
      <path class="cls-3" d="M421.48,499.55a24.32,24.32,0,0,0-1.58-3.62c-.29-.49-.6-1-.87-1.46s-.45-.94-.66-1.42l-1-2.37a7.62,7.62,0,0,0-1.45-2.5,3.85,3.85,0,0,0-1.69-1,12.59,12.59,0,0,1-1.63-.43,1.33,1.33,0,0,1-.85-1.32,2.56,2.56,0,0,1,.62-1,3.25,3.25,0,0,0,.4-3.29c-.07-.14-.14-.31-.05-.43a.42.42,0,0,1,.27-.12c.46-.12.9-.68.57-1s-.56-.15-.84-.25c-.66-.22-.68-1.13-.7-1.83a4,4,0,0,0-2.53-3.79,4.91,4.91,0,0,0-3.32.51c-1.34.61-2.82,1.48-3.36,2.85a4.87,4.87,0,0,0-.47,3.42,4,4,0,0,0,.74,1.14,10.15,10.15,0,0,0,1.69,1.52c.4.29.85.63.86,1.12s-.55.92-1.05,1.17a1.9,1.9,0,0,1-1.15.26s-1.57,0-2.75,3.2"/>
      <path class="cls-3" d="M412.53,493.37a2.38,2.38,0,0,1,1.05.76,2.41,2.41,0,0,1,.24.65L415,499"/>
      <path class="cls-3" d="M411,477.87a1.29,1.29,0,0,0-1.34,1.23c0,.57.37,1.17.11,1.68a1.41,1.41,0,0,1-1.25.55,2,2,0,0,0-1.36.36c-.51.49-.3,1.43-.79,1.95"/>
      <path class="cls-3" d="M403.83,486.37c0,.13.12.22.25.27a7.62,7.62,0,0,0,3.67.34,15.38,15.38,0,0,0,3.28-1"/>
    </g>
    <line class="cls-3" x1="47.58" y1="500" x2="40.91" y2="500"/>
    <line class="cls-3" x1="183.44" y1="500" x2="53.57" y2="500"/>
    <line class="cls-3" x1="232.35" y1="500" x2="188.64" y2="500"/>
    <line class="cls-3" x1="265.1" y1="500" x2="238.72" y2="500"/>
    <line class="cls-3" x1="372.07" y1="500" x2="287.46" y2="500"/>
    <path class="cls-5" d="M44.88,511.39,423,511.11c15.74.19,30.64.13,46.38.31,4.19.05,19.49-.24,27.26-.48.87,0,1.29.71.62,1.09-2.44,1.38-4,2.92-6.78,5.34-141.94-1.82-438,.11-442.58.23-2,.06-4.26.06-5.91-.73C38.46,515.18,40.58,511.39,44.88,511.39Z"/>
    <g>
      <path class="cls-3" d="M205.6,492.63c-.32,2.28-.4,4.56-.68,6.84.33-1,.89-2.11,1.91-2.13a3.79,3.79,0,0,1,1.55.57,7.28,7.28,0,0,0,1.51.45l3,.66a3.55,3.55,0,0,0,1.29.13,1.79,1.79,0,0,0,1-3,5,5,0,0,0-1.2-.71c-2-1-3.59-2.77-5.21-4.37s-3.49-3.13-5.74-3.48c-.43-.07-.87-.1-1.3-.2-.65-.16-1.24-.51-1.89-.68a6,6,0,0,0-2.12-.1c-2.8.23-5.79,1.17-7.32,3.53a7.73,7.73,0,0,0-.83,1.77,11.27,11.27,0,0,0-.06,6.8"/>
      <path class="cls-3" d="M202,486.7a4.89,4.89,0,0,0,.77-1.92,3.74,3.74,0,0,1,.45-1.66,2.48,2.48,0,0,1,.88-.69c.73-.42,1.56-.94,1.68-1.77a1.43,1.43,0,0,0-1.62-1.54c-.29.06-.59.21-.86.1a.92.92,0,0,1-.35-.3l-.78-.94a3.12,3.12,0,0,0-3.35-.76,6.42,6.42,0,0,0-2.6,2.31c-.88,1.19-1.7,2.63-1.38,4.08a1.63,1.63,0,0,0,.39.8c.17.17.39.28.58.44a1.77,1.77,0,0,1,.63,1.61l.14-.3"/>
      <path class="cls-3" d="M196.34,484.09c0,.31.39.42.7.42a9.94,9.94,0,0,0,4.75-1.34"/>
    </g>
    <g>
      <path class="cls-3" d="M167.58,498.72c.26-1.06.52-5.11.78-6.18a24.09,24.09,0,0,1,1.86-5.52,8.09,8.09,0,0,1,4.14-3.95,9.54,9.54,0,0,0,.78-2.62c.17-1.33.06-2.83.9-3.88a3.71,3.71,0,0,1,1.52-1A11.63,11.63,0,0,1,182,475a1.34,1.34,0,0,1,1.17.4c.23.34.14.87.47,1.11.09.07.21.11.3.17.33.23.29.74.13,1.11A7.52,7.52,0,0,1,182,480c-1.48,1.35-2.61,3.31-4.56,3.81a2,2,0,0,1-2.28-.69"/>
      <path class="cls-3" d="M181.74,481a.55.55,0,0,1,.69.36,1.16,1.16,0,0,1-.13.85c-.7,1.37-2.57,2-2.86,3.55a4.16,4.16,0,0,0,1.08,3,2.76,2.76,0,0,1,.48,1c.12.62-.17,1.29.07,1.87a7.9,7.9,0,0,1,.47.85c.09.31,0,.66.14.95a1.19,1.19,0,0,0,.3.37,17.89,17.89,0,0,0,2.77,2.13"/>
      <path class="cls-3" d="M179.27,489.43a.89.89,0,0,0-.83.63,4.07,4.07,0,0,0-.17,1.1c-.16,1.54-1.11,3.11-.5,4.52a4.09,4.09,0,0,0,2.63,1.92,6.16,6.16,0,0,0,2.68.42c.47-.06.92-.22,1.39-.3a4.53,4.53,0,0,1,2.87.43,2.44,2.44,0,0,1,1.22,1.25,1.27,1.27,0,0,1-.5,1.55.88.88,0,0,1-1.27-.74c0,.38-.41.63-.79.66a8.67,8.67,0,0,0-1.14,0c-.35.07-.78.27-1,0a1.52,1.52,0,0,1-.17-.48c-.23-.73-1.24-.73-2-.64a15.81,15.81,0,0,1-6.76-.73,2.23,2.23,0,0,1-1.31-.86,2.54,2.54,0,0,1-.11-1.66,28.44,28.44,0,0,0,.26-6.32"/>
    </g>
    <g>
      <path class="cls-3" d="M302.58,498.83c.57-2.27-.95-4.64-.5-6.93.15-.73.47-1.56,0-2.15a.78.78,0,0,1-.16-.24c-.07-.28.31-.44.49-.67a2,2,0,0,0,.19-.61,2.37,2.37,0,0,1,.87-1.12,15,15,0,0,1,5.36-2.87"/>
      <path class="cls-3" d="M309,483.78c.22-2,.51-4,.87-6a2.93,2.93,0,0,1,.75-1.77,6,6,0,0,0,.78-.64c.24-.31.27-.75.52-1.06a1.38,1.38,0,0,1,1.42-.31,9.18,9.18,0,0,1,1.38.66,8.32,8.32,0,0,1,1.76.82,4.4,4.4,0,0,1,1.29,2.35,3.34,3.34,0,0,1,.19,2.06,6.21,6.21,0,0,0-.37.93,4.42,4.42,0,0,0,0,.63,2.67,2.67,0,0,1-1,2.13c-.4.32-.89.51-1.26.86a1.1,1.1,0,0,0-.29,1.37,1.54,1.54,0,0,0,.77.45,10,10,0,0,1,2.45.95,8,8,0,0,1,1,.64,3.16,3.16,0,0,1,1,2.07,2.71,2.71,0,0,1-.05.75,3.22,3.22,0,0,0-.16,1,3.34,3.34,0,0,0,.29.8,6.08,6.08,0,0,1,.18,3.09c-.14,1.25,0,3.26-.18,4.52"/>
      <path class="cls-3" d="M304.28,490.58l0,.06a38.88,38.88,0,0,1,1.62,7.24c0,.16.23.22.39.24l4.66.6"/>
      <path class="cls-3" d="M316.56,490.79c-.16,0-.18.24-.16.4a38.44,38.44,0,0,1,.51,8.83"/>
      <path class="cls-3" d="M314.13,486.64a12.1,12.1,0,0,0-2.09,5.05,6.22,6.22,0,0,0-1.17-1.79,15.82,15.82,0,0,0-1.86-1.8,1,1,0,0,1-.31-.35.7.7,0,0,1,.16-.67c.15-.18.34-.33.5-.51a1.47,1.47,0,0,0,0-1.76"/>
      <path class="cls-3" d="M309.85,483.76a2.57,2.57,0,0,1,1.32,0,2.75,2.75,0,0,0,.6.23,1.56,1.56,0,0,0,.43,0,10.23,10.23,0,0,0,3.64-1.47"/>
      <path class="cls-3" d="M311,478.1l-.3.34c-.14-.11,0-.33,0-.47a7.69,7.69,0,0,1,1-1.21c.17-.17.43-.33.62-.19s.13.31.22.45a.61.61,0,0,0,.61.18,3.17,3.17,0,0,1,.67-.13c.37,0,.74.26,1.09.12a2.8,2.8,0,0,1,.3-.15.45.45,0,0,1,.48.24.93.93,0,0,1,.08.55,2.3,2.3,0,0,1-.4,1.14c-.1.14-.22.31-.16.46s.16.18.23.28c.22.27,0,.68.08,1,.09.64,1,1.05.81,1.67"/>
    </g>
    <path class="cls-3" d="M113.11,450.06c.56,1.35,1.09,2.7,1.66,4,.24.56.29.75.89.76a17.53,17.53,0,0,0,2.81-.64c1.66-.29,3.35-.44,5-.58a27.43,27.43,0,0,1,7.68.09c5.81,1.16,10.35,5.91,12.95,11.23a6.43,6.43,0,0,0-6.38,3.5,2.48,2.48,0,0,1-3.47,1.92,6.76,6.76,0,0,0-6.42,3.45,2,2,0,0,1-.75.95,2.06,2.06,0,0,1-1.34,0,6.47,6.47,0,0,0-6.72,2.81c-.41.66-.77,1.45-1.5,1.7a3.56,3.56,0,0,1-2-.26,5.72,5.72,0,0,0-6.74,3.82,4,4,0,0,0-4.17.16c-1.33.67-2.08,2-3.07,3.08a10.76,10.76,0,0,1-.39-5.59c.54-2.41.78-4.89,1.28-7.32,1.36-6.53,4-13.47,9.73-16.8a16.08,16.08,0,0,1,3-1.32"/>
    <path class="cls-3" d="M136.23,467.16c-1.18-.49-1.42-2-1.89-3.21-.88-2.27-3-3.81-5.23-4.86A22.46,22.46,0,0,0,117.83,457c4.09,3.65,7.7,9.78,10,14.76"/>
    <path class="cls-3" d="M115.09,458.84a106.61,106.61,0,0,0,.72,18.13"/>
    <path class="cls-3" d="M114,457.88c-2.23,1.61-4.46,6-5.17,8.66s-.93,5.43-1.53,8.12c-.42,1.88-1,3.9-.24,5.66"/>
    <path class="cls-3" d="M124.64,476.89c.15-.07-.07-.3-.19-.19s-.07.29,0,.42a38.05,38.05,0,0,1,5.21,10.53"/>
    <path class="cls-3" d="M478.16,476.16a4.76,4.76,0,0,1,2.94-1.5c1.14-.15,4.53.06,5.67-.11a4.78,4.78,0,0,0,1.83-.66,7.5,7.5,0,0,1-.69,1.57,1.64,1.64,0,0,0,0,1.62,5.63,5.63,0,0,0-1.83-.07c-.6.11-3.39.46-3.51,1a19.55,19.55,0,0,1-.23,2.89c-.27-.49-.94,0-1.58,0s-1.18,1.22-1.35,1.73-.1,1.06-.75,1.34c-.42.18-1.27-1.12-1.62-1.43a7.79,7.79,0,0,1-.55-3,3.83,3.83,0,0,1,.43-1.69A6.29,6.29,0,0,1,478.16,476.16Z"/>
    <path class="cls-3" d="M486.4,477.56a1.22,1.22,0,0,0,.22,1,12.15,12.15,0,0,1,1.22,4c.29,1.57-1.81,3.71-3.23,4.45a4.45,4.45,0,0,1-4.55-.23c-.91-.65-1.25-1.78-1.84-2.72-.78-1.26.44,1,.45-.07"/>
    <path class="cls-3" d="M480.34,487.23c.33,1.12-.57,1.87-.84,3-.2.84-1.79,1.37-2.14,2.16a24.32,24.32,0,0,0-.86,4c-.23,1.48-1,11.31-1.14,11"/>
    <path class="cls-3" d="M485.65,495.35c.93,2.46,2.29,7.8,2.22,9.72"/>
    <path class="cls-3" d="M485,486.73a6,6,0,0,0-.93,2.12v2.72a4.57,4.57,0,0,0,0,.83"/>
    <path class="cls-3" d="M480.34,490.24c.26.12.8,1.13,1.06,1.25s1.06.66,1.4.63c.65-.06.82-.29,1.19-.9"/>
    <path class="cls-3" d="M138.31,475.62c.34.87.82,2.12,1.19,3,.5,1.18-.89,1.25-.95,2.53a3.55,3.55,0,0,1-.39,1.78,2.91,2.91,0,0,1-1.79,1.1,2.11,2.11,0,0,1-1.71-.08,8.17,8.17,0,0,1-.69-.63c-.77-.65-2-.65-2.66-1.41a3.39,3.39,0,0,1-.54-1,10,10,0,0,1-.87-3.19"/>
    <path class="cls-3" d="M133.65,483.08a7,7,0,0,1-.17,3.66c-.37.8-.89,1.52-1.33,2.28-1.74,3-2,6.68-2.18,10.18"/>
    <path class="cls-3" d="M136.37,484c-.47.4-.39,2.59-.06,3.12l1.3,2.07a1.1,1.1,0,0,0,.45.48,4.7,4.7,0,0,1,.8.61c1.37,1.19,1.35,1.65,1.39,2.56,0,1.12-.58,1.38-1.64,1.74-.3.11-.69.17-.8.47a.85.85,0,0,0,.08.56,13.14,13.14,0,0,1,.79,3.76"/>
    <path class="cls-3" d="M130.68,479.35c0,.1.18.12.29.12a3.1,3.1,0,0,0,2.67-1.93.63.63,0,0,1,.14-.24.51.51,0,0,1,.33-.09,3.71,3.71,0,0,0,1.81-.68,5.41,5.41,0,0,1,.69-.49,1.82,1.82,0,0,1,1.14-.2.27.27,0,0,0,.18,0,.26.26,0,0,0,.09-.14,1.92,1.92,0,0,0-.77-2,3.32,3.32,0,0,0-2.22-.52,5.09,5.09,0,0,0-1.53.36.92.92,0,0,0,0-1.11,1.24,1.24,0,0,0-1.08-.94,1.67,1.67,0,0,0-1.33.52,3,3,0,0,0-.73,1.27,2.68,2.68,0,0,0-.16,1.08,1.34,1.34,0,0,0,.5.95,7.72,7.72,0,0,0-.82,1.49,1.9,1.9,0,0,0-.18.84,2.11,2.11,0,0,0,.18.64A2.44,2.44,0,0,0,130.68,479.35Z"/>
    <g>
      <path class="cls-3" d="M146.83,481.42a.89.89,0,0,0,.08-.48,11.2,11.2,0,0,0-.46-1.9,1.84,1.84,0,0,1,.39-1.83,10.2,10.2,0,0,0,3.51-1.37.63.63,0,0,1,.39-.13c.34,0,.35.51.47.82.19.47.75.66,1.09,1a1.64,1.64,0,0,1,.39,1.38,2.47,2.47,0,0,1-.71,1.28.64.64,0,0,0-.22.32.85.85,0,0,0,.1.4,1.32,1.32,0,0,1-.35,1.35,2.38,2.38,0,0,1-1.33.59A3.81,3.81,0,0,1,146.83,481.42Z"/>
      <path class="cls-3" d="M151.57,475l3.34-2.13a21.53,21.53,0,0,0-4.26,1.63.53.53,0,0,1-.42.07c-.13-.05-.18-.2-.22-.33l-.57-1.75c-.18-.58-.56-1.3-1.17-1.22a1.66,1.66,0,0,0-.76.45c-1.17,1-2.74,1.3-4.15,1.91a.52.52,0,0,0-.22.17c-.11.17,0,.38.16.53l2,2.36-2.75,2.75c-.18.18-.35.47-.17.64s.42,0,.57-.14c.44-.44,1.51-.67,1.89-1.16s.59-.8,1.21-.79"/>
      <path class="cls-3" d="M149.11,483.66a6.27,6.27,0,0,0,.47,3.4,1,1,0,0,0,.11.25,1,1,0,0,0,.31.24,4,4,0,0,1,1.63,3c0,.55.07,1.21.55,1.49a3.16,3.16,0,0,0,.54.2,2.7,2.7,0,0,1,1.33,1.63,13.13,13.13,0,0,1,1.41,6.1"/>
      <path class="cls-3" d="M147.05,483a6.31,6.31,0,0,1-.52,2.89l-1.34,3.8a11.83,11.83,0,0,0-.4,1.32,15.18,15.18,0,0,0-.18,2.13c-.16,2.6-.93,4.08-.62,6.67"/>
      <path class="cls-3" d="M151.26,499.79c-.57-2.6-1.39-6-2.1-8.53a2.62,2.62,0,0,0-.4-.94.94.94,0,0,0-.87-.41,1,1,0,0,0-.56.36,1.8,1.8,0,0,0-.19,2c.38.65.17,1.38.3,2.12a12.65,12.65,0,0,0,.58,2.43,3.85,3.85,0,0,1,.27.81c.12.7-.24,1.4-.14,2.11a.36.36,0,0,0,.08.2.38.38,0,0,0,.16,0"/>
    </g>
    <path class="cls-3" d="M132.88,498a3.13,3.13,0,0,1-.31-2.35c.16-.79.46-1.56.54-2.36a8.3,8.3,0,0,1,.21-1.94c.21-.62.87-1.16,1.48-.94s.78,1,.68,1.66a5.6,5.6,0,0,0-.24,1.93c.06.28.19.54.25.82a4.22,4.22,0,0,1,0,.94,10.72,10.72,0,0,0,.41,3.43"/>
    <path class="cls-3" d="M481.16,497.46c.24,1,4.12-2,4.62-2.5,2.38-2.18,5.24-3.38,7.61-5.58s4.21-5.42,6.57-7.62l.87-.81a2.47,2.47,0,0,0,1-1.74c0-.7-1.07-1.22-1.43-.62l.6-1.4a1.32,1.32,0,0,1-1.17-.74l-.95.6a7.58,7.58,0,0,1,1.1-2.62,2.45,2.45,0,0,0-2.4,2.79,8.73,8.73,0,0,1,.35,1.38,3,3,0,0,1-1,1.9c-1.95,2.25-2.83,4.91-5,7-1.07,1.05-3.32,1.6-4.43,2.61l-1.71,1.52c-.41.35-4.11,1.58-4.39,2.05"/>
    <g>
      <path class="cls-3" d="M238.47,500.25a8.66,8.66,0,0,1-3.61.89,3.24,3.24,0,0,1-3-1.89,1.22,1.22,0,0,1-.07-.65,1.59,1.59,0,0,1,.36-.61,10,10,0,0,1,3.12-2.88c.67-.33,1.49-.57,1.83-1.24.07-.15.25-.39.31-.55l1.18-2.82a.37.37,0,0,1,.17-.22c.09,0,.21.05.17.14a1.51,1.51,0,0,1,1.41-.41,3.36,3.36,0,0,0-.64,1.85,2.86,2.86,0,0,1,4.2,2.66,10.53,10.53,0,0,0-.1,1.25c0,.25.08.5.09.74a4.86,4.86,0,0,1-.33,1.72,1.69,1.69,0,0,1-.19.38,2.16,2.16,0,0,1-.53.47,4.54,4.54,0,0,1-.83.69,1.32,1.32,0,0,1-1.22-.24,8.72,8.72,0,0,1-2-1.73,2.72,2.72,0,0,1-.6-1,1.17,1.17,0,0,1,.18-1.09"/>
      <path class="cls-3" d="M239.38,492.76c-.16,0-.17.3,0,.33a.57.57,0,0,1,.54-.65,2.13,2.13,0,0,1-.46,1.8,8.77,8.77,0,0,1-1.42,1.3,16.52,16.52,0,0,0-2.28,2.3c-.12.15-.25.35-.18.53a.31.31,0,0,0,.38-.08,1.31,1.31,0,0,0,.21-.36c.22-.4,1.64-.19,2.09-.24"/>
      <path class="cls-3" d="M236.55,494.16c-.1-1.53.77-3,1-4.47.11-.72.09-1.46.19-2.18a3.2,3.2,0,0,1,.86-2c.61-.57.14-1.85-.24-2.58s-.78-1.7-.25-2.34l.46.38a.35.35,0,0,1,.1-.57.36.36,0,0,1,.45.37l.42-.35.74,1.94c.05.13.13.29.27.31.31.06.33-.47.56-.68s.79.14.76.54a2.17,2.17,0,0,1-.58,1,3.16,3.16,0,0,0-.54,2.21c.72-1,2.17-1.19,3.44-1.23a1.17,1.17,0,0,1,.56.07,1.07,1.07,0,0,1,.46.71,10.21,10.21,0,0,1,.24,5.09,1.73,1.73,0,0,0,0,.78,1.74,1.74,0,0,0,.34.55,6.87,6.87,0,0,1,1.11,3.8,18.91,18.91,0,0,0,.38,4"/>
      <path class="cls-3" d="M241.08,486.65c0,.5.25,1,.26,1.48,0,.23,0,.46-.05.69a3.93,3.93,0,0,0,.41,1.56,1.23,1.23,0,0,0,.3.49c.27.24.72.22.93.52"/>
      <path class="cls-3" d="M241.62,487.06a2.51,2.51,0,0,1,.58-1.12,1.65,1.65,0,0,1,.85-.38,2.31,2.31,0,0,1,2.11.83"/>
      <path class="cls-3" d="M227.89,500.18c.43-.4.32-2.92.38-3.51a23.65,23.65,0,0,1,1.22-5.31c.11-.31.31-.68.64-.67l.14.94c0,.12.06.25.17.28a.31.31,0,0,0,.21-.07l.76-.48a.65.65,0,0,0,.3-.29.71.71,0,0,0,0-.41l-.45-3.45a3.57,3.57,0,0,0-.73-2c-.43-.44-1.13-.71-1.23-1.32s.26-1,.09-1.44-.66-.62-.79-1,.25-.92.39-1.39a1.87,1.87,0,0,0-1.16-2.07,5.5,5.5,0,0,0-2.55-.3,2.33,2.33,0,0,0-1.38.37,2.3,2.3,0,0,0-.63,1.48l-.3,1.83a1.36,1.36,0,0,0,.4,1.33,2.31,2.31,0,0,1-2.24.55,6.77,6.77,0,0,1-2.16-1.09l-3.93-2.63c-1.41-.94-2.95-2.07-3.22-3.74-.29-.08-.52.4-.27.57-.31.1-.63-.07-1-.09s-.7.33-.5.58c-.19-.2-.41.2-.39.47l.08.91c0,.19.05.42.22.5a.78.78,0,0,0,.45,0c.72-.12,1.33.53,1.78,1.11L214,482a5.06,5.06,0,0,0,.69.77,5.27,5.27,0,0,0,.88.53c.74.39,1.46.8,2.16,1.24a5.56,5.56,0,0,1,2.21,2.14c.77,1.64-.06,3.54-.7,5.23a48.15,48.15,0,0,0-1.47,8.12"/>
      <path class="cls-3" d="M224.38,483.07l2.83-.44"/>
      <path class="cls-3" d="M228.3,481.8a.53.53,0,0,0-.81.38.7.7,0,0,0,.73-.55"/>
      <path class="cls-3" d="M227.92,482.54v-.06a1.47,1.47,0,0,1-.11,1.33,2.13,2.13,0,0,0-.3,1.33.36.36,0,0,0,.08.15.27.27,0,0,0,.35,0,1,1,0,0,0,.18-.33l0,.21c.17-.18.43.17.67.14s.22-.49.39-.73l.26,0"/>
    </g>
    <path class="cls-3" d="M243.38,491.56c0-.07.1-.09.18-.08a2.45,2.45,0,0,0,1.43-.24"/>
    <path class="cls-3" d="M384.81,438.61l0,2.83a6.55,6.55,0,0,0,.15,2.21,1.48,1.48,0,0,0,1,.9,3.17,3.17,0,0,0,.81.12,25.05,25.05,0,0,1,4,.42,31.86,31.86,0,0,1,13.71,6.09A19.93,19.93,0,0,1,412,464a8.09,8.09,0,0,0-9.17,2.06,1.15,1.15,0,0,1-.62.47,1.17,1.17,0,0,1-.7-.16,8.87,8.87,0,0,0-9.7,1.91,1.44,1.44,0,0,1-.54.41,1.36,1.36,0,0,1-.85-.16A10.14,10.14,0,0,0,380,470.23a3.93,3.93,0,0,0-4.07-1.39,11.39,11.39,0,0,0-4,2.06,1,1,0,0,0-.59-1.22,2.41,2.41,0,0,0-1.48-.05,10.17,10.17,0,0,0-2.49.9,15.25,15.25,0,0,0-2.18,1.57A7.51,7.51,0,0,1,366,468c.6-1.45.4-3.07.41-4.59a18.49,18.49,0,0,1,.24-3.15,15.15,15.15,0,0,1,5-8.41,32.36,32.36,0,0,1,8.46-5.19,22.66,22.66,0,0,1,5.31-1.81"/>
    <path class="cls-3" d="M390.86,467.21a120.8,120.8,0,0,0-4-15.4c-.47-1.55-1-3.5-2.37-4.53,0,.45.18.87.17,1.31a14.28,14.28,0,0,1-.76,3.21,34.39,34.39,0,0,1-1.65,4.52c-.69,1.52-1.58,2.95-2.19,4.5a27.54,27.54,0,0,0-1.42,8.08l.47-1.3"/>
    <path class="cls-3" d="M386.61,447.28a6.21,6.21,0,0,1,4.14.91,18.65,18.65,0,0,1,3.33,2.76,26.21,26.21,0,0,1,3,3.3c2.08,2.85,3,6.38,3.84,9.8"/>
    <path class="cls-3" d="M383,448.06c-1.57-.25-2.88,1.1-3.88,2.32l-2,2.47a31.49,31.49,0,0,0-3.27,4.52c-1.85,3.33-2.42,7.2-3,11"/>
    <path class="cls-3" d="M476,506.6a13.07,13.07,0,0,0,9.49-1.69,5.34,5.34,0,0,0,1.62-1.44"/>
    <path class="cls-4" d="M531.33,545.3c-2.93-2.23-7.13-1.64-10.55-.26s-6.62,3.44-10.26,4c-3.13.44-6.34-.31-9.44.25-2.58.47-4.91,1.81-7.38,2.67a41.58,41.58,0,0,1-7.59,1.65c-6,.93-12,6.91-18.06,7.83"/>
    <path class="cls-4" d="M364.65,557.2a56.26,56.26,0,0,1-17.7,2c-5.68-.27-11.31-1.4-17-1.3-4.95.09-9.83,1.12-14.7,2a283.7,283.7,0,0,1-59.69,4.53"/>
    <path class="cls-4" d="M437.4,551.43c-4-.4-8.17-.79-12.12.14a44.59,44.59,0,0,0-8.32,3.29c-16.55,7.59-34.69,10.9-52.61,14.14"/>
    <g>
      <path class="cls-3" d="M71.89,496.26a4.38,4.38,0,0,1,.63-1,3.15,3.15,0,0,1,2.28-1"/>
      <path class="cls-3" d="M79.74,485.73a1.35,1.35,0,0,1-1,.7,2.87,2.87,0,0,1-3-1.69,6.09,6.09,0,0,1-.18-3.31,2.14,2.14,0,0,1,.2-.75,1.78,1.78,0,0,1,1.76-.7,3.21,3.21,0,0,1,1.73.89,3.84,3.84,0,0,1,.57,4.92,5.85,5.85,0,0,1,1.72-.07,1.61,1.61,0,0,1,1.29.89c.25.7-.38,1.37-.66,2.07-.65,1.66.74,3.71-.43,5.14-.38.47-1,.8-1.21,1.34a4.13,4.13,0,0,0-.09,1.36,2.55,2.55,0,0,1-1.57,2.07,3.33,3.33,0,0,1-2.86-.13,2.19,2.19,0,0,0-1.2-.47c-.54,0-.85.53-1,1"/>
      <path class="cls-3" d="M76.51,487a2.87,2.87,0,0,0-1.18,2.47,8.1,8.1,0,0,0,.73,2.69"/>
      <path class="cls-3" d="M77.32,479.32a1.67,1.67,0,0,0-.81-1.84,4.21,4.21,0,0,0-2.31-.55,4.06,4.06,0,0,0-2.34.64c-.83.61-1.21.19-1.43,1.11s-1,1.71-1.2,2.6c-.07.3-1.14,1.48-1,1.75A11.19,11.19,0,0,0,71,484.27c.78.22,1.6-.1,2.4.06a1.6,1.6,0,0,0-.6,1.61c.06,1.24.18,2.48.34,3.71a4.1,4.1,0,0,0,.44,1.56,6,6,0,0,0,2.83,2,3.48,3.48,0,0,1,1.86,1.47"/>
      <path class="cls-3" d="M68.86,484.5A6.36,6.36,0,0,0,66.5,489c-.78,4.78-.82,6.41,1,11"/>
    </g>
  </g>
  <path class="cls-3" d="M208.43,406.78l2.2,2.39a9.64,9.64,0,0,0,1.85,1.7,9.12,9.12,0,0,0,2.32,1s-3.87,7.61-4.22,8.3-.68,1.44-1.08,2.12a1.5,1.5,0,0,1-.23.33c-.11.11-.28.17-.39.3-.33.4-.29,1.2-.36,1.69l-.26,1.93A38.55,38.55,0,0,0,214,427a1.61,1.61,0,0,0,.87-.15c.69-.42.38-1.58-.32-2a6.34,6.34,0,0,0-2.35-.45.89.89,0,0,1-.5-.2c-.26-.25-.17-.68,0-1a35.71,35.71,0,0,1,3.26-7.62,12.34,12.34,0,0,0,1.66-3,2.89,2.89,0,0,0-.83-3.15,8.08,8.08,0,0,0-1.37-.62c-2.27-1-3.12-3.79-3.42-6.27"/>
</svg>
